<?xml version="1.0" encoding="utf-8"?>
<!-- Generator: Adobe Illustrator 27.5.0, SVG Export Plug-In . SVG Version: 6.00 Build 0)  -->
<svg version="1.1" xmlns="http://www.w3.org/2000/svg" xmlns:xlink="http://www.w3.org/1999/xlink" x="0px" y="0px"
	 viewBox="0 0 500 500" style="enable-background:new 0 0 500 500;" xml:space="preserve">
<g id="Background_Simple">
	<g>
		<path style="fill:#92E3A9;" d="M453.463,402.451c-1.772,2.788-3.611,5.523-5.527,8.191
			c-25.513,35.523-67.063,59.216-107.109,69.393c-17.544,4.466-35.491,6.574-53.358,6.767
			c-117.189,1.211-157.681-96.602-194.753-122.515C55.643,338.372-1.133,294.281,8.461,205.015
			C15.744,137.144,56.066,73.117,127.385,45.36c7.855-3.067,16.095-5.693,24.704-7.825c16.016-3.968,33.323-6.27,51.915-6.614
			c53.4-0.991,96.373,13.016,137.891,46.55c9.651,7.795,19.224,16.553,31.979,17.818c9.271,0.919,18.165-2.194,8.69-11.438
			c-11.136-10.866,2.572-31.309,31.164-16.113c47.753,25.38,66.299,77.937,74.297,131.097
			C497.843,264.085,490.16,344.714,453.463,402.451z"/>
		<path style="opacity:0.7;fill:#FFFFFF;" d="M453.463,402.451c-1.772,2.788-3.611,5.523-5.527,8.191
			c-25.513,35.523-67.063,59.216-107.109,69.393c-17.544,4.466-35.491,6.574-53.358,6.767
			c-117.189,1.211-157.681-96.602-194.753-122.515C55.643,338.372-1.133,294.281,8.461,205.015
			C15.744,137.144,56.066,73.117,127.385,45.36c7.855-3.067,16.095-5.693,24.704-7.825c16.016-3.968,33.323-6.27,51.915-6.614
			c53.4-0.991,96.373,13.016,137.891,46.55c9.651,7.795,19.224,16.553,31.979,17.818c9.271,0.919,18.165-2.194,8.69-11.438
			c-11.136-10.866,2.572-31.309,31.164-16.113c47.753,25.38,66.299,77.937,74.297,131.097
			C497.843,264.085,490.16,344.714,453.463,402.451z"/>
	</g>
</g>
<g id="Battery">
	<g>
		
			<rect x="210.732" y="129.079" transform="matrix(-1 -1.224647e-16 1.224647e-16 -1 430.1682 270.8576)" style="fill:#FFFFFF;stroke:#263238;stroke-miterlimit:10;" width="8.704" height="12.699"/>
		<rect x="219.436" y="119.084" style="fill:#FFFFFF;stroke:#263238;stroke-miterlimit:10;" width="55.431" height="32.69"/>
		<polygon style="fill:#92E3A9;" points="272.592,149.479 251.446,149.479 272.592,121.379 		"/>
	</g>
</g>
<g id="Picture">
	<g>
		<path style="fill:none;stroke:#263238;stroke-miterlimit:10;" d="M50.635,44.753V226.68h139.288V44.753H50.635z M182.332,216.769
			H58.219V54.665h124.113V216.769z"/>
		<path style="fill:none;stroke:#263238;stroke-miterlimit:10;" d="M113.977,216.769c7.849-5.497,16.142-11.131,24.571-16.807
			c14.728-9.938,29.868-20.003,43.783-29.709"/>
		<path style="fill:none;stroke:#263238;stroke-miterlimit:10;" d="M182.332,114.992c-8.155,3.344-16.606,7.311-25.015,11.5
			c-21.554,10.751-42.802,23.042-57.963,30.437c-17.081,8.345-26.428,10.476-19.803-2.775c1.498-3.007,3.608-6.109,6.214-9.284
			c7.596-9.253,19.476-19.096,33.307-28.781c19.423-13.599,42.676-26.871,63.259-37.77"/>
		<path style="fill:none;stroke:#263238;stroke-miterlimit:10;" d="M182.332,62.135c-19.792,7.385-44.881,20.003-74.864,41.367
			c-1.287,0.918-2.553,1.836-3.798,2.764c-12.776,9.442-22.894,18.737-31.018,27.779c-5.729,6.362-10.455,12.597-14.433,18.653"/>
		<path style="fill:none;stroke:#263238;stroke-miterlimit:10;" d="M58.219,102.732c4.463-4.188,9.189-8.482,14.19-12.871
			c3.123-2.743,6.098-5.37,8.915-7.87c12.65-11.246,22.335-20.193,29.752-27.325"/>
		<path style="fill:none;stroke:#263238;stroke-miterlimit:10;" d="M58.219,197.979c16.912-13.705,34.584-25.69,31.07-12.66
			c-2.511,9.295-10.846,20.816-20.119,31.45"/>
		<path style="fill:none;stroke:#263238;stroke-miterlimit:10;" d="M66.944,54.666c3.133,7.891,7.765,17.619,14.38,27.325
			c5.813,8.535,13.156,17.06,22.345,24.276c4.653,3.672,9.77,6.995,15.403,9.822c2.121,1.076,4.315,2.078,6.583,2.996
			c9.063,3.672,19.919,6.024,31.661,7.406c8.018,0.95,16.458,1.456,25.015,1.604"/>
		<path style="fill:none;stroke:#263238;stroke-miterlimit:10;" d="M149.584,216.769c-1.213-1.973-2.479-4.009-3.798-6.119
			c-2.247-3.587-4.663-7.153-7.237-10.687c-11.046-15.192-24.846-29.783-39.194-43.034c-4.494-4.167-9.052-8.187-13.589-12.059
			c-4.41-3.756-8.799-7.375-13.114-10.825c-4.948-3.946-9.791-7.67-14.433-11.152"/>
		<circle style="fill:none;stroke:#263238;stroke-miterlimit:10;" cx="110.155" cy="78.808" r="8.542"/>
		
			<ellipse transform="matrix(0.1602 -0.9871 0.9871 0.1602 -44.1426 284.0462)" style="fill:none;stroke:#263238;stroke-miterlimit:10;" cx="144.857" cy="167.965" rx="11.567" ry="11.567"/>
		<circle style="fill:none;stroke:#263238;stroke-miterlimit:10;" cx="72.428" cy="106.925" r="2.135"/>
		<circle style="fill:none;stroke:#263238;stroke-miterlimit:10;" cx="108.731" cy="199.107" r="4.627"/>
		<circle style="fill:none;stroke:#263238;stroke-miterlimit:10;" cx="163.542" cy="106.213" r="6.762"/>
	</g>
</g>
<g id="Character_00000114774306216726122430000014063533170871298214_">
	<g>
		<polygon style="fill:#8A8A8A;stroke:#263238;stroke-miterlimit:10;" points="70.366,318.533 151.293,318.533 137.447,368.707 
			82.534,366.299 		"/>
		<path style="fill:#BFBFBF;stroke:#263238;stroke-miterlimit:10;" d="M126.922,371.216c0,0,47.666-140.847,60.568-144.789
			c12.902-3.942,133.679-2.867,146.94,1.075c13.26,3.942,17.203,13.26,15.769,32.255c-1.434,18.995-8.601,78.846-8.601,78.846
			s-11.827,70.961-30.822,79.204c-18.995,8.243-188.513-4.659-192.814-7.885C113.662,406.696,126.922,371.216,126.922,371.216z"/>
		<g>
			<path style="fill:#263238;stroke:#263238;stroke-miterlimit:10;" d="M247.773,181.804c0,0-6.268-11.455-8.213-9.294
				c-1.945,2.161,0.648,6.268,0.648,6.268s-12.752-8.862-13.833-3.89c-1.081,4.971,4.971,7.565,4.971,7.565
				s-9.078,1.297-8.645,3.674c0.432,2.378,5.403,3.242,5.403,3.242s-2.161,39.769-4.539,45.389
				c-2.378,5.62-3.891,13.184-3.891,13.184s-17.075,23.775-11.887,57.492c5.187,33.717,27.233,52.953,34.366,51.224
				c7.133-1.729,11.023-9.726,15.346-3.674c4.323,6.052,13.833,17.507,27.017,3.242c13.184-14.265,10.375-33.717,9.51-42.363
				c-0.865-8.646,20.965-8.646,19.236-28.098c-1.729-19.452-21.181-32.637-25.72-38.256c-4.539-5.62-7.132-23.343-9.51-35.663
				c-2.378-12.32-1.513-18.372-13.833-25.504C251.88,179.211,247.773,181.804,247.773,181.804z"/>
			<path style="fill:#FFFFFF;stroke:#263238;stroke-miterlimit:10;" d="M233.191,231.782c0,0,0.198,6.545-0.992,9.519
				c-1.19,2.975-4.561,7.933-4.561,7.933l25.385,1.587c0,0-1.19-9.718-0.595-13.486c0.595-3.768,3.768-11.304,3.768-11.304
				S241.124,235.352,233.191,231.782z"/>
			<path style="fill:#FFFFFF;stroke:#263238;stroke-miterlimit:10;" d="M225.511,196.502c0,0,1.081,0.865-1.297,6.268
				c-2.378,5.403-4.323,8.429-2.378,13.184c1.945,4.755,10.375,18.155,12.536,19.236c2.161,1.081,9.078,3.026,12.536,0.648
				c3.458-2.378,14.913-9.078,14.913-9.078s6.268,0.648,9.294-0.648c3.026-1.297,6.7-7.781,4.107-10.591
				c-2.594-2.81-9.078,0.648-10.158,1.297c-1.081,0.648,1.945-3.242,0.865-9.078c-1.081-5.836-5.62-13.617-5.62-13.617
				s-3.674-6.268-14.913-6.268C234.156,187.856,226.808,190.234,225.511,196.502z"/>
			<path style="fill:#FFFFFF;stroke:#263238;stroke-miterlimit:10;" d="M184.013,187.208l34.798,10.807c0,0,5.836,3.458,9.294,3.242
				c3.458-0.216,28.962-7.565,28.962-7.565s9.078,6.268,10.591,6.484c1.513,0.216,1.081-2.378-0.216-3.458
				c-1.297-1.081-1.297-1.081-1.297-1.081s-7.997-10.375-10.591-13.617c-2.594-3.242-4.755-3.674-7.133-3.026
				c-2.378,0.648-24.423,10.591-25.288,11.023c-0.865,0.432-45.605-26.152-50.792-27.233c-5.187-1.081-11.671-2.161-13.833,1.729
				C156.347,168.404,184.013,187.208,184.013,187.208z"/>
			<path style="fill:#FFFFFF;stroke:#263238;stroke-miterlimit:10;" d="M252.96,190.018c0,0,3.026-1.297,4.539-0.648
				c1.513,0.648,10.374,3.242,11.887,3.458c1.513,0.216,2.378,2.378,0.432,2.594c-1.945,0.216-9.51-1.297-9.51-1.297l-3.242-0.432"
				/>
			<path style="fill:#FFFFFF;stroke:#263238;stroke-miterlimit:10;" d="M236.534,202.337c0,0,0.432-6.7,2.81-6.7
				c2.378,0,6.916,4.539,6.916,4.539"/>
			<path style="fill:#92E3A9;stroke:#263238;stroke-miterlimit:10;" d="M189.161,188.807l-0.865-18.015
				c-7.73-4.258-14.174-7.636-15.955-8.007c-5.187-1.081-11.671-2.161-13.833,1.729c-2.161,3.891,25.504,22.694,25.504,22.694
				L189.161,188.807z"/>
			<path style="fill:#92E3A9;stroke:#263238;stroke-miterlimit:10;" d="M158.509,164.514c-1.945-0.216,2.81,19.02,9.942,33.717
				c7.133,14.697,23.559,54.25,23.559,54.25l0.648,9.942c0,0-1.513,22.478-1.513,23.343c0,0.865-19.236,24.639-19.236,24.639
				s53.17,56.412,55.763,55.979c2.594-0.432,15.994-2.594,18.155-12.536c2.161-9.942-0.648-35.663,4.323-40.634
				c4.971-4.971,28.53-44.74,27.882-54.466c-0.648-9.726-10.807-9.078-15.994-9.078c-5.187,0-42.579-5.403-42.579-5.403
				s-2.378-1.945-5.836-6.052c-3.458-4.107-10.158-7.565-10.158-7.565l-22.694-54.466c0,0-3.458-7.349-8.862-9.726"/>
			<path style="fill:none;stroke:#263238;stroke-miterlimit:10;" d="M225.022,298.761c1.915,1.077,3.715,2.194,5.301,3.334"/>
			<path style="fill:none;stroke:#263238;stroke-miterlimit:10;" d="M199.461,287.825c0,0,11.435,3.749,21.624,8.852"/>
			<path style="fill:none;stroke:#263238;stroke-miterlimit:10;" d="M215.39,290.48c0,0,13.274,4.646,20.243,10.287"/>
			<line style="fill:none;stroke:#263238;stroke-miterlimit:10;" x1="199.791" y1="234.109" x2="193.955" y2="255.939"/>
			<line style="fill:none;stroke:#263238;stroke-miterlimit:10;" x1="196.007" y1="228.1" x2="195.684" y2="249.239"/>
			<line style="fill:none;stroke:#263238;stroke-miterlimit:10;" x1="196.117" y1="220.925" x2="196.037" y2="226.104"/>
			<g>
				<path style="fill:#92E3A9;stroke:#263238;stroke-miterlimit:10;" d="M255.77,251.833c0,0,22.262-7.565,25.288-1.945
					c3.026,5.619,4.539,25.72,1.945,41.93c-2.594,16.21-8.646,51.008-10.591,51.44c-1.945,0.432-50.36-17.507-57.06-20.317
					c-6.7-2.81-43.011-19.02-44.524-19.452c-1.513-0.432,5.619-1.081,11.023-0.865c5.403,0.216,21.83,4.971,26.585,7.565
					c4.755,2.594,47.982,6.052,47.982,6.052s4.323-34.582,4.107-48.631"/>
				<path style="fill:#FFFFFF;stroke:#263238;stroke-miterlimit:10;" d="M238.295,314.603c-12.45-1.236-27.194-2.961-29.859-4.414
					c-4.755-2.594-21.181-7.349-26.585-7.565c-5.403-0.216-12.536,0.432-11.023,0.865c1.513,0.432,37.824,16.642,44.524,19.452
					c2.356,0.988,9.874,3.848,18.713,7.122L238.295,314.603z"/>
				<line style="fill:none;stroke:#263238;stroke-miterlimit:10;" x1="256.418" y1="316.241" x2="272.413" y2="317.106"/>
				<line style="fill:none;stroke:#263238;stroke-miterlimit:10;" x1="260.309" y1="314.512" x2="275.222" y2="313.864"/>
			</g>
			<path style="fill:#263238;stroke:#263238;stroke-miterlimit:10;" d="M234.156,217.899c0,0,2.161-8.429,5.403-8.862
				c3.242-0.432,7.133,8.213,6.268,10.158c-0.864,1.945-4.107-5.403-6.268-4.323C237.398,215.954,236.318,220.277,234.156,217.899z"
				/>
			<g>
				<path style="fill:#263238;stroke:#263238;stroke-miterlimit:10;" d="M130.267,346.434c0,0,15.998,14.692,29.057,17.957
					c13.059,3.265,33.125,3.363,35.825,1.518c2.7-1.845-22.113-11.313-40.396-21.107c-18.283-9.794-32.322-18.609-32.322-10.774
					C122.432,341.863,130.267,346.434,130.267,346.434z"/>
				<g>
					<path style="fill:#263238;stroke:#263238;stroke-miterlimit:10;" d="M227.672,366.385c0,0,3.965,0.925,7.473-8.43
						c0.682-1.818,5.227-9.999-22.271-29.77c-27.497-19.771-28.179-20.68-48.859-27.952s-63.176-13.635-69.993-12.044
						s-11.363,5.909-7.272,13.862s44.314,34.542,56.813,43.632c12.499,9.09,29.315,17.271,51.586,20.225
						C217.419,368.863,227.672,366.385,227.672,366.385z"/>
					<path style="fill:#FFFFFF;stroke:#263238;stroke-miterlimit:10;" d="M94.022,288.189c-6.817,1.591-11.363,5.909-7.272,13.862
						c3.08,5.988,26.634,22.535,43.425,34.228c2.345-2.515,5.192-6.105,7.707-10.821c4.121-7.727,3.701-23.879,3.25-31.317
						C121.097,289.868,98.8,287.074,94.022,288.189z"/>
				</g>
			</g>
		</g>
		<polygon style="fill:#263238;stroke:#263238;stroke-miterlimit:10;" points="259.741,427.16 265.977,457.588 279.955,457.588 
			286.406,428.917 		"/>
		<polygon style="fill:#263238;stroke:#263238;stroke-miterlimit:10;" points="309.424,424.829 315.66,457.588 329.637,457.588 
			336.089,426.72 		"/>
		<polygon style="fill:#263238;stroke:#263238;stroke-miterlimit:10;" points="104.681,427.16 110.917,457.588 124.895,457.588 
			131.346,428.917 		"/>
		<polygon style="fill:#263238;stroke:#263238;stroke-miterlimit:10;" points="159.339,424.829 165.575,457.588 179.552,457.588 
			186.003,426.72 		"/>
		<path style="fill:#BFBFBF;stroke:#263238;stroke-miterlimit:10;" d="M264.316,364.881H75.33c0,0,34.482,67.205,40.112,67.909
			c5.63,0.704,152.392,0,152.392,0s3.87-1.407,5.278-16.185c1.408-14.778,1.759-46.094-0.352-48.909
			C270.649,364.881,264.316,364.881,264.316,364.881z"/>
		<path style="fill:#BFBFBF;stroke:#263238;stroke-miterlimit:10;" d="M60.482,322.142c0,0,9.824-8.415,22.632-0.55
			s32.487,98.264,32.738,103.275c0.252,5.011-2.297,6.482-6.316,7.961c-4.019,1.478-12.51,4.122-23.066-6.305
			c-10.556-10.427-26.84-55.94-30.882-78.727C52.089,328.059,60.482,322.142,60.482,322.142z"/>
		<path style="fill:#8A8A8A;stroke:#263238;stroke-miterlimit:10;" d="M280.093,319.762c0,0,39.113-2.486,62.987,1.095
			c23.874,3.581,25.963,20.591,23.874,32.827c-2.089,12.235-17.01,66.847-25.366,72.815s-71.92,6.565-71.92,6.565L280.093,319.762z"
			/>
		<path style="fill:#BFBFBF;stroke:#263238;stroke-miterlimit:10;" d="M286.082,321.155c0,0-11.562-5.183-21.766,5.021
			c-10.204,10.204-5.63,96.41-4.574,100.984c1.056,4.574,3.87,5.278,8.093,5.63c4.222,0.352,13.019,0.663,20.408-11.3
			c7.389-11.963,11.179-56.918,9.148-78.424C295.631,324.438,286.082,321.155,286.082,321.155z"/>
		<g>
			<g>
				<path style="fill:#FFFFFF;stroke:#263238;stroke-miterlimit:10;" d="M83.114,302.96c0,0-22.952-2.727-26.816,5.909
					c-3.863,8.636-3.636,23.18,1.591,26.816c5.227,3.636,68.63,53.859,78.402,61.812s37.724,35.678,45.223,42.723
					c7.499,7.045,8.408,13.181,8.408,15.68c0,2.5,4.999,1.591,6.136,0.227c1.136-1.364,3.863-12.044,2.045-21.134
					c-1.818-9.09-4.09-16.589-4.545-19.771c-0.454-3.181,0.682-9.772-2.727-13.408c-3.409-3.636-7.727-3.636-11.59-2.272
					s-12.726,2.727-12.726,2.727s-14.771-15.453-23.18-27.043c-8.408-11.59-44.314-59.767-48.859-64.767
					C89.932,305.46,83.114,302.96,83.114,302.96z"/>
				<path style="fill:#92E3A9;stroke:#263238;stroke-miterlimit:10;" d="M198.103,434.993c-1.818-9.09-4.09-16.589-4.545-19.771
					c-0.454-3.181,0.682-9.772-2.727-13.408c-3.409-3.636-7.727-3.636-11.59-2.272c-1.381,0.487-3.402,0.974-5.427,1.399
					c1.266,1.324,7.19,7.781,10.427,15.872c3.636,9.09,10.226,17.498,8.408,22.952c-0.932,2.796-2.997,6.065-4.79,8.592
					c1.743,3.388,2.063,6.086,2.063,7.543c0,2.5,4.999,1.591,6.136,0.227C197.194,454.764,199.921,444.083,198.103,434.993z"/>
			</g>
			<g>
				<path style="fill:#FFFFFF;stroke:#263238;stroke-miterlimit:10;" d="M114.475,290.007c0,0-20.453-4.318-27.952-2.727
					c-7.499,1.591-10.681,12.044-8.181,18.18c2.5,6.136,49.995,83.628,54.086,89.991c4.09,6.363,17.271,32.951,21.589,38.86
					c4.318,5.908,5.454,13.408,5.454,14.999c0,1.591-4.545,5.909-3.182,7.499c1.364,1.591,9.317-0.227,10.908-1.591
					c1.591-1.364,8.181-8.181,9.09-12.726c0.909-4.545,0.454-18.407,1.136-24.543c0.682-6.136,2.5-10.226,0.909-13.408
					c-1.591-3.182-6.818-5.909-10.454-5.909c-3.636,0-8.636-0.227-9.317-0.682c-0.682-0.454-12.272-15.908-12.272-15.908
					s-5.908-23.634-8.408-36.36c-2.5-12.726-15.68-36.587-22.952-42.496"/>
				<path style="fill:#92E3A9;stroke:#263238;stroke-miterlimit:10;" d="M159.471,449.31c0,1.591-4.545,5.909-3.182,7.499
					c1.364,1.591,9.317-0.227,10.908-1.591c1.591-1.364,8.181-8.181,9.09-12.726c0.909-4.545,0.454-18.407,1.136-24.543
					c0.682-6.136,2.5-10.226,0.909-13.408c-1.591-3.182-6.818-5.909-10.454-5.909c-2.188,0-4.864-0.083-6.802-0.247
					c0.867,1.814,1.973,4.125,3.166,6.611c2.727,5.681,5.227,29.315,3.863,36.587C166.743,448.855,159.471,449.31,159.471,449.31z"
					/>
			</g>
		</g>
	</g>
</g>
<g id="Plant">
	<g>
		<g>
			<g>
				<path style="fill:#A6A6A6;stroke:#263238;stroke-linecap:round;stroke-linejoin:round;stroke-miterlimit:10;" d="
					M405.521,203.725c0,0,0,27.902,0.597,30.886c0.597,2.984,2.355,4.211,2.355,4.211l2.271,172.228l4.924,0.298l-2.984-125.41
					l-1.123-47.116c0,0,2.019,0.116,2.168-4.808s2.835-24.769,2.835-24.769l-1.94-0.597c0,0-2.984,24.619-3.581,25.365
					c-0.597,0.746-2.238-1.492-2.537-3.879c-0.298-2.387,0-26.559,0-26.559L405.521,203.725z"/>
				<path style="fill:#263238;stroke:#263238;stroke-linecap:round;stroke-linejoin:round;stroke-miterlimit:10;" d="
					M411.56,238.822c0.211-0.081,0.454-0.174,0.708-0.27c0.598-0.432,1.369-1.562,1.46-4.538c0.149-4.924,2.835-24.769,2.835-24.769
					l-1.94-0.597c0,0-2.984,24.619-3.581,25.365c-0.597,0.746-2.238-1.492-2.537-3.879c-0.298-2.387,0-26.559,0-26.559l-2.984,0.149
					c0,0,0,27.902,0.597,30.886c0.597,2.984,2.355,4.211,2.355,4.211S409.2,239.73,411.56,238.822z"/>
				<path style="fill:#263238;stroke:#263238;stroke-linecap:round;stroke-linejoin:round;stroke-miterlimit:10;" d="
					M410.607,203.252c0,0,5.67-7.908,14.772-11.638c9.102-3.73,25.515-6.117,26.111-6.117c0.597,0-15.368,5.073-20.292,7.311
					c-4.924,2.238-11.34,5.67-13.279,7.759c-1.94,2.089-11.041,16.711-11.041,16.711S407.176,211.309,410.607,203.252z"/>
				<path style="fill:#92E3A9;stroke:#263238;stroke-linecap:round;stroke-linejoin:round;stroke-miterlimit:10;" d="
					M395.055,177.503c0,0-5.67-7.908-14.772-11.638c-9.102-3.73-25.515-6.117-26.112-6.117c-0.597,0,15.368,5.073,20.292,7.311
					c4.924,2.238,11.34,5.67,13.28,7.759c1.94,2.089,11.041,16.711,11.041,16.711S398.487,185.56,395.055,177.503z"/>
				<path style="fill:#92E3A9;stroke:#263238;stroke-linecap:round;stroke-linejoin:round;stroke-miterlimit:10;" d="
					M407.588,199.734c0,0-15.518-22.978-19.845-24.918c-4.327-1.94-7.759-3.73-13.578-2.238c-5.819,1.492-17.905,8.057-20.143,9.251
					c-2.238,1.194-5.222,3.283-6.416,3.879c-1.194,0.597,15.368-9.251,24.62-10.444c9.251-1.194,10.892,3.283,20.889,11.041
					C403.112,194.065,407.588,199.734,407.588,199.734z"/>
				<path style="fill:#92E3A9;stroke:#263238;stroke-linecap:round;stroke-linejoin:round;stroke-miterlimit:10;" d="
					M407.588,199.734c0,0-10.295-16.413-17.308-18.203c-7.013-1.79-15.368,2.089-18.203,3.73
					c-2.835,1.641-7.013,10.892-7.908,14.473c-0.895,3.581-1.492,6.267-1.492,6.267s8.952-14.622,12.534-16.861
					c3.581-2.238,9.102-5.67,10.743-5.968C387.594,182.874,404.007,192.871,407.588,199.734z"/>
				<path style="fill:#92E3A9;stroke:#263238;stroke-linecap:round;stroke-linejoin:round;stroke-miterlimit:10;" d="
					M403.411,191.23c0,0-19.994-13.429-30.438-13.28c-10.445,0.149-23.426,4.029-26.858,4.625
					c-3.432,0.597-6.864,38.422-6.864,38.422s14.772-34.244,19.695-34.095c4.924,0.149,21.038-4.476,26.41-2.686
					C390.728,186.007,403.411,191.23,403.411,191.23z"/>
				<path style="fill:#92E3A9;stroke:#263238;stroke-linecap:round;stroke-linejoin:round;stroke-miterlimit:10;" d="
					M407.29,204.957c0,0-6.416-12.086-11.787-14.772c-5.372-2.686-10.743,2.089-19.248,5.372
					c-8.505,3.283-14.921,5.521-14.921,5.521s14.026,0.746,19.397-1.194c5.371-1.94,13.876-5.67,15.816-5.371
					C398.487,194.811,407.29,204.957,407.29,204.957z"/>
				<path style="fill:#263238;stroke:#263238;stroke-linecap:round;stroke-linejoin:round;stroke-miterlimit:10;" d="
					M411.937,208.947c0,0-5.67-30.588-5.67-41.778c0-11.191,0.149-15.965,0.149-15.965s3.73,14.622,4.178,16.413
					c0.448,1.79,0.448,4.775,0.448,4.775s2.686-15.816,6.117-19.695c3.432-3.879,7.759-5.819,7.759-5.819s-3.879,7.311-4.625,9.4
					c-0.746,2.089,3.133-2.835,7.311-4.029c4.178-1.193,14.473-3.432,14.473-3.432s-13.727,5.521-15.368,7.311
					c-1.641,1.79-5.67,8.356-5.968,9.102c-0.298,0.746-5.222,9.251-6.565,14.175C412.833,184.328,411.937,208.947,411.937,208.947z"
					/>
				<path style="fill:#92E3A9;stroke:#263238;stroke-linecap:round;stroke-linejoin:round;stroke-miterlimit:10;" d="
					M415.369,171.794l11.638-7.759c0,0,14.324-2.238,16.711-1.492c2.387,0.746,5.67,2.984,5.67,2.984s-9.251-0.895-13.28,1.044
					c-4.029,1.94-12.832,5.371-18.054,12.384s-7.162,14.771-7.759,17.308c-0.597,2.537-1.791,7.311-1.791,7.311
					s-2.686-12.981-1.641-18.203C407.909,180.15,415.369,171.794,415.369,171.794z"/>
				<path style="fill:#92E3A9;stroke:#263238;stroke-linecap:round;stroke-linejoin:round;stroke-miterlimit:10;" d="
					M400.747,163.439c0,0,6.864,9.251,7.908,12.235c1.044,2.984,2.686-7.461,9.997-13.876c7.311-6.416,30.886-10.295,30.886-10.295
					s-28.648,13.876-32.975,19.397c-4.327,5.521-8.505,14.921-8.505,15.368s0,5.521,0,5.521L400.747,163.439z"/>
				<path style="fill:#263238;stroke:#263238;stroke-linecap:round;stroke-linejoin:round;stroke-miterlimit:10;" d="
					M405.683,182.849c0,0-9.549-16.413-14.473-22.083c-4.924-5.67-21.188-18.353-21.188-18.353s6.714,8.356,15.368,20.143
					c8.654,11.788,22.381,29.096,22.381,29.096L405.683,182.849z"/>
				<path style="fill:#92E3A9;stroke:#263238;stroke-linecap:round;stroke-linejoin:round;stroke-miterlimit:10;" d="
					M404.328,214.916c0,0-15.518-12.683-23.724-9.549c-8.206,3.133-17.607,13.13-17.607,13.13l-2.089,11.34
					c0,0,11.042-15.965,15.816-18.203c4.775-2.238,11.489-3.133,14.771-2.387c3.283,0.746,12.981,8.952,13.429,9.997
					C405.372,220.287,404.328,214.916,404.328,214.916z"/>
				<path style="fill:#92E3A9;stroke:#263238;stroke-linecap:round;stroke-linejoin:round;stroke-miterlimit:10;" d="
					M400.299,177.315c0,0-2.984-2.686-4.924-13.429c-1.94-10.743,0.298-20.442,0.298-20.442s1.044,6.416,3.432,13.876
					c2.387,7.46,2.387,10.146,5.968,21.188c3.581,11.041,4.029,30.886,3.879,31.334C408.804,210.29,400.299,177.315,400.299,177.315
					z"/>
				<path style="fill:#263238;stroke:#263238;stroke-linecap:round;stroke-linejoin:round;stroke-miterlimit:10;" d="
					M424.769,180.449c0,0,4.625-5.968,10.594-7.759c5.968-1.79,12.086-1.641,12.086-1.641s-8.953-2.536-14.921-1.343
					c-5.968,1.194-10.594,8.206-12.683,14.772c-2.089,6.565-2.089,21.934-2.089,21.934S421.039,186.268,424.769,180.449z"/>
				<path style="fill:#92E3A9;stroke:#263238;stroke-linecap:round;stroke-linejoin:round;stroke-miterlimit:10;" d="
					M402.326,186.232c0,0,0.322-6.283-4.672-13.532c-4.994-7.249-15.143-11.276-22.231-14.337c-7.088-3.061-11.276-4.35-11.276-4.35
					s15.948,12.565,20.136,14.337c4.188,1.772,7.249,4.188,10.149,7.571c2.9,3.383,8.055,15.787,8.055,16.592
					C402.487,193.32,402.326,186.232,402.326,186.232z"/>
				<path style="fill:#92E3A9;stroke:#263238;stroke-linecap:round;stroke-linejoin:round;stroke-miterlimit:10;" d="
					M420.293,195.22c0,0,5.67-7.908,14.772-11.638c9.102-3.73,25.515-6.117,26.111-6.117c0.597,0-15.368,5.073-20.292,7.311
					c-4.924,2.238-11.34,5.67-13.28,7.759c-1.94,2.089-11.041,16.711-11.041,16.711S416.861,203.277,420.293,195.22z"/>
				<path style="fill:#92E3A9;stroke:#263238;stroke-linecap:round;stroke-linejoin:round;stroke-miterlimit:10;" d="
					M407.76,217.452c0,0,15.518-22.978,19.845-24.918c4.327-1.94,7.759-3.73,13.578-2.238c5.819,1.492,17.905,8.057,20.143,9.251
					c2.238,1.194,5.222,3.283,6.416,3.879c1.194,0.597-15.368-9.251-24.62-10.445c-9.251-1.194-10.892,3.283-20.889,11.042
					C412.236,211.782,407.76,217.452,407.76,217.452z"/>
				<path style="fill:#263238;stroke:#263238;stroke-linecap:round;stroke-linejoin:round;stroke-miterlimit:10;" d="
					M407.76,217.452c0,0,10.295-16.413,17.308-18.204c7.013-1.79,15.368,2.089,18.203,3.73c2.835,1.641,7.013,10.892,7.908,14.473
					c0.895,3.581,1.492,6.267,1.492,6.267s-8.952-14.622-12.533-16.861c-3.581-2.238-9.102-5.67-10.743-5.968
					C427.753,200.592,411.341,210.589,407.76,217.452z"/>
				<path style="fill:#92E3A9;stroke:#263238;stroke-linecap:round;stroke-linejoin:round;stroke-miterlimit:10;" d="
					M411.937,208.947c0,0,19.994-13.429,30.438-13.279c10.445,0.149,23.426,4.029,26.858,4.625c3.432,0.597,6.863-0.298,6.863-0.298
					s-14.771,4.476-19.695,4.625c-4.924,0.149-21.038-4.476-26.41-2.686C424.62,203.725,411.937,208.947,411.937,208.947z"/>
				<path style="fill:#92E3A9;stroke:#263238;stroke-linecap:round;stroke-linejoin:round;stroke-miterlimit:10;" d="
					M417.309,202.979c0,0-3.432-10.445,0.149-18.054c3.581-7.61,8.206-18.054,8.206-18.054s1.641,13.279-1.194,22.232
					C421.636,198.055,417.309,202.979,417.309,202.979z"/>
				<path style="fill:#92E3A9;stroke:#263238;stroke-linecap:round;stroke-linejoin:round;stroke-miterlimit:10;" d="
					M408.655,210.589c0,0,0-12.981-8.952-19.099c-8.953-6.118-18.949-8.057-22.53-6.118c-3.581,1.94-14.324,7.908-17.457,11.937
					c-3.133,4.029-5.67,7.162-5.67,7.162s15.816-10.445,20.74-14.025c4.924-3.581,7.311-4.476,9.102-4.029
					c1.79,0.447,12.086,5.222,16.114,8.356C404.029,197.906,408.655,210.589,408.655,210.589z"/>
				<path style="fill:#263238;stroke:#263238;stroke-linecap:round;stroke-linejoin:round;stroke-miterlimit:10;" d="
					M408.953,212.678c-0.149-0.448,0.298-3.879-5.819-4.327c-6.117-0.448-10.743,2.238-11.787,4.476
					c-1.044,2.238,0,8.206,0.149,8.803c0.149,0.597,0.895-7.908,8.057-9.549C406.715,210.439,408.953,212.678,408.953,212.678z"/>
				<path style="fill:#92E3A9;stroke:#263238;stroke-linecap:round;stroke-linejoin:round;stroke-miterlimit:10;" d="
					M406.566,218.198c0,0-1.94-4.178-5.819-8.654c-3.879-4.476-12.235-8.654-16.264-6.118c-4.029,2.536-8.654,13.13-10.146,16.115
					c-1.492,2.984-4.924,12.086-5.222,12.533c-0.298,0.448,8.803-8.057,12.683-13.13c3.879-5.073,6.565-12.086,8.803-12.683
					c2.238-0.597,6.864,3.879,6.864,3.879l11.041,15.965L406.566,218.198z"/>
				<path style="fill:#92E3A9;stroke:#263238;stroke-linecap:round;stroke-linejoin:round;stroke-miterlimit:10;" d="
					M407.163,207.306c0,0-1.94-8.952-8.654-11.34c-6.714-2.387-14.772-3.283-17.905-1.492c-3.133,1.79-16.861,14.473-16.861,14.473
					l-1.79,4.626c0,0,20.143-14.772,24.768-16.264c4.625-1.492,4.625-1.492,9.549,1.492
					C401.194,201.785,407.163,207.306,407.163,207.306z"/>
				<path style="fill:#92E3A9;stroke:#263238;stroke-linecap:round;stroke-linejoin:round;stroke-miterlimit:10;" d="
					M405.969,207.306c0,0-19.546-11.787-23.724-13.279c-4.178-1.492-13.578,2.238-16.264,5.67
					c-2.686,3.432-12.086,22.083-12.533,23.426c-0.448,1.343,6.267-14.473,16.413-19.099c10.146-4.626,16.711-3.73,22.68-3.133
					c5.968,0.597,13.429,10.594,13.429,10.594V207.306z"/>
				<path style="fill:#92E3A9;stroke:#263238;stroke-linecap:round;stroke-linejoin:round;stroke-miterlimit:10;" d="
					M408.058,222.674c0,0,6.416-12.086,11.788-14.772c5.371-2.686,10.743,2.089,19.248,5.372c8.505,3.283,14.921,5.521,14.921,5.521
					s-14.026,0.746-19.397-1.194c-5.371-1.94-13.876-5.67-15.816-5.372S408.058,222.674,408.058,222.674z"/>
				<path style="fill:#92E3A9;stroke:#263238;stroke-linecap:round;stroke-linejoin:round;stroke-miterlimit:10;" d="
					M408.655,210.589c0,0,3.283-9.4,5.222-21.635c1.94-12.235-1.343-34.169-4.476-40.734c-3.133-6.565-12.384-17.308-12.384-17.308
					s16.413,14.324,19.994,27.753c3.581,13.429,4.178,20.591,2.686,27.902C418.204,193.877,408.655,210.589,408.655,210.589z"/>
				<g>
					<path style="fill:#92E3A9;stroke:#263238;stroke-linecap:round;stroke-linejoin:round;stroke-miterlimit:10;" d="
						M404.742,191.709c0,0-1.45-5.477-3.061-6.605c-1.611-1.128-4.833,0.161-4.833,0.161s5.638,4.994,5.638,7.249
						c0,2.255,5.728,15.835,5.728,15.835L404.742,191.709z"/>
					<path style="fill:#92E3A9;stroke:#263238;stroke-linecap:round;stroke-linejoin:round;stroke-miterlimit:10;" d="
						M401.682,185.104c0,0-2.416,1.691-4.302,3.397c-1.886,1.706-10.867,10.598-11.406,11.137
						c-0.539,0.539,4.67-11.317,5.838-13.562c1.168-2.245,3.233-3.862,3.862-3.772C396.301,182.394,401.853,183.683,401.682,185.104
						z"/>
				</g>
			</g>
			<g>
				<path style="fill:#A6A6A6;stroke:#263238;stroke-linecap:round;stroke-linejoin:round;stroke-miterlimit:10;" d="
					M435.752,246.032c0,0,0,24.45-0.523,27.065c-0.523,2.615-2.064,3.69-2.064,3.69l-1.99,155.712l-4.315,0.262l2.615-114.686
					l0.984-41.288c0,0-1.769,0.101-1.9-4.213c-0.131-4.315-2.484-21.705-2.484-21.705l1.7-0.523c0,0,2.615,21.574,3.138,22.228
					c0.523,0.654,1.961-1.307,2.223-3.4c0.262-2.092,0-23.273,0-23.273L435.752,246.032z"/>
				<path style="fill:#263238;stroke:#263238;stroke-linecap:round;stroke-linejoin:round;stroke-miterlimit:10;" d="
					M430.46,276.788c-0.185-0.071-0.398-0.152-0.621-0.237c-0.524-0.379-1.2-1.369-1.279-3.977
					c-0.131-4.315-2.484-21.705-2.484-21.705l1.7-0.523c0,0,2.615,21.574,3.138,22.228c0.523,0.654,1.961-1.307,2.223-3.4
					c0.262-2.092,0-23.273,0-23.273l2.615,0.131c0,0,0,24.45-0.523,27.065c-0.523,2.615-2.064,3.69-2.064,3.69
					S432.529,277.583,430.46,276.788z"/>
				<path style="fill:#263238;stroke:#263238;stroke-linecap:round;stroke-linejoin:round;stroke-miterlimit:10;" d="
					M431.295,245.617c0,0-4.969-6.93-12.944-10.198c-7.976-3.269-22.358-5.361-22.881-5.361c-0.523,0,13.467,4.445,17.782,6.407
					s9.937,4.969,11.637,6.799c1.7,1.83,9.676,14.644,9.676,14.644S434.303,252.678,431.295,245.617z"/>
				<path style="fill:#92E3A9;stroke:#263238;stroke-linecap:round;stroke-linejoin:round;stroke-miterlimit:10;" d="
					M444.924,223.053c0,0,4.969-6.93,12.944-10.199c7.976-3.269,22.358-5.361,22.881-5.361c0.523,0-13.467,4.446-17.782,6.407
					c-4.315,1.961-9.937,4.968-11.637,6.799c-1.7,1.831-9.676,14.644-9.676,14.644S441.917,230.114,444.924,223.053z"/>
				<path style="fill:#92E3A9;stroke:#263238;stroke-linecap:round;stroke-linejoin:round;stroke-miterlimit:10;" d="
					M433.941,242.535c0,0,13.598-20.136,17.39-21.835c3.792-1.7,6.799-3.269,11.898-1.961c5.099,1.307,15.69,7.061,17.651,8.106
					c1.961,1.046,4.576,2.876,5.622,3.4c1.046,0.523-13.467-8.107-21.574-9.153c-8.106-1.046-9.545,2.877-18.305,9.676
					C437.863,237.566,433.941,242.535,433.941,242.535z"/>
				<path style="fill:#92E3A9;stroke:#263238;stroke-linecap:round;stroke-linejoin:round;stroke-miterlimit:10;" d="
					M433.941,242.535c0,0,9.022-14.383,15.167-15.952c6.145-1.569,13.467,1.83,15.952,3.269c2.484,1.438,6.145,9.545,6.93,12.683
					c0.784,3.138,1.307,5.491,1.307,5.491s-7.845-12.813-10.983-14.775s-7.976-4.969-9.414-5.23
					C451.461,227.76,437.079,236.52,433.941,242.535z"/>
				<path style="fill:#92E3A9;stroke:#263238;stroke-linecap:round;stroke-linejoin:round;stroke-miterlimit:10;" d="
					M437.602,235.082c0,0,17.521-11.768,26.673-11.637c9.152,0.131,20.528,3.53,23.535,4.053c3.007,0.523,6.014-0.261,6.014-0.261
					s-12.944,3.923-17.259,4.053c-4.315,0.131-18.436-3.922-23.143-2.353C448.716,230.506,437.602,235.082,437.602,235.082z"/>
				<path style="fill:#92E3A9;stroke:#263238;stroke-linecap:round;stroke-linejoin:round;stroke-miterlimit:10;" d="
					M434.202,247.111c0,0,5.622-10.591,10.329-12.944c4.707-2.354,9.414,1.831,16.867,4.707c7.453,2.877,13.075,4.838,13.075,4.838
					s-12.291,0.654-16.998-1.046c-4.707-1.7-12.16-4.968-13.859-4.707C441.917,238.22,434.202,247.111,434.202,247.111z"/>
				<path style="fill:#263238;stroke:#263238;stroke-linecap:round;stroke-linejoin:round;stroke-miterlimit:10;" d="
					M430.13,250.608c0,0,4.969-26.804,4.969-36.61c0-9.806-0.131-13.99-0.131-13.99s-3.269,12.814-3.661,14.382
					c-0.392,1.569-0.392,4.184-0.392,4.184s-2.353-13.859-5.361-17.259c-3.007-3.4-6.799-5.099-6.799-5.099s3.4,6.407,4.053,8.237
					c0.654,1.83-2.746-2.484-6.407-3.53c-3.661-1.046-12.683-3.007-12.683-3.007s12.029,4.838,13.467,6.407
					c1.438,1.569,4.969,7.322,5.23,7.976c0.262,0.654,4.576,8.107,5.753,12.421C429.345,229.034,430.13,250.608,430.13,250.608z"/>
				<path style="fill:#92E3A9;stroke:#263238;stroke-linecap:round;stroke-linejoin:round;stroke-miterlimit:10;" d="
					M427.123,218.051l-10.199-6.799c0,0-12.552-1.961-14.644-1.307c-2.092,0.654-4.969,2.615-4.969,2.615s8.107-0.785,11.637,0.915
					c3.53,1.7,11.244,4.707,15.821,10.852c4.576,6.145,6.276,12.944,6.799,15.167c0.523,2.223,1.569,6.407,1.569,6.407
					s2.354-11.375,1.438-15.952C433.66,225.373,427.123,218.051,427.123,218.051z"/>
				<path style="fill:#92E3A9;stroke:#263238;stroke-linecap:round;stroke-linejoin:round;stroke-miterlimit:10;" d="
					M439.936,210.729c0,0-6.015,8.106-6.93,10.722c-0.915,2.615-2.353-6.538-8.76-12.16c-6.407-5.622-27.065-9.022-27.065-9.022
					s25.104,12.16,28.896,16.998c3.792,4.838,7.453,13.075,7.453,13.467c0,0.392,0,4.838,0,4.838L439.936,210.729z"/>
				<path style="fill:#263238;stroke:#263238;stroke-linecap:round;stroke-linejoin:round;stroke-miterlimit:10;" d="
					M435.61,227.738c0,0,8.368-14.382,12.683-19.351c4.315-4.969,18.567-16.082,18.567-16.082s-5.884,7.322-13.467,17.651
					c-7.584,10.329-19.613,25.496-19.613,25.496L435.61,227.738z"/>
				<path style="fill:#92E3A9;stroke:#263238;stroke-linecap:round;stroke-linejoin:round;stroke-miterlimit:10;" d="
					M436.798,255.838c0,0,13.598-11.114,20.789-8.368c7.191,2.746,15.428,11.506,15.428,11.506l1.831,9.937
					c0,0-9.676-13.99-13.86-15.951c-4.184-1.961-10.068-2.746-12.944-2.092c-2.877,0.654-11.375,7.845-11.768,8.76
					C435.883,260.545,436.798,255.838,436.798,255.838z"/>
				<path style="fill:#92E3A9;stroke:#263238;stroke-linecap:round;stroke-linejoin:round;stroke-miterlimit:10;" d="
					M440.328,222.889c0,0,2.615-2.354,4.315-11.768c1.7-9.414-0.262-17.913-0.262-17.913s-0.915,5.622-3.007,12.16
					c-2.092,6.537-2.092,8.891-5.23,18.567c-3.138,9.675-3.53,27.065-3.399,27.457C432.876,251.785,440.328,222.889,440.328,222.889
					z"/>
				<path style="fill:#263238;stroke:#263238;stroke-linecap:round;stroke-linejoin:round;stroke-miterlimit:10;" d="
					M418.885,225.635c0,0-4.053-5.23-9.283-6.799c-5.23-1.569-10.591-1.438-10.591-1.438s7.845-2.223,13.075-1.177
					c5.23,1.046,9.283,7.191,11.114,12.944c1.831,5.753,1.831,19.22,1.831,19.22S422.154,230.734,418.885,225.635z"/>
				<path style="fill:#92E3A9;stroke:#263238;stroke-linecap:round;stroke-linejoin:round;stroke-miterlimit:10;" d="
					M438.552,230.703c0,0-0.282-5.505,4.094-11.858c4.376-6.352,13.269-9.881,19.481-12.564c6.211-2.682,9.882-3.811,9.882-3.811
					s-13.975,11.011-17.646,12.564c-3.67,1.553-6.352,3.67-8.893,6.635c-2.541,2.965-7.058,13.834-7.058,14.54
					C438.411,236.914,438.552,230.703,438.552,230.703z"/>
				<path style="fill:#92E3A9;stroke:#263238;stroke-linecap:round;stroke-linejoin:round;stroke-miterlimit:10;" d="
					M422.808,238.579c0,0-4.968-6.93-12.944-10.199c-7.976-3.269-22.358-5.361-22.881-5.361c-0.523,0,13.467,4.446,17.782,6.407
					c4.315,1.961,9.937,4.969,11.637,6.799c1.7,1.831,9.675,14.644,9.675,14.644S425.815,245.64,422.808,238.579z"/>
				<path style="fill:#92E3A9;stroke:#263238;stroke-linecap:round;stroke-linejoin:round;stroke-miterlimit:10;" d="
					M433.791,258.061c0,0-13.598-20.135-17.39-21.835c-3.792-1.7-6.799-3.269-11.898-1.961c-5.099,1.307-15.69,7.061-17.651,8.107
					c-1.961,1.046-4.576,2.876-5.622,3.4c-1.046,0.523,13.467-8.107,21.574-9.152c8.107-1.046,9.545,2.876,18.305,9.675
					C429.868,253.092,433.791,258.061,433.791,258.061z"/>
				<path style="fill:#263238;stroke:#263238;stroke-linecap:round;stroke-linejoin:round;stroke-miterlimit:10;" d="
					M433.791,258.061c0,0-9.022-14.382-15.167-15.951c-6.145-1.569-13.467,1.83-15.952,3.269c-2.484,1.438-6.145,9.545-6.93,12.683
					c-0.785,3.138-1.307,5.492-1.307,5.492s7.845-12.814,10.983-14.775c3.138-1.961,7.976-4.969,9.414-5.23
					C416.27,243.286,430.653,252.046,433.791,258.061z"/>
				<path style="fill:#92E3A9;stroke:#263238;stroke-linecap:round;stroke-linejoin:round;stroke-miterlimit:10;" d="
					M430.13,250.608c0,0-17.521-11.767-26.673-11.637c-9.152,0.131-20.528,3.53-23.535,4.053c-3.007,0.523-6.015-0.261-6.015-0.261
					s12.944,3.922,17.259,4.053c4.315,0.131,18.436-3.922,23.143-2.354C419.016,246.032,430.13,250.608,430.13,250.608z"/>
				<path style="fill:#92E3A9;stroke:#263238;stroke-linecap:round;stroke-linejoin:round;stroke-miterlimit:10;" d="
					M425.423,245.378c0,0,3.007-9.153-0.131-15.821c-3.138-6.668-7.191-15.821-7.191-15.821s-1.438,11.637,1.046,19.482
					C421.631,241.063,425.423,245.378,425.423,245.378z"/>
				<path style="fill:#92E3A9;stroke:#263238;stroke-linecap:round;stroke-linejoin:round;stroke-miterlimit:10;" d="
					M433.006,252.046c0,0,0-11.375,7.845-16.736c7.845-5.361,16.605-7.061,19.743-5.361c3.138,1.7,12.552,6.93,15.298,10.46
					c2.746,3.53,4.969,6.276,4.969,6.276s-13.86-9.153-18.174-12.29c-4.315-3.138-6.407-3.923-7.976-3.53
					c-1.569,0.392-10.591,4.576-14.121,7.322C437.06,240.933,433.006,252.046,433.006,252.046z"/>
				<path style="fill:#263238;stroke:#263238;stroke-linecap:round;stroke-linejoin:round;stroke-miterlimit:10;" d="
					M432.745,253.877c0.131-0.392-0.262-3.4,5.099-3.792c5.361-0.392,9.414,1.961,10.329,3.923c0.915,1.961,0,7.191-0.131,7.714
					c-0.131,0.523-0.785-6.93-7.061-8.368C434.706,251.916,432.745,253.877,432.745,253.877z"/>
				<path style="fill:#92E3A9;stroke:#263238;stroke-linecap:round;stroke-linejoin:round;stroke-miterlimit:10;" d="
					M434.837,258.715c0,0,1.7-3.661,5.099-7.583s10.721-7.583,14.252-5.361c3.53,2.223,7.584,11.506,8.891,14.121
					c1.308,2.615,4.315,10.591,4.576,10.983c0.261,0.392-7.714-7.06-11.114-11.506c-3.4-4.445-5.753-10.591-7.714-11.114
					c-1.961-0.523-6.014,3.399-6.014,3.399l-9.676,13.99L434.837,258.715z"/>
				<path style="fill:#92E3A9;stroke:#263238;stroke-linecap:round;stroke-linejoin:round;stroke-miterlimit:10;" d="
					M434.314,249.17c0,0,1.7-7.845,7.583-9.937c5.884-2.092,12.944-2.876,15.69-1.307c2.746,1.569,14.775,12.683,14.775,12.683
					l1.569,4.053c0,0-17.651-12.944-21.704-14.252c-4.053-1.308-4.053-1.308-8.368,1.307
					C439.544,244.332,434.314,249.17,434.314,249.17z"/>
				<path style="fill:#92E3A9;stroke:#263238;stroke-linecap:round;stroke-linejoin:round;stroke-miterlimit:10;" d="M435.36,249.17
					c0,0,17.128-10.329,20.789-11.637c3.661-1.308,11.898,1.961,14.252,4.968c2.354,3.007,10.591,19.351,10.983,20.528
					c0.392,1.177-5.491-12.683-14.382-16.736c-8.891-4.053-14.644-3.269-19.874-2.746c-5.23,0.523-11.768,9.283-11.768,9.283V249.17
					z"/>
				<path style="fill:#92E3A9;stroke:#263238;stroke-linecap:round;stroke-linejoin:round;stroke-miterlimit:10;" d="
					M433.529,262.637c0,0-5.622-10.591-10.329-12.944c-4.707-2.354-9.414,1.83-16.867,4.707c-7.453,2.877-13.075,4.838-13.075,4.838
					s12.291,0.654,16.998-1.046c4.707-1.7,12.16-4.968,13.859-4.707C425.815,253.746,433.529,262.637,433.529,262.637z"/>
				<path style="fill:#92E3A9;stroke:#263238;stroke-linecap:round;stroke-linejoin:round;stroke-miterlimit:10;" d="
					M433.006,252.046c0,0-2.876-8.237-4.576-18.959c-1.7-10.722,1.177-29.942,3.922-35.695c2.746-5.753,10.852-15.167,10.852-15.167
					s-14.383,12.552-17.52,24.32c-3.138,11.768-3.661,18.044-2.354,24.45C424.638,237.402,433.006,252.046,433.006,252.046z"/>
				<g>
					<path style="fill:#92E3A9;stroke:#263238;stroke-linecap:round;stroke-linejoin:round;stroke-miterlimit:10;" d="
						M436.435,235.502c0,0,1.271-4.8,2.682-5.788c1.412-0.988,4.235,0.141,4.235,0.141s-4.941,4.376-4.941,6.352
						c0,1.976-5.019,13.876-5.019,13.876L436.435,235.502z"/>
					<path style="fill:#92E3A9;stroke:#263238;stroke-linecap:round;stroke-linejoin:round;stroke-miterlimit:10;" d="
						M439.117,229.714c0,0,2.117,1.481,3.77,2.977c1.653,1.495,9.523,9.287,9.995,9.759c0.472,0.472-4.092-9.916-5.116-11.884
						s-2.833-3.384-3.384-3.305C443.831,227.339,438.967,228.469,439.117,229.714z"/>
				</g>
			</g>
			<g>
				<path style="fill:#263238;stroke:#263238;stroke-linecap:round;stroke-linejoin:round;stroke-miterlimit:10;" d="
					M435.113,298.948c0,0,12.043-4.394,19.366-6.835c7.323-2.441,12.856,3.58,12.856,3.58s-9.113,1.302-12.368,1.465
					c-3.255,0.163-8.137,0.326-11.066,1.465c-2.929,1.139,5.859,0.977,8.788,3.906c2.929,2.929,9.113,10.415,10.09,12.694
					c0.976,2.278-9.927-10.741-17.576-12.694c-7.649-1.953-13.67,2.116-13.67,2.116L435.113,298.948z"/>
				<path style="fill:#A6A6A6;stroke:#263238;stroke-linecap:round;stroke-linejoin:round;stroke-miterlimit:10;" d="
					M423.233,316.85c0,0,1.139,5.37,0,20.343c-1.139,14.972-2.278,75.011-2.278,75.011l3.906,0.488c0,0,1.953-80.707,1.953-83.474
					c0-2.767,0.163-12.694,0.163-12.694L423.233,316.85z"/>
				<path style="fill:#92E3A9;stroke:#263238;stroke-linecap:round;stroke-linejoin:round;stroke-miterlimit:10;" d="
					M426.325,301.064c-0.303-0.662-4.882-10.415-7.323-12.043c-2.441-1.628-8.625-3.906-11.392-3.906
					c-2.767,0-9.927,0.814-9.927,0.814s12.694,2.929,16.274,5.696c3.58,2.767,9.764,9.113,9.927,10.253
					c0.163,1.139,1.465,3.743,1.465,3.743S428.115,304.97,426.325,301.064z"/>
				<path style="fill:#263238;stroke:#263238;stroke-linecap:round;stroke-linejoin:round;stroke-miterlimit:10;" d="
					M422.745,307.411c0,0-9.764-1.139-13.345,1.465c-3.58,2.604-9.927,9.927-9.927,13.833s0.326,12.856,0.326,12.043
					c0-0.814,1.79-13.507,5.859-17.413c4.068-3.906,5.859-6.184,11.229-6.835c5.37-0.651,5.37-0.651,5.37-0.651l5.533,2.929
					L422.745,307.411z"/>
				<path style="fill:#92E3A9;stroke:#263238;stroke-linecap:round;stroke-linejoin:round;stroke-miterlimit:10;" d="
					M430.22,305.045c0,0,1.953-1.627,8.951-2.604c6.998-0.976,8.951-1.627,13.345-0.814c4.394,0.814,9.114,2.604,9.114,2.604
					s-13.996-0.326-15.298-0.326c-1.302,0,8.463,6.347,10.253,8.3c1.79,1.953,3.418,6.022,3.418,6.022s-13.996-10.09-16.437-11.229
					c-2.441-1.139-3.417-1.79-3.417-1.79s-3.906-0.651-5.533-0.163c-1.627,0.488-2.929,0.976-3.417,1.139
					c-0.488,0.163-2.278,0.651-2.278,0.651L430.22,305.045z"/>
				<path style="fill:#92E3A9;stroke:#263238;stroke-linecap:round;stroke-linejoin:round;stroke-miterlimit:10;" d="
					M428.115,299.762c0,0,0.814-9.439,5.371-13.67c4.557-4.231,20.18-12.368,20.18-12.368l9.602-4.72c0,0-2.767,6.184-8.625,8.625
					c-5.859,2.441-7.811,0.651-10.578,3.58c-2.767,2.929-7.161,8.951-7.974,11.717c-0.814,2.767-6.184,10.415-6.51,12.206
					C429.255,306.922,428.115,299.762,428.115,299.762z"/>
				<path style="fill:#92E3A9;stroke:#263238;stroke-linecap:round;stroke-linejoin:round;stroke-miterlimit:10;" d="
					M428.766,302.366c0,0,0.977-14.647-0.651-18.39c-1.627-3.743-6.672-12.368-7.811-14.321c-1.139-1.953-2.604-3.58-2.604-3.58
					s4.068,12.857,5.208,19.529c1.139,6.672,1.302,8.788,1.627,11.555c0.326,2.767,0.651,5.208,0.651,5.208H428.766z"/>
				<path style="fill:#92E3A9;stroke:#263238;stroke-linecap:round;stroke-linejoin:round;stroke-miterlimit:10;" d="
					M426.651,307.736c0,0,2.115-5.859,5.37-11.066c3.255-5.208,7.974-6.347,8.788-6.347c0.814,0,3.58,0,3.58,0
					s-6.347,3.092-7.161,6.021c-0.814,2.929-2.604,8.951-3.906,10.253c-1.302,1.302-4.557,8.137-5.37,9.765
					c-0.814,1.627-2.929,2.441-2.929,2.441S422.094,314.409,426.651,307.736z"/>
				<path style="fill:#92E3A9;stroke:#263238;stroke-linecap:round;stroke-linejoin:round;stroke-miterlimit:10;" d="
					M429.255,308.224l-4.231,10.578l1.302,1.139c0,0,1.953-2.278,3.418-4.394c1.465-2.116,2.604-3.743,2.604-4.719
					C432.347,309.852,429.255,308.224,429.255,308.224z"/>
				<path style="fill:#92E3A9;stroke:#263238;stroke-linecap:round;stroke-linejoin:round;stroke-miterlimit:10;" d="
					M427.567,317.148c0,0-6.184-13.507-8.137-16.437c-1.953-2.929-4.069-5.37-8.3-6.51c-4.231-1.139-11.392-3.255-17.739-2.116
					c-6.347,1.139-17.25,2.604-17.25,2.604s7.812,3.58,17.25,2.929c9.439-0.651,17.739-0.163,17.739-0.163s1.953,0.814,3.418,5.533
					c1.465,4.719,4.557,8.951,6.51,10.741c1.953,1.79,5.207,6.184,5.207,6.184L427.567,317.148z"/>
				<path style="fill:#92E3A9;stroke:#263238;stroke-linecap:round;stroke-linejoin:round;stroke-miterlimit:10;" d="
					M428.766,302.366c0,0-6.835-2.767-8.462-0.326c-1.627,2.441-4.231,15.135-4.231,15.135s-1.302,6.672-1.627,7.323
					c-0.325,0.651,8.625-6.184,10.741-12.043C427.302,306.597,428.766,302.366,428.766,302.366z"/>
				<path style="fill:#92E3A9;stroke:#263238;stroke-linecap:round;stroke-linejoin:round;stroke-miterlimit:10;" d="
					M435.276,306.597c0,0-6.021,0.163-6.021,1.627c0,1.465,0.814,4.069,0.488,7.323c-0.326,3.255-0.651,6.184-0.651,6.184
					s6.51-2.767,6.835-6.51C436.253,311.479,435.276,306.597,435.276,306.597z"/>
				<path style="fill:#263238;stroke:#263238;stroke-linecap:round;stroke-linejoin:round;stroke-miterlimit:10;" d="
					M438.176,306.585c0,0,6.184,4.231,8.3,8.137c2.116,3.906,3.743,12.043,3.743,12.043s-4.231-8.137-7.486-12.531
					c-3.255-4.394-8.137-7.974-9.113-6.835C432.643,308.538,435.897,305.608,438.176,306.585z"/>
			</g>
		</g>
		<g>
			<polygon style="fill:#263238;stroke:#263238;stroke-linecap:round;stroke-linejoin:round;stroke-miterlimit:10;" points="
				435.586,455.157 402.042,455.157 394.854,409.321 442.773,409.321 			"/>
			<polygon style="fill:#263238;stroke:#263238;stroke-linecap:round;stroke-linejoin:round;stroke-miterlimit:10;" points="
				439.285,457.588 397.3,457.588 395.201,453.421 441.384,453.421 			"/>
		</g>
	</g>
</g>
<g id="Floor">
	<g>
		<line style="fill:none;stroke:#263238;stroke-miterlimit:10;" x1="37.929" y1="457.588" x2="14.426" y2="457.588"/>
		<line style="fill:none;stroke:#263238;stroke-miterlimit:10;" x1="474.928" y1="457.588" x2="47.541" y2="457.588"/>
	</g>
</g>
</svg>
