<?xml version="1.0" encoding="utf-8"?>
<!-- Generator: Adobe Illustrator 27.5.0, SVG Export Plug-In . SVG Version: 6.00 Build 0)  -->
<svg version="1.1" xmlns="http://www.w3.org/2000/svg" xmlns:xlink="http://www.w3.org/1999/xlink" x="0px" y="0px"
	 viewBox="0 0 500 500" style="enable-background:new 0 0 500 500;" xml:space="preserve">
<g id="Background_Simple">
	<g>
		<path style="fill:#15C0B6;" d="M428.07,243.538c-3.649-29.38-12.469-57.498-22.961-77.368
			c-25.219-47.761-94.754-76.52-146.967-64.828c-44.495,9.964-65.594,55.11-105.648,72.764c-36.849,16.241-70.034,29.064-87.2,67.05
			c-36.265,80.253,54.53,160.088,131.785,148.747c24.381-3.579,46.107-15.026,71.183-11.793
			c50.866,6.558,67.852,15.905,112.621-6.112C424.994,350.304,434.46,294.984,428.07,243.538z"/>
		<path style="opacity:0.8;fill:#FFFFFF;" d="M428.07,243.538c-3.649-29.38-12.469-57.498-22.961-77.368
			c-25.219-47.761-94.754-76.52-146.967-64.828c-44.495,9.964-65.594,55.11-105.648,72.764c-36.849,16.241-70.034,29.064-87.2,67.05
			c-36.265,80.253,54.53,160.088,131.785,148.747c24.381-3.579,46.107-15.026,71.183-11.793
			c50.866,6.558,67.852,15.905,112.621-6.112C424.994,350.304,434.46,294.984,428.07,243.538z"/>
	</g>
</g>
<g id="Clouds_1_">
	<path style="fill:#FFFFFF;" d="M298.398,162.061c-5.893-3.214-8.572-0.536-10.715-3.214c-2.143-2.679,5.893-9.644-10.179-16.608
		c0,0-1.071-15-23.037-15.536c-21.965-0.536-16.072,15.001-21.965,18.751c-5.893,3.75-7.5-2.143-13.393,1.607
		c-5.893,3.75-3.215,11.25-8.036,12.322c-4.822,1.071-11.251-4.822-17.144-1.072c-5.893,3.75-5.893,6.965-8.572,6.965
		c-2.678,0-8.036-2.143-11.25,0c-3.214,2.143-6.965,4.822-6.965,4.822h135.541C302.684,170.098,304.291,165.276,298.398,162.061z"/>
	<path style="fill:#FFFFFF;" d="M418.385,235.656c-3.338-1.82-4.855-0.303-6.069-1.82c-1.214-1.517,3.338-5.462-5.765-9.407
		c0,0-0.607-8.496-13.048-8.8c-12.441-0.303-9.103,8.497-12.441,10.62c-3.338,2.124-4.248-1.214-7.586,0.91
		c-3.338,2.124-1.821,6.372-4.551,6.979c-2.731,0.607-6.372-2.731-9.71-0.607c-3.338,2.124-3.338,3.945-4.855,3.945
		c-1.517,0-4.552-1.214-6.372,0c-1.821,1.214-3.945,2.731-3.945,2.731h76.77C420.812,240.208,421.722,237.477,418.385,235.656z"/>
</g>
<g id="Trees">
	<g>
		<path style="fill:#15C0B6;" d="M306.48,374.035h51.125c-0.982-6.255-4.998-5.154-5.531-14.843
			c-0.268-4.88,4.248-10.919,3.857-17.33c-0.322-5.28-5.528-10.694-5.933-16.734c-0.365-5.451,4.079-11.501,3.647-17.376
			c-0.408-5.555-5.685-10.883-6.152-16.656c-0.456-5.632,3.896-11.743,3.383-17.435c-0.513-5.698-5.886-10.927-6.455-16.539
			c-0.585-5.77,3.625-11.982,2.981-17.505c-0.684-5.862-6.215-10.925-6.965-16.325c-0.835-6.013,3.082-12.437,2.166-17.629
			c-1.123-6.361-7.044-10.963-8.289-15.654c-2.321-8.743-2.031-17.17-4.771-17.718c-2.926-0.585-3.593,7.675-5.811,16.909
			c-1.114,4.637-6.904,9.338-7.855,15.702c-0.77,5.154,3.322,11.421,2.652,17.41c-0.6,5.362-5.991,10.518-6.516,16.348
			c-0.494,5.483,3.882,11.53,3.452,17.263c-0.418,5.572-5.65,10.887-6.011,16.547c-0.361,5.647,4.15,11.59,3.842,17.179
			c-0.316,5.727-5.451,11.136-5.715,16.648c-0.278,5.828,4.321,11.708,4.097,17.117c-0.248,5.991-5.313,11.481-5.5,16.719
			c-0.226,6.358,4.443,12.227,4.299,17.067c-0.313,10.508-5.123,8.331-5.296,16.787L306.48,374.035z"/>
		<path style="opacity:0.4;fill:#FFFFFF;" d="M306.48,374.035h51.125c-0.982-6.255-4.998-5.154-5.531-14.843
			c-0.268-4.88,4.248-10.919,3.857-17.33c-0.322-5.28-5.528-10.694-5.933-16.734c-0.365-5.451,4.079-11.501,3.647-17.376
			c-0.408-5.555-5.685-10.883-6.152-16.656c-0.456-5.632,3.896-11.743,3.383-17.435c-0.513-5.698-5.886-10.927-6.455-16.539
			c-0.585-5.77,3.625-11.982,2.981-17.505c-0.684-5.862-6.215-10.925-6.965-16.325c-0.835-6.013,3.082-12.437,2.166-17.629
			c-1.123-6.361-7.044-10.963-8.289-15.654c-2.321-8.743-2.031-17.17-4.771-17.718c-2.926-0.585-3.593,7.675-5.811,16.909
			c-1.114,4.637-6.904,9.338-7.855,15.702c-0.77,5.154,3.322,11.421,2.652,17.41c-0.6,5.362-5.991,10.518-6.516,16.348
			c-0.494,5.483,3.882,11.53,3.452,17.263c-0.418,5.572-5.65,10.887-6.011,16.547c-0.361,5.647,4.15,11.59,3.842,17.179
			c-0.316,5.727-5.451,11.136-5.715,16.648c-0.278,5.828,4.321,11.708,4.097,17.117c-0.248,5.991-5.313,11.481-5.5,16.719
			c-0.226,6.358,4.443,12.227,4.299,17.067c-0.313,10.508-5.123,8.331-5.296,16.787L306.48,374.035z"/>
		
			<line style="fill:none;stroke:#263238;stroke-linecap:round;stroke-linejoin:round;stroke-miterlimit:10;" x1="328.427" y1="189.092" x2="328.427" y2="371.674"/>
		<polyline style="fill:none;stroke:#263238;stroke-linecap:round;stroke-linejoin:round;stroke-miterlimit:10;" points="
			336.41,208.232 328.086,215.421 321.276,206.341 		"/>
		<polyline style="fill:none;stroke:#263238;stroke-linecap:round;stroke-linejoin:round;stroke-miterlimit:10;" points="
			336.41,240.012 328.086,247.201 321.276,238.121 		"/>
		<polyline style="fill:none;stroke:#263238;stroke-linecap:round;stroke-linejoin:round;stroke-miterlimit:10;" points="
			336.41,269.901 328.086,277.089 321.276,268.009 		"/>
		<polyline style="fill:none;stroke:#263238;stroke-linecap:round;stroke-linejoin:round;stroke-miterlimit:10;" points="
			336.41,305.464 328.086,312.652 321.276,303.573 		"/>
		<polyline style="fill:none;stroke:#263238;stroke-linecap:round;stroke-linejoin:round;stroke-miterlimit:10;" points="
			336.41,341.406 328.086,348.594 321.276,339.514 		"/>
	</g>
	<g>
		<path style="fill:#15C0B6;" d="M274.288,374.035h34.617c-0.665-4.235-3.384-3.49-3.745-10.051
			c-0.182-3.304,2.876-7.393,2.612-11.734c-0.218-3.576-3.743-7.241-4.017-11.331c-0.247-3.691,2.762-7.787,2.47-11.766
			c-0.276-3.761-3.849-7.369-4.166-11.278c-0.309-3.813,2.638-7.952,2.291-11.806c-0.347-3.858-3.985-7.399-4.371-11.199
			c-0.396-3.907,2.455-8.113,2.018-11.853c-0.463-3.969-4.208-7.398-4.716-11.054c-0.565-4.072,2.087-8.421,1.467-11.937
			c-0.761-4.307-4.769-7.423-5.613-10.6c-1.572-5.92-1.375-11.626-3.231-11.997c-1.982-0.396-2.433,5.197-3.935,11.449
			c-0.754,3.14-4.674,6.323-5.319,10.632c-0.522,3.49,2.25,7.733,1.796,11.788c-0.407,3.631-4.057,7.122-4.412,11.069
			c-0.334,3.713,2.629,7.807,2.337,11.689c-0.283,3.773-3.825,7.372-4.07,11.204c-0.244,3.824,2.81,7.848,2.602,11.632
			c-0.214,3.878-3.691,7.541-3.87,11.273c-0.188,3.946,2.926,7.928,2.774,11.59c-0.168,4.057-3.598,7.774-3.724,11.321
			c-0.153,4.305,3.008,8.279,2.911,11.556c-0.212,7.115-3.469,5.641-3.586,11.367L274.288,374.035z"/>
		<path style="opacity:0.4;fill:#FFFFFF;" d="M274.288,374.035h34.617c-0.665-4.235-3.384-3.49-3.745-10.051
			c-0.182-3.304,2.876-7.393,2.612-11.734c-0.218-3.576-3.743-7.241-4.017-11.331c-0.247-3.691,2.762-7.787,2.47-11.766
			c-0.276-3.761-3.849-7.369-4.166-11.278c-0.309-3.813,2.638-7.952,2.291-11.806c-0.347-3.858-3.985-7.399-4.371-11.199
			c-0.396-3.907,2.455-8.113,2.018-11.853c-0.463-3.969-4.208-7.398-4.716-11.054c-0.565-4.072,2.087-8.421,1.467-11.937
			c-0.761-4.307-4.769-7.423-5.613-10.6c-1.572-5.92-1.375-11.626-3.231-11.997c-1.982-0.396-2.433,5.197-3.935,11.449
			c-0.754,3.14-4.674,6.323-5.319,10.632c-0.522,3.49,2.25,7.733,1.796,11.788c-0.407,3.631-4.057,7.122-4.412,11.069
			c-0.334,3.713,2.629,7.807,2.337,11.689c-0.283,3.773-3.825,7.372-4.07,11.204c-0.244,3.824,2.81,7.848,2.602,11.632
			c-0.214,3.878-3.691,7.541-3.87,11.273c-0.188,3.946,2.926,7.928,2.774,11.59c-0.168,4.057-3.598,7.774-3.724,11.321
			c-0.153,4.305,3.008,8.279,2.911,11.556c-0.212,7.115-3.469,5.641-3.586,11.367L274.288,374.035z"/>
		
			<line style="fill:none;stroke:#263238;stroke-linecap:round;stroke-linejoin:round;stroke-miterlimit:10;" x1="289.149" y1="248.807" x2="289.149" y2="372.436"/>
		<polyline style="fill:none;stroke:#263238;stroke-linecap:round;stroke-linejoin:round;stroke-miterlimit:10;" points="
			294.555,261.767 288.919,266.635 284.307,260.487 		"/>
		<polyline style="fill:none;stroke:#263238;stroke-linecap:round;stroke-linejoin:round;stroke-miterlimit:10;" points="
			294.555,283.286 288.919,288.154 284.307,282.005 		"/>
		<polyline style="fill:none;stroke:#263238;stroke-linecap:round;stroke-linejoin:round;stroke-miterlimit:10;" points="
			294.555,303.524 288.919,308.391 284.307,302.243 		"/>
		<polyline style="fill:none;stroke:#263238;stroke-linecap:round;stroke-linejoin:round;stroke-miterlimit:10;" points="
			294.555,327.605 288.919,332.472 284.307,326.324 		"/>
		<polyline style="fill:none;stroke:#263238;stroke-linecap:round;stroke-linejoin:round;stroke-miterlimit:10;" points="
			294.555,351.941 288.919,356.809 284.307,350.66 		"/>
	</g>
</g>
<g id="Plants">
	<g>
		<path style="fill:#15C0B6;" d="M149.242,323.753c-2.565,3.801-6.135,8.745-8.041,12.712c0.728-2.616,1.433-5.088,2.082-7.321
			c0.975-1.914,3.586-6.754,6.6-9.98c3.829-4.098,5.465-6.731,3.404-6.96c-1.428-0.158-5.609,5.41-8.228,10.939
			c0.571-1.89,1.02-3.332,1.293-4.177c0.124-0.383,0.246-0.803,0.366-1.248c1.352-1.882,4.471-6.392,7.392-11.853
			c3.868-7.231,5.115-14.052,2.535-11.117c-2.375,2.702-6.509,16.128-9.791,22.45c0.277-1.087,0.538-2.293,0.774-3.48
			c0.464-1.15,1.072-2.316,1.421-3.377c0.535-1.629,1.007-3.281,1.387-4.953c0.592-2.613,0.977-5.295,0.943-7.98
			c-0.04-3.185-0.699-6.255-2.471-8.919c-0.446-0.67-3.161-4.729-3.998-2.641c-0.134,0.335-0.101,0.71-0.06,1.067
			c0.395,3.458,1.65,6.634,2.426,10.001c1.161,5.037,0.389,13.493-0.023,17.089c-0.149,0.568-0.337,1.276-0.555,2.093
			c0.541-6.267-2.174-13.693-4.69-14.991c-3.113-1.605-0.059,4.698,2.342,10.201c1.553,3.56,1.669,6.26,1.558,7.724
			c-0.491,1.808-1.053,3.842-1.638,5.9c-0.116,0.283-0.225,0.563-0.329,0.842c0.245-1.349,0.409-2.805,0.327-4.079
			c-0.231-3.596-4.306-10.797-7.009-9.781c-2.703,1.017,1.875,4.815,4.326,9.231c1.679,3.025,1.617,6.218,1.412,7.93
			c-0.029,0.163-0.053,0.323-0.074,0.481c-0.281,0.937-0.56,1.845-0.831,2.702c-0.635,2.009-1.226,3.902-1.791,5.747
			c0.54-2.227,1.091-5.324,0.906-8.197c-0.339-5.275-3.428-10.252-6-10.929c-2.571-0.677,2.315,7.916,3.95,12.746
			c1.234,3.647,0.747,7.197,0.434,8.718c-0.786,2.616-1.534,5.193-2.294,7.926c0.27-2.999,0.096-6.888-0.23-10.717
			c-0.498-5.866-3.989-9.614-6.386-9.46c-2.398,0.154,0.104,3.484,3.571,10.604c2.486,5.104,2.533,9.808,2.361,12.062
			c-0.313,1.151-0.629,2.334-0.955,3.57c-0.37,1.404-0.674,2.934-0.926,4.502c-0.348-1.396-0.866-3.441-1.47-5.696
			c-0.675-2.52-1.241-5.027-1.524-7.617c-0.327-2.991-1.114-6.723-4.047-8.28c-0.993-0.527-1.935-0.331-2.461,0.665
			c-0.323,0.614-0.285,1.348-0.175,2.03c0.323,2.004,1.098,3.955,1.993,5.857c-0.631,1.012-0.802,2.501-0.761,3.59
			c0.018,0.469,0.043,0.933,0.072,1.394c-0.256-0.474-0.502-0.913-0.735-1.302c-0.449-0.749-0.984-1.387-1.541-1.899
			c0.143-1.112,0.238-2.227,0.226-3.347c-0.015-1.456-1.705-5.163-3.243-2.415c-0.615,1.099-0.496,3.258-0.556,4.693
			c-0.423,0.394-0.546,1.203-0.193,2.482c-0.243,3.315-0.283,6.712,0.516,9.934c-0.176-0.308-0.352-0.617-0.528-0.927
			c-0.218-1.064-1.159-5.941-1.33-11.638c-0.193-6.453,0.837-11.753-0.922-13.739c-1.759-1.987-2.739,5.011-2.001,12.637
			c0.41,4.236,1.691,7.763,2.748,10.063c-1.724-3.099-3.429-6.258-5.042-9.308c-0.689-1.63-2.312-6.026-1.907-10.486
			c0.511-5.624,0.883-10.224-1.251-13.389c-2.135-3.165-2.583-1.112-1.535,5.485c0.719,4.529,1.484,10.578,2.798,14.779
			c-1.253-2.409-2.425-4.697-3.475-6.772c-0.594-2.065-1.988-7.384-1.987-11.799c0.002-5.609-0.599-8.65-2.262-7.41
			c-1.152,0.859-0.408,7.782,1.452,13.611c-0.872-1.771-1.529-3.132-1.906-3.935c-0.171-0.364-0.368-0.755-0.585-1.162
			c-0.296-2.298-1.095-7.723-2.686-13.708c-2.107-7.925-5.851-13.761-5.734-9.856c0.108,3.596,6.249,16.23,8.165,23.092
			c-0.54-0.984-1.171-2.043-1.809-3.072c-0.446-1.157-0.797-2.425-1.266-3.438c-0.721-1.556-1.503-3.086-2.367-4.567
			c-1.351-2.315-2.9-4.537-4.757-6.477c-2.203-2.301-4.78-4.094-7.893-4.833c-0.783-0.186-5.538-1.299-4.724,0.798
			c0.13,0.336,0.41,0.588,0.684,0.821c2.649,2.257,5.734,3.723,8.598,5.654c4.286,2.89,9.493,9.597,11.646,12.507
			c0.278,0.517,0.625,1.162,1.023,1.908c-3.882-4.95-10.934-8.525-13.659-7.756c-3.371,0.951,3.163,3.474,8.674,5.858
			c3.565,1.542,5.492,3.437,6.41,4.583c0.875,1.657,1.852,3.526,2.829,5.43c0.108,0.285,0.22,0.565,0.334,0.84
			c-0.742-1.154-1.616-2.329-2.545-3.205c-2.623-2.471-10.516-4.953-11.798-2.366c-1.282,2.588,4.656,2.24,9.462,3.795
			c3.292,1.065,5.426,3.441,6.444,4.832c0.09,0.139,0.182,0.272,0.274,0.402c0.434,0.877,0.85,1.73,1.237,2.542
			c0.907,1.901,1.767,3.689,2.614,5.423c-1.125-1.996-2.836-4.636-4.933-6.61c-3.848-3.624-9.502-5.154-11.844-3.894
			c-2.342,1.26,7.095,4.206,11.586,6.621c3.391,1.823,5.458,4.75,6.267,6.076c1.211,2.449,2.423,4.843,3.732,7.359
			c-1.849-2.377-4.631-5.1-7.482-7.677c-4.367-3.948-9.477-4.305-11.124-2.556c-1.647,1.749,2.454,2.476,9.847,5.313
			c5.3,2.034,8.545,5.44,9.957,7.206c0.557,1.055,1.133,2.135,1.738,3.261c0.688,1.279,1.509,2.604,2.395,3.923
			c-1.207-0.783-2.982-1.924-4.962-3.16c-2.213-1.381-4.338-2.827-6.313-4.527c-2.28-1.963-5.402-4.154-8.608-3.29
			c-1.085,0.292-1.641,1.079-1.345,2.165c0.182,0.669,0.712,1.18,1.257,1.603c3.025,2.347,7.093,3.474,10.614,4.86
			c4.346,1.71,8.138,2.728,9.912,3.162c0.832,1.201,1.707,2.385,2.578,3.516c-0.248,0.007-0.71,0.021-1.581,0.047
			c-1.868,0.056-10.311-3.77-14.597-5.001c-4.286-1.231-8.295,1.099-3.804,3.513c4.491,2.415,16.713,1.878,16.713,1.878l3.525-0.106
			c0.825,1.062,1.64,2.068,2.404,2.988h-16.74v4.642h3.306l2.687,16.515h22.251l2.687-16.515h3.306v-4.642h-11.1
			c-0.08-1.575-0.064-3.561,0.164-6.014c0.272-0.307,0.927-0.933,2.445-1.981c4.87-3.365,13.13-3.644,15.324-10.121
			c0.53-1.566-0.07-3.567-1.939-3.482c-1.341,0.062-2.766,1.241-3.602,2.207c-2.786,3.219-4.884,6.554-8.506,8.993
			c-0.164,0.111-2.449,1.93-3.582,3.056c0.122-1.054,0.282-2.183,0.486-3.392c0.877-1.548,1.88-3.047,2.991-4.427
			c2.963-3.68,7.473-5.839,10.682-9.347c0.982-1.074,2.277-4.938-0.722-3.978c-1.337,0.428-2.909,2.446-3.948,3.373
			c-2.951,2.631-5.955,5.482-7.898,8.973c0.082-0.345,0.164-0.691,0.247-1.038c0.567-0.927,3.208-5.133,6.971-9.414
			c4.262-4.849,8.633-8.019,8.703-10.672c0.07-2.653-5.422,1.793-10.087,7.871c-2.591,3.377-4.062,6.828-4.859,9.231
			c0.854-3.442,1.764-6.914,2.667-10.245c0.608-1.662,2.423-5.983,5.763-8.966c4.212-3.762,7.623-6.87,8.223-10.641
			C154.707,317.021,152.978,318.216,149.242,323.753z M125.672,366.434c-0.63-0.854-1.284-1.788-1.959-2.811
			c-0.415-1.73-0.705-3.51-0.835-5.277c-0.112-1.524,0.005-3.041,0.21-4.558c1.099,1.387,2.38,2.78,3.604,4.026
			c-0.039,1.292-0.177,2.598-0.487,3.943C126.16,361.949,125.731,364.838,125.672,366.434z M129.283,370.805
			c-0.854-0.91-1.791-1.993-2.806-3.305c-0.01-0.41,0.041-1.314,0.435-3.116c0.337-1.542,1-3.089,1.738-4.646
			c1.569,1.492,2.728,2.483,2.728,2.483l2.648,2.328c-0.21,2.317-0.331,4.492-0.401,6.256H129.283z M134.065,364.131
			c-0.187-0.164-0.534-0.469-1.188-1.044c-0.678-0.596-1.861-2.905-3.161-5.563c0.548-1.142,1.071-2.291,1.475-3.449
			c1.401,2.608,2.671,4.632,3.388,5.727C134.369,361.247,134.2,362.71,134.065,364.131z"/>
		<path style="opacity:0.5;fill:#FFFFFF;" d="M149.242,323.753c-2.565,3.801-6.135,8.745-8.041,12.712
			c0.728-2.616,1.433-5.088,2.082-7.321c0.975-1.914,3.586-6.754,6.6-9.98c3.829-4.098,5.465-6.731,3.404-6.96
			c-1.428-0.158-5.609,5.41-8.228,10.939c0.571-1.89,1.02-3.332,1.293-4.177c0.124-0.383,0.246-0.803,0.366-1.248
			c1.352-1.882,4.471-6.392,7.392-11.853c3.868-7.231,5.115-14.052,2.535-11.117c-2.375,2.702-6.509,16.128-9.791,22.45
			c0.277-1.087,0.538-2.293,0.774-3.48c0.464-1.15,1.072-2.316,1.421-3.377c0.535-1.629,1.007-3.281,1.387-4.953
			c0.592-2.613,0.977-5.295,0.943-7.98c-0.04-3.185-0.699-6.255-2.471-8.919c-0.446-0.67-3.161-4.729-3.998-2.641
			c-0.134,0.335-0.101,0.71-0.06,1.067c0.395,3.458,1.65,6.634,2.426,10.001c1.161,5.037,0.389,13.493-0.023,17.089
			c-0.149,0.568-0.337,1.276-0.555,2.093c0.541-6.267-2.174-13.693-4.69-14.991c-3.113-1.605-0.059,4.698,2.342,10.201
			c1.553,3.56,1.669,6.26,1.558,7.724c-0.491,1.808-1.053,3.842-1.638,5.9c-0.116,0.283-0.225,0.563-0.329,0.842
			c0.245-1.349,0.409-2.805,0.327-4.079c-0.231-3.596-4.306-10.797-7.009-9.781c-2.703,1.017,1.875,4.815,4.326,9.231
			c1.679,3.025,1.617,6.218,1.412,7.93c-0.029,0.163-0.053,0.323-0.074,0.481c-0.281,0.937-0.56,1.845-0.831,2.702
			c-0.635,2.009-1.226,3.902-1.791,5.747c0.54-2.227,1.091-5.324,0.906-8.197c-0.339-5.275-3.428-10.252-6-10.929
			c-2.571-0.677,2.315,7.916,3.95,12.746c1.234,3.647,0.747,7.197,0.434,8.718c-0.786,2.616-1.534,5.193-2.294,7.926
			c0.27-2.999,0.096-6.888-0.23-10.717c-0.498-5.866-3.989-9.614-6.386-9.46c-2.398,0.154,0.104,3.484,3.571,10.604
			c2.486,5.104,2.533,9.808,2.361,12.062c-0.313,1.151-0.629,2.334-0.955,3.57c-0.37,1.404-0.674,2.934-0.926,4.502
			c-0.348-1.396-0.866-3.441-1.47-5.696c-0.675-2.52-1.241-5.027-1.524-7.617c-0.327-2.991-1.114-6.723-4.047-8.28
			c-0.993-0.527-1.935-0.331-2.461,0.665c-0.323,0.614-0.285,1.348-0.175,2.03c0.323,2.004,1.098,3.955,1.993,5.857
			c-0.631,1.012-0.802,2.501-0.761,3.59c0.018,0.469,0.043,0.933,0.072,1.394c-0.256-0.474-0.502-0.913-0.735-1.302
			c-0.449-0.749-0.984-1.387-1.541-1.899c0.143-1.112,0.238-2.227,0.226-3.347c-0.015-1.456-1.705-5.163-3.243-2.415
			c-0.615,1.099-0.496,3.258-0.556,4.693c-0.423,0.394-0.546,1.203-0.193,2.482c-0.243,3.315-0.283,6.712,0.516,9.934
			c-0.176-0.308-0.352-0.617-0.528-0.927c-0.218-1.064-1.159-5.941-1.33-11.638c-0.193-6.453,0.837-11.753-0.922-13.739
			c-1.759-1.987-2.739,5.011-2.001,12.637c0.41,4.236,1.691,7.763,2.748,10.063c-1.724-3.099-3.429-6.258-5.042-9.308
			c-0.689-1.63-2.312-6.026-1.907-10.486c0.511-5.624,0.883-10.224-1.251-13.389c-2.135-3.165-2.583-1.112-1.535,5.485
			c0.719,4.529,1.484,10.578,2.798,14.779c-1.253-2.409-2.425-4.697-3.475-6.772c-0.594-2.065-1.988-7.384-1.987-11.799
			c0.002-5.609-0.599-8.65-2.262-7.41c-1.152,0.859-0.408,7.782,1.452,13.611c-0.872-1.771-1.529-3.132-1.906-3.935
			c-0.171-0.364-0.368-0.755-0.585-1.162c-0.296-2.298-1.095-7.723-2.686-13.708c-2.107-7.925-5.851-13.761-5.734-9.856
			c0.108,3.596,6.249,16.23,8.165,23.092c-0.54-0.984-1.171-2.043-1.809-3.072c-0.446-1.157-0.797-2.425-1.266-3.438
			c-0.721-1.556-1.503-3.086-2.367-4.567c-1.351-2.315-2.9-4.537-4.757-6.477c-2.203-2.301-4.78-4.094-7.893-4.833
			c-0.783-0.186-5.538-1.299-4.724,0.798c0.13,0.336,0.41,0.588,0.684,0.821c2.649,2.257,5.734,3.723,8.598,5.654
			c4.286,2.89,9.493,9.597,11.646,12.507c0.278,0.517,0.625,1.162,1.023,1.908c-3.882-4.95-10.934-8.525-13.659-7.756
			c-3.371,0.951,3.163,3.474,8.674,5.858c3.565,1.542,5.492,3.437,6.41,4.583c0.875,1.657,1.852,3.526,2.829,5.43
			c0.108,0.285,0.22,0.565,0.334,0.84c-0.742-1.154-1.616-2.329-2.545-3.205c-2.623-2.471-10.516-4.953-11.798-2.366
			c-1.282,2.588,4.656,2.24,9.462,3.795c3.292,1.065,5.426,3.441,6.444,4.832c0.09,0.139,0.182,0.272,0.274,0.402
			c0.434,0.877,0.85,1.73,1.237,2.542c0.907,1.901,1.767,3.689,2.614,5.423c-1.125-1.996-2.836-4.636-4.933-6.61
			c-3.848-3.624-9.502-5.154-11.844-3.894c-2.342,1.26,7.095,4.206,11.586,6.621c3.391,1.823,5.458,4.75,6.267,6.076
			c1.211,2.449,2.423,4.843,3.732,7.359c-1.849-2.377-4.631-5.1-7.482-7.677c-4.367-3.948-9.477-4.305-11.124-2.556
			c-1.647,1.749,2.454,2.476,9.847,5.313c5.3,2.034,8.545,5.44,9.957,7.206c0.557,1.055,1.133,2.135,1.738,3.261
			c0.688,1.279,1.509,2.604,2.395,3.923c-1.207-0.783-2.982-1.924-4.962-3.16c-2.213-1.381-4.338-2.827-6.313-4.527
			c-2.28-1.963-5.402-4.154-8.608-3.29c-1.085,0.292-1.641,1.079-1.345,2.165c0.182,0.669,0.712,1.18,1.257,1.603
			c3.025,2.347,7.093,3.474,10.614,4.86c4.346,1.71,8.138,2.728,9.912,3.162c0.832,1.201,1.707,2.385,2.578,3.516
			c-0.248,0.007-0.71,0.021-1.581,0.047c-1.868,0.056-10.311-3.77-14.597-5.001c-4.286-1.231-8.295,1.099-3.804,3.513
			c4.491,2.415,16.713,1.878,16.713,1.878l3.525-0.106c0.825,1.062,1.64,2.068,2.404,2.988h-16.74v4.642h3.306l2.687,16.515h22.251
			l2.687-16.515h3.306v-4.642h-11.1c-0.08-1.575-0.064-3.561,0.164-6.014c0.272-0.307,0.927-0.933,2.445-1.981
			c4.87-3.365,13.13-3.644,15.324-10.121c0.53-1.566-0.07-3.567-1.939-3.482c-1.341,0.062-2.766,1.241-3.602,2.207
			c-2.786,3.219-4.884,6.554-8.506,8.993c-0.164,0.111-2.449,1.93-3.582,3.056c0.122-1.054,0.282-2.183,0.486-3.392
			c0.877-1.548,1.88-3.047,2.991-4.427c2.963-3.68,7.473-5.839,10.682-9.347c0.982-1.074,2.277-4.938-0.722-3.978
			c-1.337,0.428-2.909,2.446-3.948,3.373c-2.951,2.631-5.955,5.482-7.898,8.973c0.082-0.345,0.164-0.691,0.247-1.038
			c0.567-0.927,3.208-5.133,6.971-9.414c4.262-4.849,8.633-8.019,8.703-10.672c0.07-2.653-5.422,1.793-10.087,7.871
			c-2.591,3.377-4.062,6.828-4.859,9.231c0.854-3.442,1.764-6.914,2.667-10.245c0.608-1.662,2.423-5.983,5.763-8.966
			c4.212-3.762,7.623-6.87,8.223-10.641C154.707,317.021,152.978,318.216,149.242,323.753z M125.672,366.434
			c-0.63-0.854-1.284-1.788-1.959-2.811c-0.415-1.73-0.705-3.51-0.835-5.277c-0.112-1.524,0.005-3.041,0.21-4.558
			c1.099,1.387,2.38,2.78,3.604,4.026c-0.039,1.292-0.177,2.598-0.487,3.943C126.16,361.949,125.731,364.838,125.672,366.434z
			 M129.283,370.805c-0.854-0.91-1.791-1.993-2.806-3.305c-0.01-0.41,0.041-1.314,0.435-3.116c0.337-1.542,1-3.089,1.738-4.646
			c1.569,1.492,2.728,2.483,2.728,2.483l2.648,2.328c-0.21,2.317-0.331,4.492-0.401,6.256H129.283z M134.065,364.131
			c-0.187-0.164-0.534-0.469-1.188-1.044c-0.678-0.596-1.861-2.905-3.161-5.563c0.548-1.142,1.071-2.291,1.475-3.449
			c1.401,2.608,2.671,4.632,3.388,5.727C134.369,361.247,134.2,362.71,134.065,364.131z"/>
	</g>
	<g>
		<path style="fill:none;stroke:#15C0B6;stroke-linecap:round;stroke-linejoin:round;stroke-miterlimit:10;" d="M84.75,243.963
			c0,0,41.859-36.285,56.677-95.1"/>
		<g>
			<path style="fill:#15C0B6;" d="M91.874,236.247c0,0,0.911-2.92-1.224-5.557s-5.84-1.821-5.055-3.548s2.619-3.102,4.49-2.543
				c1.871,0.559,2.876,2.474,2.876,2.474s1.2-3.372,3.916-3.388c2.716-0.016,2.399,4.716,2.399,4.716s3.482-2.71,5.043-0.917
				c1.56,1.793,0.075,3.868,0.075,3.868s2.964-0.653,3.947,2.044c0.983,2.697,1.472,4.92,1.472,4.92s-6.229-2.707-9.79-2.117
				C96.461,236.79,90.963,239.167,91.874,236.247z"/>
			<path style="opacity:0.5;fill:#FFFFFF;" d="M91.874,236.247c0,0,0.911-2.92-1.224-5.557s-5.84-1.821-5.055-3.548
				s2.619-3.102,4.49-2.543c1.871,0.559,2.876,2.474,2.876,2.474s1.2-3.372,3.916-3.388c2.716-0.016,2.399,4.716,2.399,4.716
				s3.482-2.71,5.043-0.917c1.56,1.793,0.075,3.868,0.075,3.868s2.964-0.653,3.947,2.044c0.983,2.697,1.472,4.92,1.472,4.92
				s-6.229-2.707-9.79-2.117C96.461,236.79,90.963,239.167,91.874,236.247z"/>
		</g>
		<g>
			<path style="fill:#15C0B6;" d="M105.646,218.195c0,0,0.911-2.92-1.224-5.557s-5.84-1.821-5.055-3.548
				c0.785-1.727,2.619-3.102,4.49-2.543c1.871,0.559,2.876,2.474,2.876,2.474s1.2-3.372,3.915-3.388
				c2.716-0.016,2.399,4.716,2.399,4.716s3.482-2.71,5.043-0.917c1.56,1.793,0.075,3.868,0.075,3.868s2.964-0.653,3.947,2.044
				c0.983,2.697,1.472,4.92,1.472,4.92s-6.229-2.707-9.79-2.117C110.233,218.738,104.735,221.115,105.646,218.195z"/>
			<path style="opacity:0.5;fill:#FFFFFF;" d="M105.646,218.195c0,0,0.911-2.92-1.224-5.557s-5.84-1.821-5.055-3.548
				c0.785-1.727,2.619-3.102,4.49-2.543c1.871,0.559,2.876,2.474,2.876,2.474s1.2-3.372,3.915-3.388
				c2.716-0.016,2.399,4.716,2.399,4.716s3.482-2.71,5.043-0.917c1.56,1.793,0.075,3.868,0.075,3.868s2.964-0.653,3.947,2.044
				c0.983,2.697,1.472,4.92,1.472,4.92s-6.229-2.707-9.79-2.117C110.233,218.738,104.735,221.115,105.646,218.195z"/>
		</g>
		<g>
			<path style="fill:#15C0B6;" d="M115.883,203.438c0,0-0.79-2.955-4.004-4.044c-3.214-1.089-5.91,1.58-6.169-0.299
				c-0.259-1.879,0.557-4.021,2.437-4.548c1.881-0.527,3.753,0.555,3.753,0.555s-0.787-3.492,1.501-4.955
				c2.288-1.464,4.547,2.706,4.547,2.706s1.496-4.151,3.773-3.468c2.277,0.682,2.13,3.23,2.13,3.23s2.157-2.135,4.428-0.38
				c2.271,1.755,3.873,3.373,3.873,3.373s-6.712,1.039-9.407,3.44S116.673,206.393,115.883,203.438z"/>
			<path style="opacity:0.5;fill:#FFFFFF;" d="M115.883,203.438c0,0-0.79-2.955-4.004-4.044c-3.214-1.089-5.91,1.58-6.169-0.299
				c-0.259-1.879,0.557-4.021,2.437-4.548c1.881-0.527,3.753,0.555,3.753,0.555s-0.787-3.492,1.501-4.955
				c2.288-1.464,4.547,2.706,4.547,2.706s1.496-4.151,3.773-3.468c2.277,0.682,2.13,3.23,2.13,3.23s2.157-2.135,4.428-0.38
				c2.271,1.755,3.873,3.373,3.873,3.373s-6.712,1.039-9.407,3.44S116.673,206.393,115.883,203.438z"/>
		</g>
		<g>
			<path style="fill:#15C0B6;" d="M126.664,187.039c0,0,2.148-2.177,1.461-5.5c-0.687-3.323-4.354-4.297-2.864-5.472
				c1.49-1.174,3.75-1.555,5.156-0.2c1.406,1.355,1.421,3.518,1.421,3.518s2.613-2.446,5.033-1.214
				c2.42,1.232-0.032,5.291-0.032,5.291s4.337-0.811,4.901,1.498c0.564,2.309-1.707,3.472-1.707,3.472s2.933,0.779,2.569,3.627
				c-0.364,2.847-0.948,5.047-0.948,5.047s-4.294-5.262-7.729-6.371C130.491,189.626,124.515,189.216,126.664,187.039z"/>
			<path style="opacity:0.5;fill:#FFFFFF;" d="M126.664,187.039c0,0,2.148-2.177,1.461-5.5c-0.687-3.323-4.354-4.297-2.864-5.472
				c1.49-1.174,3.75-1.555,5.156-0.2c1.406,1.355,1.421,3.518,1.421,3.518s2.613-2.446,5.033-1.214
				c2.42,1.232-0.032,5.291-0.032,5.291s4.337-0.811,4.901,1.498c0.564,2.309-1.707,3.472-1.707,3.472s2.933,0.779,2.569,3.627
				c-0.364,2.847-0.948,5.047-0.948,5.047s-4.294-5.262-7.729-6.371C130.491,189.626,124.515,189.216,126.664,187.039z"/>
		</g>
		<g>
			<path style="fill:#15C0B6;" d="M133.516,171.819c0,0,2.148-2.177,1.461-5.5c-0.687-3.323-4.354-4.297-2.864-5.471
				c1.49-1.174,3.75-1.555,5.156-0.2c1.406,1.355,1.421,3.518,1.421,3.518s2.613-2.446,5.033-1.215
				c2.421,1.232-0.032,5.291-0.032,5.291s4.337-0.811,4.901,1.498c0.564,2.309-1.707,3.472-1.707,3.472s2.933,0.779,2.57,3.627
				c-0.364,2.847-0.948,5.047-0.948,5.047s-4.294-5.262-7.729-6.371C137.343,174.406,131.368,173.996,133.516,171.819z"/>
			<path style="opacity:0.5;fill:#FFFFFF;" d="M133.516,171.819c0,0,2.148-2.177,1.461-5.5c-0.687-3.323-4.354-4.297-2.864-5.471
				c1.49-1.174,3.75-1.555,5.156-0.2c1.406,1.355,1.421,3.518,1.421,3.518s2.613-2.446,5.033-1.215
				c2.421,1.232-0.032,5.291-0.032,5.291s4.337-0.811,4.901,1.498c0.564,2.309-1.707,3.472-1.707,3.472s2.933,0.779,2.57,3.627
				c-0.364,2.847-0.948,5.047-0.948,5.047s-4.294-5.262-7.729-6.371C137.343,174.406,131.368,173.996,133.516,171.819z"/>
		</g>
		<g>
			<path style="fill:#15C0B6;" d="M135.245,166.172c0,0-1.248-2.793-4.593-3.359c-3.346-0.567-5.585,2.495-6.138,0.681
				c-0.553-1.814-0.087-4.059,1.687-4.877c1.773-0.818,3.793-0.046,3.793-0.046s-1.33-3.323,0.697-5.13
				c2.027-1.808,4.918,1.952,4.918,1.952s0.82-4.335,3.177-4.022c2.356,0.313,2.614,2.852,2.614,2.852s1.792-2.45,4.312-1.076
				c2.521,1.374,4.358,2.717,4.358,2.717s-6.463,2.089-8.743,4.886C139.046,163.546,136.493,168.965,135.245,166.172z"/>
			<path style="opacity:0.5;fill:#FFFFFF;" d="M135.245,166.172c0,0-1.248-2.793-4.593-3.359c-3.346-0.567-5.585,2.495-6.138,0.681
				c-0.553-1.814-0.087-4.059,1.687-4.877c1.773-0.818,3.793-0.046,3.793-0.046s-1.33-3.323,0.697-5.13
				c2.027-1.808,4.918,1.952,4.918,1.952s0.82-4.335,3.177-4.022c2.356,0.313,2.614,2.852,2.614,2.852s1.792-2.45,4.312-1.076
				c2.521,1.374,4.358,2.717,4.358,2.717s-6.463,2.089-8.743,4.886C139.046,163.546,136.493,168.965,135.245,166.172z"/>
		</g>
		<g>
			<path style="fill:#15C0B6;" d="M139.83,149.802c0,0-1.248-2.793-4.593-3.359c-3.346-0.567-5.585,2.495-6.138,0.681
				c-0.553-1.814-0.087-4.059,1.687-4.877c1.773-0.818,3.794-0.046,3.794-0.046s-1.33-3.323,0.697-5.13
				c2.027-1.808,4.918,1.952,4.918,1.952s0.82-4.335,3.177-4.022c2.356,0.313,2.614,2.852,2.614,2.852s1.792-2.45,4.312-1.076
				c2.521,1.373,4.358,2.717,4.358,2.717s-6.463,2.089-8.743,4.886C143.631,147.177,141.078,152.595,139.83,149.802z"/>
			<path style="opacity:0.5;fill:#FFFFFF;" d="M139.83,149.802c0,0-1.248-2.793-4.593-3.359c-3.346-0.567-5.585,2.495-6.138,0.681
				c-0.553-1.814-0.087-4.059,1.687-4.877c1.773-0.818,3.794-0.046,3.794-0.046s-1.33-3.323,0.697-5.13
				c2.027-1.808,4.918,1.952,4.918,1.952s0.82-4.335,3.177-4.022c2.356,0.313,2.614,2.852,2.614,2.852s1.792-2.45,4.312-1.076
				c2.521,1.373,4.358,2.717,4.358,2.717s-6.463,2.089-8.743,4.886C143.631,147.177,141.078,152.595,139.83,149.802z"/>
		</g>
	</g>
	<g>
		<path style="fill:none;stroke:#15C0B6;stroke-linecap:round;stroke-linejoin:round;stroke-miterlimit:10;" d="M63.071,314.127
			c0,0,48.685-26.429,75.81-80.679"/>
		<g>
			<path style="fill:#15C0B6;" d="M71.688,308.124c0,0,1.518-2.656,0-5.691s-5.311-3.035-4.173-4.553
				c1.138-1.517,3.225-2.466,4.932-1.517c1.707,0.948,2.276,3.035,2.276,3.035s1.897-3.035,4.553-2.466
				c2.656,0.569,1.328,5.122,1.328,5.122s3.984-1.897,5.122,0.19c1.138,2.087-0.759,3.794-0.759,3.794s3.035,0,3.414,2.845
				c0.379,2.845,0.379,5.122,0.379,5.122s-5.501-3.983-9.105-4.173C76.051,309.641,70.17,310.78,71.688,308.124z"/>
			<path style="opacity:0.5;fill:#FFFFFF;" d="M71.688,308.124c0,0,1.518-2.656,0-5.691s-5.311-3.035-4.173-4.553
				c1.138-1.517,3.225-2.466,4.932-1.517c1.707,0.948,2.276,3.035,2.276,3.035s1.897-3.035,4.553-2.466
				c2.656,0.569,1.328,5.122,1.328,5.122s3.984-1.897,5.122,0.19c1.138,2.087-0.759,3.794-0.759,3.794s3.035,0,3.414,2.845
				c0.379,2.845,0.379,5.122,0.379,5.122s-5.501-3.983-9.105-4.173C76.051,309.641,70.17,310.78,71.688,308.124z"/>
		</g>
		<g>
			<path style="fill:#15C0B6;" d="M89.021,293.457c0,0,1.518-2.656,0-5.691c-1.518-3.035-5.311-3.035-4.173-4.553
				c1.138-1.518,3.225-2.466,4.932-1.518c1.707,0.949,2.276,3.035,2.276,3.035s1.897-3.035,4.553-2.466
				c2.656,0.569,1.328,5.122,1.328,5.122s3.983-1.897,5.122,0.19c1.138,2.087-0.759,3.794-0.759,3.794s3.035,0,3.414,2.845
				s0.379,5.122,0.379,5.122s-5.501-3.984-9.105-4.173C93.384,294.975,87.504,296.113,89.021,293.457z"/>
			<path style="opacity:0.5;fill:#FFFFFF;" d="M89.021,293.457c0,0,1.518-2.656,0-5.691c-1.518-3.035-5.311-3.035-4.173-4.553
				c1.138-1.518,3.225-2.466,4.932-1.518c1.707,0.949,2.276,3.035,2.276,3.035s1.897-3.035,4.553-2.466
				c2.656,0.569,1.328,5.122,1.328,5.122s3.983-1.897,5.122,0.19c1.138,2.087-0.759,3.794-0.759,3.794s3.035,0,3.414,2.845
				s0.379,5.122,0.379,5.122s-5.501-3.984-9.105-4.173C93.384,294.975,87.504,296.113,89.021,293.457z"/>
		</g>
		<g>
			<path style="fill:#15C0B6;" d="M102.194,281.249c0,0-0.136-3.056-3.04-4.811c-2.904-1.755-6.111,0.271-5.96-1.62
				c0.152-1.891,1.409-3.807,3.359-3.917c1.95-0.11,3.546,1.35,3.546,1.35s-0.018-3.579,2.532-4.516
				c2.549-0.937,3.858,3.621,3.858,3.621s2.354-3.732,4.431-2.575c2.077,1.156,1.385,3.613,1.385,3.613s2.566-1.621,4.406,0.582
				c1.841,2.203,3.057,4.127,3.057,4.127s-6.778-0.429-9.927,1.336C106.693,280.201,102.33,284.304,102.194,281.249z"/>
			<path style="opacity:0.5;fill:#FFFFFF;" d="M102.194,281.249c0,0-0.136-3.056-3.04-4.811c-2.904-1.755-6.111,0.271-5.96-1.62
				c0.152-1.891,1.409-3.807,3.359-3.917c1.95-0.11,3.546,1.35,3.546,1.35s-0.018-3.579,2.532-4.516
				c2.549-0.937,3.858,3.621,3.858,3.621s2.354-3.732,4.431-2.575c2.077,1.156,1.385,3.613,1.385,3.613s2.566-1.621,4.406,0.582
				c1.841,2.203,3.057,4.127,3.057,4.127s-6.778-0.429-9.927,1.336C106.693,280.201,102.33,284.304,102.194,281.249z"/>
		</g>
		<g>
			<path style="fill:#15C0B6;" d="M116.25,267.553c0,0,2.567-1.664,2.61-5.057c0.044-3.393-3.328-5.133-1.62-5.96
				c1.707-0.826,3.997-0.712,5.079,0.914c1.082,1.626,0.631,3.741,0.631,3.741s3.078-1.827,5.176-0.103
				c2.099,1.724-1.169,5.16-1.169,5.16s4.41,0.142,4.464,2.518s-2.414,3.023-2.414,3.023s2.697,1.392,1.729,4.095
				c-0.968,2.702-2.012,4.725-2.012,4.725s-3.061-6.063-6.177-7.885C119.431,270.903,113.684,269.217,116.25,267.553z"/>
			<path style="opacity:0.5;fill:#FFFFFF;" d="M116.25,267.553c0,0,2.567-1.664,2.61-5.057c0.044-3.393-3.328-5.133-1.62-5.96
				c1.707-0.826,3.997-0.712,5.079,0.914c1.082,1.626,0.631,3.741,0.631,3.741s3.078-1.827,5.176-0.103
				c2.099,1.724-1.169,5.16-1.169,5.16s4.41,0.142,4.464,2.518s-2.414,3.023-2.414,3.023s2.697,1.392,1.729,4.095
				c-0.968,2.702-2.012,4.725-2.012,4.725s-3.061-6.063-6.177-7.885C119.431,270.903,113.684,269.217,116.25,267.553z"/>
		</g>
		<g>
			<path style="fill:#15C0B6;" d="M126.217,254.164c0,0,2.567-1.664,2.61-5.057c0.044-3.393-3.328-5.133-1.62-5.96
				c1.707-0.827,3.997-0.712,5.079,0.914c1.082,1.626,0.631,3.741,0.631,3.741s3.078-1.827,5.177-0.103
				c2.099,1.724-1.169,5.16-1.169,5.16s4.41,0.141,4.464,2.518s-2.414,3.023-2.414,3.023s2.697,1.392,1.729,4.095
				c-0.968,2.702-2.012,4.725-2.012,4.725s-3.061-6.063-6.177-7.885C129.398,257.514,123.65,255.828,126.217,254.164z"/>
			<path style="opacity:0.5;fill:#FFFFFF;" d="M126.217,254.164c0,0,2.567-1.664,2.61-5.057c0.044-3.393-3.328-5.133-1.62-5.96
				c1.707-0.827,3.997-0.712,5.079,0.914c1.082,1.626,0.631,3.741,0.631,3.741s3.078-1.827,5.177-0.103
				c2.099,1.724-1.169,5.16-1.169,5.16s4.41,0.141,4.464,2.518s-2.414,3.023-2.414,3.023s2.697,1.392,1.729,4.095
				c-0.968,2.702-2.012,4.725-2.012,4.725s-3.061-6.063-6.177-7.885C129.398,257.514,123.65,255.828,126.217,254.164z"/>
		</g>
		<g>
			<path style="fill:#15C0B6;" d="M129.12,249.021c0,0-0.618-2.996-3.763-4.269c-3.145-1.273-5.991,1.235-6.141-0.656
				c-0.15-1.891,0.788-3.982,2.696-4.4c1.908-0.417,3.715,0.771,3.715,0.771s-0.584-3.531,1.785-4.86
				c2.368-1.329,4.383,2.964,4.383,2.964s1.734-4.057,3.967-3.244c2.234,0.813,1.939,3.348,1.939,3.348s2.277-2.007,4.443-0.123
				c2.166,1.884,3.671,3.591,3.671,3.591s-6.761,0.649-9.59,2.89C133.396,247.275,129.738,252.017,129.12,249.021z"/>
			<path style="opacity:0.5;fill:#FFFFFF;" d="M129.12,249.021c0,0-0.618-2.996-3.763-4.269c-3.145-1.273-5.991,1.235-6.141-0.656
				c-0.15-1.891,0.788-3.982,2.696-4.4c1.908-0.417,3.715,0.771,3.715,0.771s-0.584-3.531,1.785-4.86
				c2.368-1.329,4.383,2.964,4.383,2.964s1.734-4.057,3.967-3.244c2.234,0.813,1.939,3.348,1.939,3.348s2.277-2.007,4.443-0.123
				c2.166,1.884,3.671,3.591,3.671,3.591s-6.761,0.649-9.59,2.89C133.396,247.275,129.738,252.017,129.12,249.021z"/>
		</g>
		<g>
			<path style="fill:#15C0B6;" d="M137.12,234.021c0,0-0.618-2.996-3.763-4.269c-3.145-1.273-5.991,1.235-6.141-0.656
				c-0.15-1.891,0.788-3.982,2.696-4.4c1.908-0.417,3.715,0.771,3.715,0.771s-0.584-3.531,1.785-4.86
				c2.368-1.329,4.383,2.964,4.383,2.964s1.734-4.057,3.967-3.244c2.234,0.813,1.939,3.348,1.939,3.348s2.277-2.007,4.443-0.123
				c2.166,1.884,3.671,3.591,3.671,3.591s-6.761,0.649-9.59,2.89C141.396,232.275,137.738,237.017,137.12,234.021z"/>
			<path style="opacity:0.5;fill:#FFFFFF;" d="M137.12,234.021c0,0-0.618-2.996-3.763-4.269c-3.145-1.273-5.991,1.235-6.141-0.656
				c-0.15-1.891,0.788-3.982,2.696-4.4c1.908-0.417,3.715,0.771,3.715,0.771s-0.584-3.531,1.785-4.86
				c2.368-1.329,4.383,2.964,4.383,2.964s1.734-4.057,3.967-3.244c2.234,0.813,1.939,3.348,1.939,3.348s2.277-2.007,4.443-0.123
				c2.166,1.884,3.671,3.591,3.671,3.591s-6.761,0.649-9.59,2.89C141.396,232.275,137.738,237.017,137.12,234.021z"/>
		</g>
	</g>
	<g>
		<path style="fill:none;stroke:#15C0B6;stroke-linecap:round;stroke-linejoin:round;stroke-miterlimit:10;" d="M426.017,205.468
			c0,0-42.257-35.821-57.722-94.47"/>
		<g>
			<path style="fill:#15C0B6;" d="M418.809,197.83c0,0-0.943-2.91,1.163-5.571c2.106-2.661,5.819-1.885,5.016-3.604
				c-0.804-1.718-2.653-3.073-4.518-2.493c-1.865,0.579-2.849,2.506-2.849,2.506s-1.237-3.359-3.953-3.344
				c-2.716,0.014-2.346,4.742-2.346,4.742s-3.512-2.671-5.052-0.861c-1.541,1.81-0.033,3.869-0.033,3.869s-2.971-0.62-3.924,2.088
				c-0.953,2.708-1.418,4.936-1.418,4.936s6.199-2.775,9.766-2.224C414.227,198.424,419.751,200.74,418.809,197.83z"/>
			<path style="opacity:0.5;fill:#FFFFFF;" d="M418.809,197.83c0,0-0.943-2.91,1.163-5.571c2.106-2.661,5.819-1.885,5.016-3.604
				c-0.804-1.718-2.653-3.073-4.518-2.493c-1.865,0.579-2.849,2.506-2.849,2.506s-1.237-3.359-3.953-3.344
				c-2.716,0.014-2.346,4.742-2.346,4.742s-3.512-2.671-5.052-0.861c-1.541,1.81-0.033,3.869-0.033,3.869s-2.971-0.62-3.924,2.088
				c-0.953,2.708-1.418,4.936-1.418,4.936s6.199-2.775,9.766-2.224C414.227,198.424,419.751,200.74,418.809,197.83z"/>
		</g>
		<g>
			<path style="fill:#15C0B6;" d="M404.838,179.931c0,0-0.943-2.91,1.163-5.571s5.82-1.885,5.016-3.604
				c-0.804-1.718-2.653-3.073-4.518-2.493c-1.865,0.579-2.849,2.506-2.849,2.506s-1.237-3.359-3.953-3.344
				c-2.716,0.014-2.347,4.742-2.347,4.742s-3.512-2.671-5.052-0.861c-1.541,1.81-0.033,3.869-0.033,3.869s-2.971-0.62-3.924,2.088
				c-0.953,2.708-1.418,4.936-1.418,4.936s6.199-2.775,9.766-2.224C400.257,180.525,405.781,182.841,404.838,179.931z"/>
			<path style="opacity:0.5;fill:#FFFFFF;" d="M404.838,179.931c0,0-0.943-2.91,1.163-5.571s5.82-1.885,5.016-3.604
				c-0.804-1.718-2.653-3.073-4.518-2.493c-1.865,0.579-2.849,2.506-2.849,2.506s-1.237-3.359-3.953-3.344
				c-2.716,0.014-2.347,4.742-2.347,4.742s-3.512-2.671-5.052-0.861c-1.541,1.81-0.033,3.869-0.033,3.869s-2.971-0.62-3.924,2.088
				c-0.953,2.708-1.418,4.936-1.418,4.936s6.199-2.775,9.766-2.224C400.257,180.525,405.781,182.841,404.838,179.931z"/>
		</g>
		<g>
			<path style="fill:#15C0B6;" d="M394.438,165.288c0,0,0.757-2.964,3.959-4.088c3.202-1.125,5.927,1.515,6.165-0.367
				c0.238-1.882-0.601-4.015-2.487-4.521s-3.747,0.597-3.747,0.597s0.749-3.5-1.555-4.939c-2.304-1.439-4.517,2.756-4.517,2.756
				s-1.542-4.134-3.811-3.427c-2.269,0.707-2.094,3.253-2.094,3.253s-2.18-2.111-4.432-0.331c-2.252,1.78-3.835,3.415-3.835,3.415
				s6.723,0.965,9.444,3.336S393.681,168.251,394.438,165.288z"/>
			<path style="opacity:0.5;fill:#FFFFFF;" d="M394.438,165.288c0,0,0.757-2.964,3.959-4.088c3.202-1.125,5.927,1.515,6.165-0.367
				c0.238-1.882-0.601-4.015-2.487-4.521s-3.747,0.597-3.747,0.597s0.749-3.5-1.555-4.939c-2.304-1.439-4.517,2.756-4.517,2.756
				s-1.542-4.134-3.811-3.427c-2.269,0.707-2.094,3.253-2.094,3.253s-2.18-2.111-4.432-0.331c-2.252,1.78-3.835,3.415-3.835,3.415
				s6.723,0.965,9.444,3.336S393.681,168.251,394.438,165.288z"/>
		</g>
		<g>
			<path style="fill:#15C0B6;" d="M383.478,149.009c0,0-2.172-2.153-1.522-5.484c0.651-3.33,4.306-4.345,2.804-5.503
				c-1.502-1.158-3.767-1.514-5.158-0.144c-1.391,1.37-1.382,3.533-1.382,3.533s-2.639-2.417-5.046-1.159
				c-2.407,1.258,0.09,5.29,0.09,5.29s-4.346-0.763-4.884,1.552c-0.539,2.315,1.746,3.453,1.746,3.453s-2.925,0.812-2.529,3.655
				c0.395,2.843,1.004,5.037,1.004,5.037s4.236-5.309,7.658-6.456S385.65,151.162,383.478,149.009z"/>
			<path style="opacity:0.5;fill:#FFFFFF;" d="M383.478,149.009c0,0-2.172-2.153-1.522-5.484c0.651-3.33,4.306-4.345,2.804-5.503
				c-1.502-1.158-3.767-1.514-5.158-0.144c-1.391,1.37-1.382,3.533-1.382,3.533s-2.639-2.417-5.046-1.159
				c-2.407,1.258,0.09,5.29,0.09,5.29s-4.346-0.763-4.884,1.552c-0.539,2.315,1.746,3.453,1.746,3.453s-2.925,0.812-2.529,3.655
				c0.395,2.843,1.004,5.037,1.004,5.037s4.236-5.309,7.658-6.456S385.65,151.162,383.478,149.009z"/>
		</g>
		<g>
			<path style="fill:#15C0B6;" d="M376.458,133.865c0,0-2.172-2.153-1.522-5.483c0.651-3.33,4.306-4.345,2.804-5.503
				c-1.503-1.158-3.767-1.514-5.158-0.144c-1.391,1.37-1.382,3.533-1.382,3.533s-2.639-2.417-5.046-1.159
				c-2.407,1.259,0.09,5.29,0.09,5.29s-4.346-0.763-4.884,1.552c-0.539,2.315,1.746,3.453,1.746,3.453s-2.925,0.812-2.529,3.655
				c0.395,2.843,1.004,5.037,1.004,5.037s4.236-5.309,7.658-6.456S378.63,136.018,376.458,133.865z"/>
			<path style="opacity:0.5;fill:#FFFFFF;" d="M376.458,133.865c0,0-2.172-2.153-1.522-5.483c0.651-3.33,4.306-4.345,2.804-5.503
				c-1.503-1.158-3.767-1.514-5.158-0.144c-1.391,1.37-1.382,3.533-1.382,3.533s-2.639-2.417-5.046-1.159
				c-2.407,1.259,0.09,5.29,0.09,5.29s-4.346-0.763-4.884,1.552c-0.539,2.315,1.746,3.453,1.746,3.453s-2.925,0.812-2.529,3.655
				c0.395,2.843,1.004,5.037,1.004,5.037s4.236-5.309,7.658-6.456S378.63,136.018,376.458,133.865z"/>
		</g>
		<g>
			<path style="fill:#15C0B6;" d="M374.667,128.238c0,0,1.217-2.806,4.556-3.41c3.339-0.604,5.612,2.434,6.145,0.613
				s0.042-4.059-1.74-4.858c-1.782-0.799-3.794-0.004-3.794-0.004s1.293-3.337-0.754-5.122c-2.047-1.785-4.896,2.006-4.896,2.006
				s-0.868-4.326-3.221-3.987c-2.352,0.339-2.583,2.881-2.583,2.881s-1.819-2.43-4.324-1.029c-2.505,1.401-4.328,2.765-4.328,2.765
				s6.485,2.017,8.797,4.789C370.838,125.654,373.45,131.044,374.667,128.238z"/>
			<path style="opacity:0.5;fill:#FFFFFF;" d="M374.667,128.238c0,0,1.217-2.806,4.556-3.41c3.339-0.604,5.612,2.434,6.145,0.613
				s0.042-4.059-1.74-4.858c-1.782-0.799-3.794-0.004-3.794-0.004s1.293-3.337-0.754-5.122c-2.047-1.785-4.896,2.006-4.896,2.006
				s-0.868-4.326-3.221-3.987c-2.352,0.339-2.583,2.881-2.583,2.881s-1.819-2.43-4.324-1.029c-2.505,1.401-4.328,2.765-4.328,2.765
				s6.485,2.017,8.797,4.789C370.838,125.654,373.45,131.044,374.667,128.238z"/>
		</g>
		<g>
			<path style="fill:#15C0B6;" d="M369.901,111.919c0,0,1.217-2.806,4.556-3.41s5.612,2.434,6.145,0.613
				c0.533-1.821,0.042-4.059-1.74-4.858c-1.782-0.799-3.794-0.004-3.794-0.004s1.293-3.337-0.753-5.122
				c-2.047-1.785-4.896,2.006-4.896,2.006s-0.868-4.326-3.221-3.987c-2.353,0.339-2.583,2.881-2.583,2.881s-1.819-2.43-4.324-1.029
				c-2.505,1.401-4.328,2.765-4.328,2.765s6.485,2.017,8.797,4.789C366.072,109.336,368.685,114.726,369.901,111.919z"/>
			<path style="opacity:0.5;fill:#FFFFFF;" d="M369.901,111.919c0,0,1.217-2.806,4.556-3.41s5.612,2.434,6.145,0.613
				c0.533-1.821,0.042-4.059-1.74-4.858c-1.782-0.799-3.794-0.004-3.794-0.004s1.293-3.337-0.753-5.122
				c-2.047-1.785-4.896,2.006-4.896,2.006s-0.868-4.326-3.221-3.987c-2.353,0.339-2.583,2.881-2.583,2.881s-1.819-2.43-4.324-1.029
				c-2.505,1.401-4.328,2.765-4.328,2.765s6.485,2.017,8.797,4.789C366.072,109.336,368.685,114.726,369.901,111.919z"/>
		</g>
	</g>
	<g>
		<path style="fill:none;stroke:#15C0B6;stroke-linecap:round;stroke-linejoin:round;stroke-miterlimit:10;" d="M422.552,205.378
			c0,0-53.271-15.199-91.552-62.245"/>
		<g>
			<path style="fill:#15C0B6;" d="M412.836,201.395c0,0-2.059-2.262-1.239-5.554c0.821-3.293,4.523-4.118,3.082-5.352
				c-1.441-1.234-3.684-1.705-5.144-0.408c-1.46,1.297-1.561,3.458-1.561,3.458s-2.512-2.549-4.98-1.416
				c-2.468,1.133-0.181,5.288-0.181,5.288s-4.301-0.984-4.958,1.3c-0.657,2.284,1.566,3.538,1.566,3.538s-2.962,0.661-2.713,3.52
				c0.249,2.86,0.744,5.081,0.744,5.081s4.502-5.085,7.979-6.055C408.908,203.826,414.895,203.657,412.836,201.395z"/>
			<path style="opacity:0.5;fill:#FFFFFF;" d="M412.836,201.395c0,0-2.059-2.262-1.239-5.554c0.821-3.293,4.523-4.118,3.082-5.352
				c-1.441-1.234-3.684-1.705-5.144-0.408c-1.46,1.297-1.561,3.458-1.561,3.458s-2.512-2.549-4.98-1.416
				c-2.468,1.133-0.181,5.288-0.181,5.288s-4.301-0.984-4.958,1.3c-0.657,2.284,1.566,3.538,1.566,3.538s-2.962,0.661-2.713,3.52
				c0.249,2.86,0.744,5.081,0.744,5.081s4.502-5.085,7.979-6.055C408.908,203.826,414.895,203.657,412.836,201.395z"/>
		</g>
		<g>
			<path style="fill:#15C0B6;" d="M392.726,190.852c0,0-2.059-2.262-1.239-5.554s4.523-4.118,3.082-5.352
				c-1.441-1.233-3.684-1.705-5.144-0.408c-1.46,1.297-1.561,3.458-1.561,3.458s-2.512-2.549-4.98-1.416
				c-2.468,1.133-0.181,5.288-0.181,5.288s-4.301-0.984-4.958,1.3c-0.657,2.284,1.566,3.538,1.566,3.538s-2.962,0.661-2.713,3.52
				c0.249,2.86,0.744,5.081,0.744,5.081s4.502-5.085,7.979-6.055C388.798,193.283,394.785,193.114,392.726,190.852z"/>
			<path style="opacity:0.5;fill:#FFFFFF;" d="M392.726,190.852c0,0-2.059-2.262-1.239-5.554s4.523-4.118,3.082-5.352
				c-1.441-1.233-3.684-1.705-5.144-0.408c-1.46,1.297-1.561,3.458-1.561,3.458s-2.512-2.549-4.98-1.416
				c-2.468,1.133-0.181,5.288-0.181,5.288s-4.301-0.984-4.958,1.3c-0.657,2.284,1.566,3.538,1.566,3.538s-2.962,0.661-2.713,3.52
				c0.249,2.86,0.744,5.081,0.744,5.081s4.502-5.085,7.979-6.055C388.798,193.283,394.785,193.114,392.726,190.852z"/>
		</g>
		<g>
			<path style="fill:#15C0B6;" d="M377.211,181.803c0,0-0.533-3.012,1.92-5.357c2.452-2.345,6.024-1.065,5.464-2.878
				c-0.559-1.813-2.204-3.409-4.131-3.092s-3.167,2.089-3.167,2.089s-0.762-3.497-3.454-3.857c-2.692-0.36-2.978,4.374-2.978,4.374
				s-3.11-3.13-4.885-1.549c-1.775,1.58-0.566,3.827-0.566,3.827s-2.857-1.024-4.174,1.527c-1.317,2.551-2.085,4.693-2.085,4.693
				s6.522-1.894,9.979-0.857C372.592,181.76,377.744,184.815,377.211,181.803z"/>
			<path style="opacity:0.5;fill:#FFFFFF;" d="M377.211,181.803c0,0-0.533-3.012,1.92-5.357c2.452-2.345,6.024-1.065,5.464-2.878
				c-0.559-1.813-2.204-3.409-4.131-3.092s-3.167,2.089-3.167,2.089s-0.762-3.497-3.454-3.857c-2.692-0.36-2.978,4.374-2.978,4.374
				s-3.11-3.13-4.885-1.549c-1.775,1.58-0.566,3.827-0.566,3.827s-2.857-1.024-4.174,1.527c-1.317,2.551-2.085,4.693-2.085,4.693
				s6.522-1.894,9.979-0.857C372.592,181.76,377.744,184.815,377.211,181.803z"/>
		</g>
		<g>
			<path style="fill:#15C0B6;" d="M360.511,171.496c0,0-2.867-1.065-3.648-4.367c-0.781-3.302,2.131-5.734,0.284-6.169
				c-1.846-0.435-4.056,0.175-4.758,1.997c-0.702,1.822,0.199,3.789,0.199,3.789s-3.402-1.113-5.075,1.026
				c-1.673,2.139,2.264,4.782,2.264,4.782s-4.273,1.098-3.809,3.429c0.464,2.331,3.015,2.425,3.015,2.425s-2.329,1.946-0.796,4.373
				c1.533,2.427,2.992,4.174,2.992,4.174s1.668-6.584,4.313-9.04C358.136,175.458,363.378,172.561,360.511,171.496z"/>
			<path style="opacity:0.5;fill:#FFFFFF;" d="M360.511,171.496c0,0-2.867-1.065-3.648-4.367c-0.781-3.302,2.131-5.734,0.284-6.169
				c-1.846-0.435-4.056,0.175-4.758,1.997c-0.702,1.822,0.199,3.789,0.199,3.789s-3.402-1.113-5.075,1.026
				c-1.673,2.139,2.264,4.782,2.264,4.782s-4.273,1.098-3.809,3.429c0.464,2.331,3.015,2.425,3.015,2.425s-2.329,1.946-0.796,4.373
				c1.533,2.427,2.992,4.174,2.992,4.174s1.668-6.584,4.313-9.04C358.136,175.458,363.378,172.561,360.511,171.496z"/>
		</g>
		<g>
			<path style="fill:#15C0B6;" d="M347.869,160.597c0,0-2.867-1.065-3.648-4.367c-0.781-3.302,2.131-5.734,0.284-6.169
				c-1.846-0.435-4.056,0.175-4.758,1.997c-0.702,1.822,0.199,3.789,0.199,3.789s-3.402-1.113-5.075,1.026
				c-1.673,2.139,2.264,4.782,2.264,4.782s-4.273,1.098-3.809,3.429c0.464,2.331,3.014,2.425,3.014,2.425s-2.329,1.946-0.796,4.373
				c1.533,2.427,2.992,4.174,2.992,4.174s1.668-6.584,4.313-9.04C345.494,164.558,350.736,161.662,347.869,160.597z"/>
			<path style="opacity:0.5;fill:#FFFFFF;" d="M347.869,160.597c0,0-2.867-1.065-3.648-4.367c-0.781-3.302,2.131-5.734,0.284-6.169
				c-1.846-0.435-4.056,0.175-4.758,1.997c-0.702,1.822,0.199,3.789,0.199,3.789s-3.402-1.113-5.075,1.026
				c-1.673,2.139,2.264,4.782,2.264,4.782s-4.273,1.098-3.809,3.429c0.464,2.331,3.014,2.425,3.014,2.425s-2.329,1.946-0.796,4.373
				c1.533,2.427,2.992,4.174,2.992,4.174s1.668-6.584,4.313-9.04C345.494,164.558,350.736,161.662,347.869,160.597z"/>
		</g>
		<g>
			<path style="fill:#15C0B6;" d="M343.917,156.209c0,0-0.049-3.058,2.744-4.986c2.793-1.927,6.117-0.098,5.851-1.977
				c-0.266-1.878-1.636-3.715-3.589-3.707c-1.953,0.008-3.458,1.562-3.458,1.562s-0.199-3.574-2.8-4.355
				c-2.601-0.782-3.633,3.847-3.633,3.847s-2.575-3.583-4.578-2.303c-2.003,1.279-1.164,3.69-1.164,3.69s-2.659-1.463-4.363,0.847
				c-1.704,2.31-2.802,4.304-2.802,4.304s6.74-0.838,9.989,0.734C339.362,155.435,343.966,159.268,343.917,156.209z"/>
			<path style="opacity:0.5;fill:#FFFFFF;" d="M343.917,156.209c0,0-0.049-3.058,2.744-4.986c2.793-1.927,6.117-0.098,5.851-1.977
				c-0.266-1.878-1.636-3.715-3.589-3.707c-1.953,0.008-3.458,1.562-3.458,1.562s-0.199-3.574-2.8-4.355
				c-2.601-0.782-3.633,3.847-3.633,3.847s-2.575-3.583-4.578-2.303c-2.003,1.279-1.164,3.69-1.164,3.69s-2.659-1.463-4.363,0.847
				c-1.704,2.31-2.802,4.304-2.802,4.304s6.74-0.838,9.989,0.734C339.362,155.435,343.966,159.268,343.917,156.209z"/>
		</g>
		<g>
			<path style="fill:#15C0B6;" d="M332.844,143.31c0,0-0.049-3.058,2.744-4.986c2.793-1.927,6.117-0.098,5.851-1.977
				c-0.266-1.878-1.636-3.715-3.589-3.707c-1.953,0.008-3.457,1.561-3.457,1.561s-0.199-3.574-2.8-4.355
				c-2.601-0.782-3.633,3.847-3.633,3.847s-2.575-3.582-4.579-2.303c-2.003,1.279-1.164,3.69-1.164,3.69s-2.659-1.463-4.363,0.847
				c-1.704,2.31-2.802,4.304-2.802,4.304s6.74-0.838,9.989,0.734C328.29,142.536,332.893,146.368,332.844,143.31z"/>
			<path style="opacity:0.5;fill:#FFFFFF;" d="M332.844,143.31c0,0-0.049-3.058,2.744-4.986c2.793-1.927,6.117-0.098,5.851-1.977
				c-0.266-1.878-1.636-3.715-3.589-3.707c-1.953,0.008-3.457,1.561-3.457,1.561s-0.199-3.574-2.8-4.355
				c-2.601-0.782-3.633,3.847-3.633,3.847s-2.575-3.582-4.579-2.303c-2.003,1.279-1.164,3.69-1.164,3.69s-2.659-1.463-4.363,0.847
				c-1.704,2.31-2.802,4.304-2.802,4.304s6.74-0.838,9.989,0.734C328.29,142.536,332.893,146.368,332.844,143.31z"/>
		</g>
	</g>
	<g>
		<path style="fill:none;stroke:#15C0B6;stroke-linecap:round;stroke-linejoin:round;stroke-miterlimit:10;" d="M61.225,300.166
			c0,0,31.882-45.302,32.092-105.955"/>
		<g>
			<path style="fill:#15C0B6;" d="M66.28,290.96c0,0,0.18-3.053-2.527-5.099c-2.708-2.045-6.107-0.36-5.761-2.226
				c0.346-1.865,1.794-3.642,3.745-3.55c1.951,0.092,3.387,1.708,3.387,1.708s0.352-3.562,2.984-4.231
				c2.632-0.67,3.464,3.999,3.464,3.999s2.727-3.469,4.673-2.105c1.947,1.364,1.005,3.736,1.005,3.736s2.719-1.348,4.323,1.033
				c1.604,2.381,2.615,4.42,2.615,4.42s-6.698-1.126-10.011,0.305C70.863,290.382,66.099,294.014,66.28,290.96z"/>
			<path style="opacity:0.5;fill:#FFFFFF;" d="M66.28,290.96c0,0,0.18-3.053-2.527-5.099c-2.708-2.045-6.107-0.36-5.761-2.226
				c0.346-1.865,1.794-3.642,3.745-3.55c1.951,0.092,3.387,1.708,3.387,1.708s0.352-3.562,2.984-4.231
				c2.632-0.67,3.464,3.999,3.464,3.999s2.727-3.469,4.673-2.105c1.947,1.364,1.005,3.736,1.005,3.736s2.719-1.348,4.323,1.033
				c1.604,2.381,2.615,4.42,2.615,4.42s-6.698-1.126-10.011,0.305C70.863,290.382,66.099,294.014,66.28,290.96z"/>
		</g>
		<g>
			<path style="fill:#15C0B6;" d="M75.296,270.121c0,0,0.18-3.053-2.527-5.099c-2.708-2.045-6.107-0.36-5.761-2.225
				c0.346-1.865,1.794-3.642,3.745-3.55c1.951,0.092,3.387,1.708,3.387,1.708s0.352-3.562,2.984-4.231
				c2.632-0.67,3.464,3.999,3.464,3.999s2.727-3.469,4.673-2.105c1.946,1.364,1.005,3.736,1.005,3.736s2.719-1.348,4.323,1.033
				c1.604,2.381,2.615,4.42,2.615,4.42s-6.698-1.126-10.011,0.305C79.879,269.543,75.116,273.175,75.296,270.121z"/>
			<path style="opacity:0.5;fill:#FFFFFF;" d="M75.296,270.121c0,0,0.18-3.053-2.527-5.099c-2.708-2.045-6.107-0.36-5.761-2.225
				c0.346-1.865,1.794-3.642,3.745-3.55c1.951,0.092,3.387,1.708,3.387,1.708s0.352-3.562,2.984-4.231
				c2.632-0.67,3.464,3.999,3.464,3.999s2.727-3.469,4.673-2.105c1.946,1.364,1.005,3.736,1.005,3.736s2.719-1.348,4.323,1.033
				c1.604,2.381,2.615,4.42,2.615,4.42s-6.698-1.126-10.011,0.305C79.879,269.543,75.116,273.175,75.296,270.121z"/>
		</g>
		<g>
			<path style="fill:#15C0B6;" d="M81.676,253.332c0,0-1.479-2.678-4.86-2.96c-3.382-0.283-5.355,2.957-6.059,1.196
				c-0.704-1.762-0.429-4.037,1.27-5.002c1.698-0.965,3.776-0.365,3.776-0.365s-1.605-3.199,0.262-5.171
				c1.868-1.972,5.065,1.53,5.065,1.53s0.452-4.389,2.826-4.275c2.374,0.113,2.845,2.622,2.845,2.622s1.579-2.592,4.206-1.436
				c2.628,1.156,4.572,2.34,4.572,2.34s-6.264,2.626-8.301,5.605C85.242,250.395,83.155,256.01,81.676,253.332z"/>
			<path style="opacity:0.5;fill:#FFFFFF;" d="M81.676,253.332c0,0-1.479-2.678-4.86-2.96c-3.382-0.283-5.355,2.957-6.059,1.196
				c-0.704-1.762-0.429-4.037,1.27-5.002c1.698-0.965,3.776-0.365,3.776-0.365s-1.605-3.199,0.262-5.171
				c1.868-1.972,5.065,1.53,5.065,1.53s0.452-4.389,2.826-4.275c2.374,0.113,2.845,2.622,2.845,2.622s1.579-2.592,4.206-1.436
				c2.628,1.156,4.572,2.34,4.572,2.34s-6.264,2.626-8.301,5.605C85.242,250.395,83.155,256.01,81.676,253.332z"/>
		</g>
		<g>
			<path style="fill:#15C0B6;" d="M88.188,234.819c0,0,1.561-2.631,0.093-5.69c-1.468-3.059-5.261-3.121-4.098-4.62
				c1.163-1.499,3.265-2.413,4.956-1.437c1.692,0.976,2.227,3.072,2.227,3.072s1.946-3.004,4.592-2.391
				c2.646,0.612,1.244,5.143,1.244,5.143s4.014-1.832,5.118,0.273c1.104,2.105-0.821,3.781-0.821,3.781s3.035,0.049,3.368,2.901
				c0.333,2.851,0.296,5.127,0.296,5.127s-5.435-4.073-9.036-4.321C92.525,236.408,86.627,237.45,88.188,234.819z"/>
			<path style="opacity:0.5;fill:#FFFFFF;" d="M88.188,234.819c0,0,1.561-2.631,0.093-5.69c-1.468-3.059-5.261-3.121-4.098-4.62
				c1.163-1.499,3.265-2.413,4.956-1.437c1.692,0.976,2.227,3.072,2.227,3.072s1.946-3.004,4.592-2.391
				c2.646,0.612,1.244,5.143,1.244,5.143s4.014-1.832,5.118,0.273c1.104,2.105-0.821,3.781-0.821,3.781s3.035,0.049,3.368,2.901
				c0.333,2.851,0.296,5.127,0.296,5.127s-5.435-4.073-9.036-4.321C92.525,236.408,86.627,237.45,88.188,234.819z"/>
		</g>
		<g>
			<path style="fill:#15C0B6;" d="M91.171,218.396c0,0,1.561-2.631,0.093-5.69c-1.468-3.059-5.261-3.121-4.098-4.62
				c1.163-1.499,3.264-2.413,4.956-1.437c1.692,0.976,2.227,3.072,2.227,3.072s1.946-3.004,4.592-2.391
				c2.646,0.612,1.244,5.143,1.244,5.143s4.014-1.832,5.118,0.273c1.104,2.105-0.82,3.781-0.82,3.781s3.035,0.049,3.368,2.901
				c0.333,2.851,0.296,5.127,0.296,5.127s-5.436-4.073-9.036-4.321C95.508,219.985,89.61,221.027,91.171,218.396z"/>
			<path style="opacity:0.5;fill:#FFFFFF;" d="M91.171,218.396c0,0,1.561-2.631,0.093-5.69c-1.468-3.059-5.261-3.121-4.098-4.62
				c1.163-1.499,3.264-2.413,4.956-1.437c1.692,0.976,2.227,3.072,2.227,3.072s1.946-3.004,4.592-2.391
				c2.646,0.612,1.244,5.143,1.244,5.143s4.014-1.832,5.118,0.273c1.104,2.105-0.82,3.781-0.82,3.781s3.035,0.049,3.368,2.901
				c0.333,2.851,0.296,5.127,0.296,5.127s-5.436-4.073-9.036-4.321C95.508,219.985,89.61,221.027,91.171,218.396z"/>
		</g>
		<g>
			<path style="fill:#15C0B6;" d="M91.488,212.499c0,0-1.884-2.41-5.268-2.154c-3.384,0.256-4.819,3.768-5.793,2.14
				c-0.974-1.628-1.062-3.918,0.462-5.139s3.671-0.958,3.671-0.958s-2.091-2.904-0.56-5.147c1.532-2.243,5.243,0.709,5.243,0.709
				s-0.248-4.405,2.114-4.669c2.362-0.264,3.224,2.138,3.224,2.138s1.149-2.809,3.926-2.084c2.777,0.726,4.884,1.587,4.884,1.587
				s-5.769,3.584-7.309,6.849C94.544,209.035,93.372,214.909,91.488,212.499z"/>
			<path style="opacity:0.5;fill:#FFFFFF;" d="M91.488,212.499c0,0-1.884-2.41-5.268-2.154c-3.384,0.256-4.819,3.768-5.793,2.14
				c-0.974-1.628-1.062-3.918,0.462-5.139s3.671-0.958,3.671-0.958s-2.091-2.904-0.56-5.147c1.532-2.243,5.243,0.709,5.243,0.709
				s-0.248-4.405,2.114-4.669c2.362-0.264,3.224,2.138,3.224,2.138s1.149-2.809,3.926-2.084c2.777,0.726,4.884,1.587,4.884,1.587
				s-5.769,3.584-7.309,6.849C94.544,209.035,93.372,214.909,91.488,212.499z"/>
		</g>
		<g>
			<path style="fill:#15C0B6;" d="M91.994,195.507c0,0-1.884-2.41-5.268-2.154c-3.384,0.256-4.819,3.768-5.793,2.14
				c-0.974-1.628-1.062-3.918,0.462-5.139c1.524-1.221,3.671-0.958,3.671-0.958s-2.091-2.904-0.56-5.147
				c1.532-2.243,5.243,0.709,5.243,0.709s-0.248-4.405,2.114-4.669c2.362-0.264,3.225,2.138,3.225,2.138s1.149-2.809,3.926-2.084
				c2.777,0.726,4.884,1.587,4.884,1.587s-5.769,3.584-7.309,6.849C95.049,192.043,93.878,197.916,91.994,195.507z"/>
			<path style="opacity:0.5;fill:#FFFFFF;" d="M91.994,195.507c0,0-1.884-2.41-5.268-2.154c-3.384,0.256-4.819,3.768-5.793,2.14
				c-0.974-1.628-1.062-3.918,0.462-5.139c1.524-1.221,3.671-0.958,3.671-0.958s-2.091-2.904-0.56-5.147
				c1.532-2.243,5.243,0.709,5.243,0.709s-0.248-4.405,2.114-4.669c2.362-0.264,3.225,2.138,3.225,2.138s1.149-2.809,3.926-2.084
				c2.777,0.726,4.884,1.587,4.884,1.587s-5.769,3.584-7.309,6.849C95.049,192.043,93.878,197.916,91.994,195.507z"/>
		</g>
	</g>
</g>
<g id="Candles">
	<g>
		<g>
			<g>
				<path style="fill:#FFFFFF;stroke:#263238;stroke-linecap:round;stroke-linejoin:round;stroke-miterlimit:10;" d="
					M397.349,392.523c0,1.241-1.811,2.247-4.045,2.247c-2.234,0-4.045-1.006-4.045-2.247c0-1.241,1.811-2.247,4.045-2.247
					C395.538,390.276,397.349,391.282,397.349,392.523z"/>
			</g>
			<g>
				<path style="fill:#FFFFFF;stroke:#263238;stroke-linecap:round;stroke-linejoin:round;stroke-miterlimit:10;" d="
					M369.935,393.422c0,1.241-1.811,2.247-4.045,2.247c-2.234,0-4.045-1.006-4.045-2.247s1.811-2.247,4.045-2.247
					C368.124,391.174,369.935,392.181,369.935,393.422z"/>
			</g>
			<g>
				<g>
					<path style="fill:#FFFFFF;stroke:#263238;stroke-linecap:round;stroke-linejoin:round;stroke-miterlimit:10;" d="
						M373.755,394.77c0,1.241-1.811,2.247-4.045,2.247c-2.234,0-4.045-1.006-4.045-2.247s1.811-2.247,4.045-2.247
						C371.944,392.523,373.755,393.529,373.755,394.77z"/>
				</g>
				<g>
					<path style="fill:#FFFFFF;stroke:#263238;stroke-linecap:round;stroke-linejoin:round;stroke-miterlimit:10;" d="
						M386.338,393.871c0,1.241-1.811,2.247-4.045,2.247c-2.234,0-4.045-1.006-4.045-2.247s1.811-2.247,4.045-2.247
						C384.527,391.624,386.338,392.63,386.338,393.871z"/>
				</g>
				<g>
					<path style="fill:#FFFFFF;stroke:#263238;stroke-linecap:round;stroke-linejoin:round;stroke-miterlimit:10;" d="
						M379.597,393.422c0,1.241-1.811,2.247-4.045,2.247s-4.045-1.006-4.045-2.247s1.811-2.247,4.045-2.247
						S379.597,392.181,379.597,393.422z"/>
				</g>
				<g>
					<path style="fill:#FFFFFF;stroke:#263238;stroke-linecap:round;stroke-linejoin:round;stroke-miterlimit:10;" d="
						M393.304,395.219c0,1.241-1.811,2.247-4.045,2.247c-2.234,0-4.045-1.006-4.045-2.247s1.811-2.247,4.045-2.247
						C391.493,392.972,393.304,393.978,393.304,395.219z"/>
				</g>
				<g>
					<path style="fill:#FFFFFF;stroke:#263238;stroke-linecap:round;stroke-linejoin:round;stroke-miterlimit:10;" d="
						M403.416,395.444c0,1.241-1.811,2.247-4.045,2.247c-2.234,0-4.045-1.006-4.045-2.247s1.811-2.247,4.045-2.247
						C401.605,393.197,403.416,394.203,403.416,395.444z"/>
				</g>
				<g>
					<path style="fill:#FFFFFF;stroke:#263238;stroke-linecap:round;stroke-linejoin:round;stroke-miterlimit:10;" d="
						M364.542,395.893c0,1.241-1.811,2.247-4.045,2.247s-4.045-1.006-4.045-2.247c0-1.241,1.811-2.247,4.045-2.247
						S364.542,394.652,364.542,395.893z"/>
				</g>
				<g>
					<path style="fill:#FFFFFF;stroke:#263238;stroke-linecap:round;stroke-linejoin:round;stroke-miterlimit:10;" d="
						M369.71,397.017c0,1.241-1.811,2.247-4.045,2.247c-2.234,0-4.045-1.006-4.045-2.247s1.811-2.247,4.045-2.247
						C367.899,394.77,369.71,395.776,369.71,397.017z"/>
				</g>
				<g>
					<path style="fill:#FFFFFF;stroke:#263238;stroke-linecap:round;stroke-linejoin:round;stroke-miterlimit:10;" d="
						M396.225,397.691c0,1.241-1.811,2.247-4.045,2.247s-4.045-1.006-4.045-2.247s1.811-2.247,4.045-2.247
						S396.225,396.45,396.225,397.691z"/>
				</g>
				<g>
					<path style="fill:#FFFFFF;stroke:#263238;stroke-linecap:round;stroke-linejoin:round;stroke-miterlimit:10;" d="
						M379.372,396.568c0,1.241-1.811,2.247-4.045,2.247c-2.234,0-4.045-1.006-4.045-2.247c0-1.241,1.811-2.247,4.045-2.247
						C377.562,394.32,379.372,395.326,379.372,396.568z"/>
				</g>
				<g>
					<path style="fill:#FFFFFF;stroke:#263238;stroke-linecap:round;stroke-linejoin:round;stroke-miterlimit:10;" d="
						M385.439,396.568c0,1.241-1.811,2.247-4.045,2.247c-2.234,0-4.045-1.006-4.045-2.247c0-1.241,1.811-2.247,4.045-2.247
						C383.629,394.32,385.439,395.326,385.439,396.568z"/>
				</g>
			</g>
		</g>
		<g>
			<path style="fill:#FFFFFF;stroke:#263238;stroke-linecap:round;stroke-linejoin:round;stroke-miterlimit:10;" d="M376.28,399.65
				h-12.951c-0.828,0-1.5-0.672-1.5-1.5v-32.718c0-1.657,1.343-3,3-3h9.951c1.657,0,3,1.343,3,3v32.718
				C377.78,398.978,377.108,399.65,376.28,399.65z"/>
			<path style="fill:#15C0B6;stroke:#263238;stroke-linecap:round;stroke-linejoin:round;stroke-miterlimit:10;" d="
				M369.912,362.623c0,0-2.472-1.798-2.022-4.944c0.449-3.146,3.146-6.067,3.146-6.067s1.573,2.921,1.573,5.842
				C372.608,360.376,369.912,362.623,369.912,362.623z"/>
		</g>
		<g>
			<path style="fill:#FFFFFF;stroke:#263238;stroke-linecap:round;stroke-linejoin:round;stroke-miterlimit:10;" d="M394.481,399.65
				h-12.951c-0.828,0-1.5-0.672-1.5-1.5v-42.189c0-1.657,1.343-3,3-3h9.951c1.657,0,3,1.343,3,3v42.189
				C395.981,398.978,395.31,399.65,394.481,399.65z"/>
			<path style="fill:#15C0B6;stroke:#263238;stroke-linecap:round;stroke-linejoin:round;stroke-miterlimit:10;" d="
				M388.113,353.152c0,0-2.472-1.798-2.022-4.944s3.146-6.067,3.146-6.067s1.573,2.921,1.573,5.842S388.113,353.152,388.113,353.152
				z"/>
		</g>
		<g>
			<g>
				
					<ellipse style="fill:#FFFFFF;stroke:#263238;stroke-linecap:round;stroke-linejoin:round;stroke-miterlimit:10;" cx="379.124" cy="398.351" rx="4.045" ry="2.247"/>
			</g>
			<g>
				<path style="fill:#FFFFFF;stroke:#263238;stroke-linecap:round;stroke-linejoin:round;stroke-miterlimit:10;" d="
					M355.755,399.25c0,1.241-1.811,2.247-4.045,2.247s-4.045-1.006-4.045-2.247s1.811-2.247,4.045-2.247
					S355.755,398.009,355.755,399.25z"/>
			</g>
			<g>
				<g>
					<path style="fill:#FFFFFF;stroke:#263238;stroke-linecap:round;stroke-linejoin:round;stroke-miterlimit:10;" d="
						M359.575,400.598c0,1.241-1.811,2.247-4.045,2.247s-4.045-1.006-4.045-2.247c0-1.241,1.811-2.247,4.045-2.247
						S359.575,399.357,359.575,400.598z"/>
				</g>
				<g>
					<path style="fill:#FFFFFF;stroke:#263238;stroke-linecap:round;stroke-linejoin:round;stroke-miterlimit:10;" d="
						M372.159,399.699c0,1.241-1.811,2.247-4.045,2.247c-2.234,0-4.045-1.006-4.045-2.247s1.811-2.247,4.045-2.247
						C370.348,397.452,372.159,398.458,372.159,399.699z"/>
				</g>
				<g>
					<path style="fill:#FFFFFF;stroke:#263238;stroke-linecap:round;stroke-linejoin:round;stroke-miterlimit:10;" d="
						M365.417,399.25c0,1.241-1.811,2.247-4.045,2.247c-2.234,0-4.045-1.006-4.045-2.247s1.811-2.247,4.045-2.247
						C363.607,397.003,365.417,398.009,365.417,399.25z"/>
				</g>
				<g>
					<path style="fill:#FFFFFF;stroke:#263238;stroke-linecap:round;stroke-linejoin:round;stroke-miterlimit:10;" d="
						M379.124,401.048c0,1.241-1.811,2.247-4.045,2.247s-4.045-1.006-4.045-2.247s1.811-2.247,4.045-2.247
						S379.124,399.807,379.124,401.048z"/>
				</g>
				<g>
					<path style="fill:#FFFFFF;stroke:#263238;stroke-linecap:round;stroke-linejoin:round;stroke-miterlimit:10;" d="
						M389.236,401.272c0,1.241-1.811,2.247-4.045,2.247c-2.234,0-4.045-1.006-4.045-2.247s1.811-2.247,4.045-2.247
						C387.425,399.025,389.236,400.031,389.236,401.272z"/>
				</g>
				<g>
					<path style="fill:#FFFFFF;stroke:#263238;stroke-linecap:round;stroke-linejoin:round;stroke-miterlimit:10;" d="
						M350.362,401.722c0,1.241-1.811,2.247-4.045,2.247c-2.234,0-4.045-1.006-4.045-2.247s1.811-2.247,4.045-2.247
						C348.551,399.475,350.362,400.481,350.362,401.722z"/>
				</g>
				<g>
					<path style="fill:#FFFFFF;stroke:#263238;stroke-linecap:round;stroke-linejoin:round;stroke-miterlimit:10;" d="
						M355.53,402.845c0,1.241-1.811,2.247-4.045,2.247s-4.045-1.006-4.045-2.247s1.811-2.247,4.045-2.247
						S355.53,401.604,355.53,402.845z"/>
				</g>
				<g>
					<path style="fill:#FFFFFF;stroke:#263238;stroke-linecap:round;stroke-linejoin:round;stroke-miterlimit:10;" d="
						M382.046,403.519c0,1.241-1.811,2.247-4.045,2.247c-2.234,0-4.045-1.006-4.045-2.247s1.811-2.247,4.045-2.247
						C380.235,401.272,382.046,402.278,382.046,403.519z"/>
				</g>
				<g>
					
						<ellipse style="fill:#FFFFFF;stroke:#263238;stroke-linecap:round;stroke-linejoin:round;stroke-miterlimit:10;" cx="361.148" cy="402.396" rx="4.045" ry="2.247"/>
				</g>
				<g>
					
						<ellipse style="fill:#FFFFFF;stroke:#263238;stroke-linecap:round;stroke-linejoin:round;stroke-miterlimit:10;" cx="367.215" cy="402.396" rx="4.045" ry="2.247"/>
				</g>
			</g>
		</g>
		<g>
			<g>
				
					<ellipse style="fill:#FFFFFF;stroke:#263238;stroke-linecap:round;stroke-linejoin:round;stroke-miterlimit:10;" cx="402.044" cy="398.351" rx="4.045" ry="2.247"/>
			</g>
			<g>
				<path style="fill:#FFFFFF;stroke:#263238;stroke-linecap:round;stroke-linejoin:round;stroke-miterlimit:10;" d="
					M378.675,399.25c0,1.241-1.811,2.247-4.045,2.247c-2.234,0-4.045-1.006-4.045-2.247s1.811-2.247,4.045-2.247
					C376.864,397.003,378.675,398.009,378.675,399.25z"/>
			</g>
			<g>
				<g>
					<path style="fill:#FFFFFF;stroke:#263238;stroke-linecap:round;stroke-linejoin:round;stroke-miterlimit:10;" d="
						M382.495,400.598c0,1.241-1.811,2.247-4.045,2.247c-2.234,0-4.045-1.006-4.045-2.247c0-1.241,1.811-2.247,4.045-2.247
						C380.684,398.351,382.495,399.357,382.495,400.598z"/>
				</g>
				<g>
					<path style="fill:#FFFFFF;stroke:#263238;stroke-linecap:round;stroke-linejoin:round;stroke-miterlimit:10;" d="
						M395.079,399.699c0,1.241-1.811,2.247-4.045,2.247c-2.234,0-4.045-1.006-4.045-2.247s1.811-2.247,4.045-2.247
						C393.268,397.452,395.079,398.458,395.079,399.699z"/>
				</g>
				<g>
					<path style="fill:#FFFFFF;stroke:#263238;stroke-linecap:round;stroke-linejoin:round;stroke-miterlimit:10;" d="
						M388.337,399.25c0,1.241-1.811,2.247-4.045,2.247c-2.234,0-4.045-1.006-4.045-2.247s1.811-2.247,4.045-2.247
						C386.527,397.003,388.337,398.009,388.337,399.25z"/>
				</g>
				<g>
					<path style="fill:#FFFFFF;stroke:#263238;stroke-linecap:round;stroke-linejoin:round;stroke-miterlimit:10;" d="
						M402.044,401.048c0,1.241-1.811,2.247-4.045,2.247s-4.045-1.006-4.045-2.247s1.811-2.247,4.045-2.247
						S402.044,399.807,402.044,401.048z"/>
				</g>
				<g>
					<path style="fill:#FFFFFF;stroke:#263238;stroke-linecap:round;stroke-linejoin:round;stroke-miterlimit:10;" d="
						M412.156,401.272c0,1.241-1.811,2.247-4.045,2.247c-2.234,0-4.045-1.006-4.045-2.247s1.811-2.247,4.045-2.247
						C410.345,399.025,412.156,400.031,412.156,401.272z"/>
				</g>
				<g>
					<path style="fill:#FFFFFF;stroke:#263238;stroke-linecap:round;stroke-linejoin:round;stroke-miterlimit:10;" d="
						M373.282,401.722c0,1.241-1.811,2.247-4.045,2.247c-2.234,0-4.045-1.006-4.045-2.247s1.811-2.247,4.045-2.247
						C371.471,399.475,373.282,400.481,373.282,401.722z"/>
				</g>
				<g>
					<path style="fill:#FFFFFF;stroke:#263238;stroke-linecap:round;stroke-linejoin:round;stroke-miterlimit:10;" d="
						M378.45,402.845c0,1.241-1.811,2.247-4.045,2.247s-4.045-1.006-4.045-2.247s1.811-2.247,4.045-2.247
						S378.45,401.604,378.45,402.845z"/>
				</g>
				<g>
					<path style="fill:#FFFFFF;stroke:#263238;stroke-linecap:round;stroke-linejoin:round;stroke-miterlimit:10;" d="
						M404.966,403.519c0,1.241-1.811,2.247-4.045,2.247s-4.045-1.006-4.045-2.247s1.811-2.247,4.045-2.247
						S404.966,402.278,404.966,403.519z"/>
				</g>
				<g>
					
						<ellipse style="fill:#FFFFFF;stroke:#263238;stroke-linecap:round;stroke-linejoin:round;stroke-miterlimit:10;" cx="384.068" cy="402.396" rx="4.045" ry="2.247"/>
				</g>
				<g>
					
						<ellipse style="fill:#FFFFFF;stroke:#263238;stroke-linecap:round;stroke-linejoin:round;stroke-miterlimit:10;" cx="390.135" cy="402.396" rx="4.045" ry="2.247"/>
				</g>
			</g>
		</g>
	</g>
</g>
<g id="Character">
	<polygon style="fill:#263238;stroke:#263238;stroke-linecap:round;stroke-linejoin:round;stroke-miterlimit:10;" points="
		352.299,411.144 130.362,411.144 174.749,389.687 307.911,389.687 	"/>
	<g>
		<g>
			<defs>
				<path id="XMLID_24_" d="M237.341,259.701c0,0,0.896,13.613-0.358,15.941c-1.254,2.328-9.135,4.12-13.792,4.836
					c-4.657,0.717-11.284,1.075-13.075,4.299c-1.791,3.224-1.433,10.568,0.895,16.12c2.329,5.553,13.255,34.39,13.255,34.39
					l-13.971,33.674c0,0,19.524,23.643,31.524,27.047c12.001,3.403,28.121-8.418,31.703-13.255
					c3.582-4.836,3.762-10.389,3.762-10.389l-13.792-38.868c0,0,12.508-29.778,13.404-35.868c0.896-6.09,1.466-13.163-3.012-15.133
					c-4.478-1.97-13.974-3.271-16.84-4.704c-2.866-1.433-3.94-2.149-4.12-5.911c-0.179-3.762,0.179-12.001,0.179-12.001
					S241.819,262.209,237.341,259.701z"/>
			</defs>
			<use xlink:href="#XMLID_24_"  style="overflow:visible;fill:#FFFFFF;"/>
			<clipPath id="XMLID_00000017505092691830527100000005282258032138902179_">
				<use xlink:href="#XMLID_24_"  style="overflow:visible;"/>
			</clipPath>
			<path style="clip-path:url(#XMLID_00000017505092691830527100000005282258032138902179_);fill:#15C0B6;" d="M252.924,271.881
				c-0.179-3.762,0.179-12.001,0.179-12.001s-11.284,2.329-15.762-0.179c0,0,0.722,10.989-0.041,14.907
				c1.356,0.902,3.445,1.873,6.496,2.271c3.376,0.44,7.053-0.677,9.771-1.823C253.191,274.299,252.992,273.311,252.924,271.881z"/>
			<path style="opacity:0.5;clip-path:url(#XMLID_00000017505092691830527100000005282258032138902179_);fill:#FFFFFF;" d="
				M252.924,271.881c-0.179-3.762,0.179-12.001,0.179-12.001s-11.284,2.329-15.762-0.179c0,0,0.722,10.989-0.041,14.907
				c1.356,0.902,3.445,1.873,6.496,2.271c3.376,0.44,7.053-0.677,9.771-1.823C253.191,274.299,252.992,273.311,252.924,271.881z"/>
			
				<path style="clip-path:url(#XMLID_00000017505092691830527100000005282258032138902179_);fill:none;stroke:#263238;stroke-linecap:round;stroke-linejoin:round;stroke-miterlimit:10;" d="
				M261.714,286.134c0,0-7.596,1.163-10.634,1.628c-3.038,0.465-3.292,2.791-3.292,2.791"/>
			
				<path style="clip-path:url(#XMLID_00000017505092691830527100000005282258032138902179_);fill:none;stroke:#263238;stroke-linecap:round;stroke-linejoin:round;stroke-miterlimit:10;" d="
				M242.471,289.856c0,0-0.253-1.396-2.532-2.326c-2.279-0.93-13.166-1.163-15.445-1.628"/>
			
				<use xlink:href="#XMLID_24_"  style="overflow:visible;fill:none;stroke:#263238;stroke-linecap:round;stroke-linejoin:round;stroke-miterlimit:10;"/>
		</g>
		<g>
			<defs>
				<path id="XMLID_23_" d="M270.862,315.284c-3.36-3.783-7.602-10.255-7.525-17.921c0.066-6.581,0.229-13.41,0.839-17.576
					c-1.18-0.269-2.314-0.53-3.346-0.788c-0.964,6.11-4.24,18.959-14.773,19.162c-10.965,0.211-13.732-13.785-14.409-19.588
					c-0.602,0.189-1.225,0.368-1.86,0.537c-0.012,0.003-0.025,0.007-0.037,0.01c-0.635,0.168-1.276,0.325-1.916,0.471
					c5.753,12.151-6.147,31.527-10.39,37.8c0.198,0.516,0.395,1.031,0.592,1.545c0.048,0.126,0.096,0.251,0.144,0.377
					c0.174,0.456,0.348,0.91,0.521,1.362c0.014,0.038,0.029,0.075,0.043,0.113c0.619,1.62,1.222,3.2,1.79,4.69
					c0.003,0.007,0.005,0.014,0.008,0.021c0.171,0.449,0.338,0.888,0.502,1.317c0.026,0.068,0.053,0.138,0.078,0.206
					c0.337,0.884,0.657,1.725,0.954,2.507c0.055,0.144,0.107,0.282,0.161,0.422c0.583,1.533,1.069,2.813,1.42,3.737
					c0.125,0.33,0.229,0.602,0.317,0.835c0.105,0.277,0.179,0.471,0.227,0.599c0.038,0.1,0.064,0.168,0.064,0.168l-13.971,33.674
					c0,0,19.524,23.643,31.524,27.047c12.001,3.403,28.121-8.418,31.703-13.255c3.582-4.836,3.762-10.389,3.762-10.389
					l-13.792-38.868C263.492,333.497,267.298,324.433,270.862,315.284z"/>
			</defs>
			<use xlink:href="#XMLID_23_"  style="overflow:visible;fill:#15C0B6;"/>
			<clipPath id="XMLID_00000163069876035618645130000000865160397186272651_">
				<use xlink:href="#XMLID_23_"  style="overflow:visible;"/>
			</clipPath>
			<path style="opacity:0.15;clip-path:url(#XMLID_00000163069876035618645130000000865160397186272651_);" d="M263.492,333.497
				c0,0,3.807-9.064,7.371-18.213c-0.745-0.839-1.533-1.817-2.308-2.905c-0.683,0.535-1.388,1.327-2.093,2.456
				c0,0-2.179,6.294-6.052,9.684c-3.874,3.389-10.41,1.695-14.526,1.21c-4.116-0.484-9.684,3.389-13.557-3.873
				c-3.781-7.089-7.101-11.855-10.86-10.954c-1.444,2.544-2.803,4.674-3.805,6.168c-0.039,0.195-0.078,0.39-0.113,0.588
				c0.163,0.426,0.327,0.852,0.489,1.278c0.048,0.126,0.096,0.251,0.144,0.377c0.174,0.456,0.348,0.91,0.521,1.362
				c0.014,0.038,0.029,0.075,0.043,0.113c0.619,1.62,1.222,3.2,1.79,4.689c0.003,0.007,0.005,0.014,0.008,0.021
				c0.171,0.449,0.338,0.888,0.502,1.317c0.026,0.068,0.053,0.138,0.078,0.206c0.337,0.884,0.657,1.725,0.954,2.507
				c0.055,0.144,0.107,0.282,0.161,0.422c0.583,1.533,1.069,2.813,1.42,3.737c0.125,0.33,0.229,0.602,0.317,0.836
				c0.105,0.277,0.179,0.471,0.227,0.599c0.038,0.1,0.064,0.168,0.064,0.168l-7.251,17.476c0.023,0.432,0.252,0.516,0.785,0.08
				c2.663-2.179,8.715-6.294,13.557-2.905c4.842,3.389,8.473,9.926,16.705,6.294c8.231-3.632,8.958-11.621,14.526-10.652
				c2.184,0.38,4.288,1.356,6.045,2.402L263.492,333.497z"/>
			
				<use xlink:href="#XMLID_23_"  style="overflow:visible;fill:none;stroke:#263238;stroke-linecap:round;stroke-linejoin:round;stroke-miterlimit:10;"/>
		</g>
		<g>
			<g>
				<path style="fill:#263238;" d="M266.264,250.253c-0.046-0.008-0.089-0.001-0.133,0.004c1.846-6.963-0.066-15.964-3.356-21.721
					c-4.299-7.523-9.135-11.643-12.896-11.643c-3.762,0-5.015,4.12-5.015,4.12s-1.97-4.299-7.881-4.478
					c-5.911-0.179-15.225,22.21-14.15,31.704c1.075,9.493,9.851,14.329,19.165,15.404s15.583-0.896,21.315-7.702
					c0.712-0.846,1.305-1.789,1.789-2.806c-0.946,3.447-3.135,9.517-7.218,11.678c-0.243,0.129-0.337,0.432-0.207,0.676
					c0.089,0.169,0.263,0.266,0.441,0.266c0.079,0,0.159-0.019,0.234-0.058c6.234-3.301,8.235-14.394,8.317-14.864
					C266.718,250.559,266.537,250.301,266.264,250.253z"/>
				<path style="fill:none;stroke:#FFFFFF;stroke-linecap:round;stroke-linejoin:round;stroke-miterlimit:10;" d="M240.693,222.171
					c0,0-3.661-3.66-6.656,1.664c-2.995,5.325-11.98,20.965-8.652,26.622"/>
				<path style="fill:none;stroke:#FFFFFF;stroke-linecap:round;stroke-linejoin:round;stroke-miterlimit:10;" d="M246.683,223.835
					c0,0,0.998-3.328,5.99-2.662c4.992,0.666,12.499,14.178,12.978,21.631"/>
			</g>
			<g>
				<path style="fill:#FFFFFF;stroke:#263238;stroke-linecap:round;stroke-linejoin:round;stroke-miterlimit:10;" d="
					M232.505,247.879c0,0-1.254-3.045-2.328,0.179c-1.075,3.224,1.254,6.09,2.328,6.986c1.075,0.896,1.791-0.716,1.433-1.791
					C233.579,252.178,232.505,247.879,232.505,247.879z"/>
				<path style="fill:#FFFFFF;stroke:#263238;stroke-linecap:round;stroke-linejoin:round;stroke-miterlimit:10;" d="
					M257.756,247.879c0,0,1.254-3.045,2.328,0.179c1.075,3.224-1.254,6.09-2.328,6.986c-1.075,0.896-1.791-0.716-1.433-1.791
					C256.681,252.178,257.756,247.879,257.756,247.879z"/>
				<g>
					<g>
						<g>
							<defs>
								<path id="XMLID_22_" d="M243.431,222.624c0,0-3.582,1.254-7.165,8.06c-3.582,6.806-4.836,14.508-3.224,22.21
									c1.612,7.702,7.344,12.18,12.896,12.538c5.553,0.358,11.105-6.986,12.18-12.896c1.075-5.911-1.791-19.345-5.194-24.897
									C249.521,222.087,243.431,222.624,243.431,222.624z"/>
							</defs>
							<use xlink:href="#XMLID_22_"  style="overflow:visible;fill:#FFFFFF;"/>
							<clipPath id="XMLID_00000116924775675620935130000007519450470829067912_">
								<use xlink:href="#XMLID_22_"  style="overflow:visible;"/>
							</clipPath>
							<path style="clip-path:url(#XMLID_00000116924775675620935130000007519450470829067912_);fill:#15C0B6;" d="M256.795,241.478
								c0,8.574-0.553,17.977-8.021,20.466c-7.467,2.489-11.616-5.255-13.552-11.893c-1.654-5.672-0.47-14.197,0.058-17.323
								c-2.809,6.286-3.691,13.225-2.238,20.166c1.612,7.702,7.344,12.18,12.896,12.538c5.553,0.358,11.105-6.986,12.18-12.896
								c0.61-3.353-0.051-9.127-1.356-14.51C256.782,239.087,256.795,240.23,256.795,241.478z"/>
							<path style="opacity:0.5;clip-path:url(#XMLID_00000116924775675620935130000007519450470829067912_);fill:#FFFFFF;" d="
								M256.795,241.478c0,8.574-0.553,17.977-8.021,20.466c-7.467,2.489-11.616-5.255-13.552-11.893
								c-1.654-5.672-0.47-14.197,0.058-17.323c-2.809,6.286-3.691,13.225-2.238,20.166c1.612,7.702,7.344,12.18,12.896,12.538
								c5.553,0.358,11.105-6.986,12.18-12.896c0.61-3.353-0.051-9.127-1.356-14.51C256.782,239.087,256.795,240.23,256.795,241.478
								z"/>
							<path style="clip-path:url(#XMLID_00000116924775675620935130000007519450470829067912_);fill:#15C0B6;" d="M243.431,222.624
								c0,0-0.464,6.685,3.961,9.727c4.425,3.042,8.021,2.213,8.021,2.213S245.555,222.577,243.431,222.624z"/>
							<path style="opacity:0.5;clip-path:url(#XMLID_00000116924775675620935130000007519450470829067912_);fill:#FFFFFF;" d="
								M243.431,222.624c0,0-0.464,6.685,3.961,9.727c4.425,3.042,8.021,2.213,8.021,2.213S245.555,222.577,243.431,222.624z"/>
							
								<use xlink:href="#XMLID_22_"  style="overflow:visible;fill:none;stroke:#263238;stroke-linecap:round;stroke-linejoin:round;stroke-miterlimit:10;"/>
						</g>
						<g>
							<path style="fill:none;stroke:#263238;stroke-linecap:round;stroke-linejoin:round;stroke-miterlimit:10;" d="
								M246.476,240.536c0,0-0.358,1.075,0,2.149c0.358,1.075,2.866,1.254,2.149,2.687c-0.717,1.433-1.97,2.149-1.97,2.149"/>
							
								<line style="fill:none;stroke:#263238;stroke-linecap:round;stroke-linejoin:round;stroke-miterlimit:10;" x1="244.685" y1="252.178" x2="247.192" y2="252.178"/>
							<path style="fill:none;stroke:#263238;stroke-linecap:round;stroke-linejoin:round;stroke-miterlimit:10;" d="
								M248.983,241.61c0,0,2.328-1.433,4.299,0"/>
							<path style="fill:none;stroke:#263238;stroke-linecap:round;stroke-linejoin:round;stroke-miterlimit:10;" d="
								M237.341,241.61c0,0,2.328-1.433,4.299,0"/>
							<path style="fill:none;stroke:#263238;stroke-linecap:round;stroke-linejoin:round;stroke-miterlimit:10;" d="
								M235.729,237.312c0,0,2.508-2.687,6.269-1.254"/>
							<path style="fill:none;stroke:#263238;stroke-linecap:round;stroke-linejoin:round;stroke-miterlimit:10;" d="
								M247.73,236.237c0,0,2.687-2.149,6.09,0.358"/>
						</g>
					</g>
					<path style="fill:#263238;stroke:#263238;stroke-linecap:round;stroke-linejoin:round;stroke-miterlimit:10;" d="
						M243.431,222.624c0,0,3.941,4.836,8.06,8.598c4.12,3.761,8.777,3.224,8.777,3.224s-3.045-6.627-8.239-10.21
						C246.834,220.654,243.431,222.624,243.431,222.624z"/>
				</g>
			</g>
		</g>
		<g>
			<defs>
				<path id="XMLID_21_" d="M218.144,281.944c0,0-7.444-1.063-10.634,5.317c-3.19,6.38-6.646,38.281-6.646,38.281
					s-3.988,2.659-8.507,5.317c-4.519,2.658-13.292,8.241-17.812,9.836c-4.519,1.595-8.507,2.924-8.507,2.924
					s-2.393-4.254-2.658-5.583c-0.266-1.329-3.19-1.861-4.519-3.19c-1.329-1.329-3.19-3.456-3.19-1.329
					c0,2.127-0.266,3.456,1.861,4.254c2.127,0.797,3.722,3.722,3.722,3.722s-11.697-0.133-10.9,0.93
					c0.798,1.063,2.658,3.323,5.849,5.184c3.19,1.861,8.773,3.456,13.558,3.456s35.091-9.836,37.484-12.495
					c2.393-2.658,10.102-30.838,10.102-30.838"/>
			</defs>
			<use xlink:href="#XMLID_21_"  style="overflow:visible;fill:#FFFFFF;"/>
			<clipPath id="XMLID_00000082352533664083941510000016469059076695296390_">
				<use xlink:href="#XMLID_21_"  style="overflow:visible;"/>
			</clipPath>
			<path style="clip-path:url(#XMLID_00000082352533664083941510000016469059076695296390_);fill:#15C0B6;" d="M163.762,350.356
				c1.99,0.436,4.057,0.707,5.998,0.707c4.785,0,35.091-9.836,37.484-12.495c2.393-2.658,10.102-30.838,10.102-30.838l0.114-3.688
				l-2.428-3.102c0,0-9.127,29.593-10.786,32.359c-1.659,2.766-20.743,10.233-29.87,13.552
				C170.4,348.298,166.688,349.481,163.762,350.356z"/>
			<path style="opacity:0.5;clip-path:url(#XMLID_00000082352533664083941510000016469059076695296390_);fill:#FFFFFF;" d="
				M163.762,350.356c1.99,0.436,4.057,0.707,5.998,0.707c4.785,0,35.091-9.836,37.484-12.495
				c2.393-2.658,10.102-30.838,10.102-30.838l0.114-3.688l-2.428-3.102c0,0-9.127,29.593-10.786,32.359
				c-1.659,2.766-20.743,10.233-29.87,13.552C170.4,348.298,166.688,349.481,163.762,350.356z"/>
			
				<use xlink:href="#XMLID_21_"  style="overflow:visible;fill:none;stroke:#263238;stroke-linecap:round;stroke-linejoin:round;stroke-miterlimit:10;"/>
		</g>
		<path style="fill:#FFFFFF;stroke:#263238;stroke-linecap:round;stroke-linejoin:round;stroke-miterlimit:10;" d="M152.31,344.349
			c0,0-1.831-0.855-2.564-1.831c-0.732-0.977-1.343-4.395-0.732-5.738c0.61-1.343,6.471-3.907,6.471-3.907s0.488,1.343,0.244,2.442
			C155.484,336.413,151.7,338,151.7,338l1.343,4.883"/>
		<path style="fill:#FFFFFF;stroke:#263238;stroke-linecap:round;stroke-linejoin:round;stroke-miterlimit:10;" d="M155.729,344.227
			c-0.977-0.366-2.076-1.953-1.953-3.418s-0.122-4.639-1.099-5.25c-0.977-0.61-1.831,5.128-1.831,6.593s2.442,3.54,2.442,3.54
			s0.991,0.526,1.953,1.221"/>
		<path style="fill:#FFFFFF;stroke:#263238;stroke-linecap:round;stroke-linejoin:round;stroke-miterlimit:10;" d="M158.658,346.913
			c-0.977-0.366-2.075-1.953-1.953-3.418c0.122-1.465-0.122-4.639-1.099-5.25s-1.831,5.128-1.831,6.593s1.831,2.808,1.831,2.808
			c-0.433-0.015,0.821,0.718,3.296,1.465"/>
		<path style="fill:#FFFFFF;stroke:#263238;stroke-linecap:round;stroke-linejoin:round;stroke-miterlimit:10;" d="M161.868,347.219
			c-0.906-0.135-2.142-1.295-2.307-2.575c-0.165-1.28-0.96-3.961-1.911-4.305c-0.951-0.344-0.628,4.74-0.357,5.998
			c0.27,1.258,2.749,2.59,2.749,2.59s0.948,0.269,1.902,0.688"/>
		<g>
			<defs>
				<path id="XMLID_20_" d="M268.336,281.944c0,0,7.444-1.063,10.634,5.317c3.19,6.38,6.646,38.281,6.646,38.281
					s3.988,2.659,8.507,5.317c4.519,2.658,13.292,8.241,17.812,9.836c4.519,1.595,8.507,2.924,8.507,2.924s2.393-4.254,2.658-5.583
					c0.266-1.329,3.19-1.861,4.519-3.19c1.329-1.329,3.19-3.456,3.19-1.329c0,2.127,0.266,3.456-1.861,4.254
					c-2.127,0.797-3.722,3.722-3.722,3.722s11.697-0.133,10.9,0.93c-0.798,1.063-2.659,3.323-5.849,5.184s-8.773,3.456-13.558,3.456
					c-4.785,0-35.091-9.836-37.484-12.495c-2.393-2.658-10.102-30.838-10.102-30.838"/>
			</defs>
			<use xlink:href="#XMLID_20_"  style="overflow:visible;fill:#FFFFFF;"/>
			<clipPath id="XMLID_00000077287727556932986730000014090302479344457600_">
				<use xlink:href="#XMLID_20_"  style="overflow:visible;"/>
			</clipPath>
			<path style="clip-path:url(#XMLID_00000077287727556932986730000014090302479344457600_);fill:#15C0B6;" d="M279.236,338.569
				c2.392,2.658,32.699,12.495,37.484,12.495c1.18,0,2.409-0.099,3.638-0.273c-2.854-0.621-6.16-1.592-9.078-3.109
				c-6.914-3.596-26.828-11.34-29.04-14.658c-2.213-3.319-6.914-25.168-9.68-26.827c-2.766-1.659-0.83,10.233-0.83,10.233v0.464
				C274.198,325.373,277.746,336.914,279.236,338.569z"/>
			<path style="opacity:0.5;clip-path:url(#XMLID_00000077287727556932986730000014090302479344457600_);fill:#FFFFFF;" d="
				M279.236,338.569c2.392,2.658,32.699,12.495,37.484,12.495c1.18,0,2.409-0.099,3.638-0.273c-2.854-0.621-6.16-1.592-9.078-3.109
				c-6.914-3.596-26.828-11.34-29.04-14.658c-2.213-3.319-6.914-25.168-9.68-26.827c-2.766-1.659-0.83,10.233-0.83,10.233v0.464
				C274.198,325.373,277.746,336.914,279.236,338.569z"/>
			
				<use xlink:href="#XMLID_20_"  style="overflow:visible;fill:none;stroke:#263238;stroke-linecap:round;stroke-linejoin:round;stroke-miterlimit:10;"/>
		</g>
		<path style="fill:#FFFFFF;stroke:#263238;stroke-linecap:round;stroke-linejoin:round;stroke-miterlimit:10;" d="M334.17,344.349
			c0,0,1.831-0.855,2.564-1.831c0.733-0.977,1.343-4.395,0.733-5.738c-0.61-1.343-6.47-3.907-6.47-3.907s-0.488,1.343-0.244,2.442
			c0.244,1.099,4.029,2.686,4.029,2.686l-1.343,4.883"/>
		<path style="fill:#FFFFFF;stroke:#263238;stroke-linecap:round;stroke-linejoin:round;stroke-miterlimit:10;" d="M330.751,344.227
			c0.977-0.366,2.076-1.953,1.953-3.418s0.122-4.639,1.099-5.25c0.977-0.61,1.831,5.128,1.831,6.593s-2.442,3.54-2.442,3.54
			s-0.991,0.526-1.953,1.221"/>
		<path style="fill:#FFFFFF;stroke:#263238;stroke-linecap:round;stroke-linejoin:round;stroke-miterlimit:10;" d="M327.821,346.913
			c0.977-0.366,2.075-1.953,1.953-3.418c-0.122-1.465,0.122-4.639,1.099-5.25c0.977-0.61,1.831,5.128,1.831,6.593
			s-1.831,2.808-1.831,2.808c0.433-0.015-0.821,0.718-3.296,1.465"/>
		<path style="fill:#FFFFFF;stroke:#263238;stroke-linecap:round;stroke-linejoin:round;stroke-miterlimit:10;" d="M324.612,347.219
			c0.906-0.135,2.142-1.295,2.307-2.575c0.165-1.28,0.96-3.961,1.911-4.305c0.951-0.344,0.628,4.74,0.358,5.998
			c-0.27,1.258-2.749,2.59-2.749,2.59s-0.948,0.269-1.902,0.688"/>
		<g>
			<defs>
				<path id="XMLID_19_" d="M273.522,382.754c3.582-4.836,3.762-10.389,3.762-10.389l-3.016-8.5
					c-24.534,4.308-52.174,0.984-61.685-0.419l-2.288,5.515c0,0,19.524,23.643,31.524,27.047
					C253.82,399.411,269.94,387.59,273.522,382.754z"/>
			</defs>
			<use xlink:href="#XMLID_19_"  style="overflow:visible;fill:#FFFFFF;"/>
			<clipPath id="XMLID_00000054951215493091128560000016065865764492149124_">
				<use xlink:href="#XMLID_19_"  style="overflow:visible;"/>
			</clipPath>
			<path style="opacity:0.3;clip-path:url(#XMLID_00000054951215493091128560000016065865764492149124_);" d="M273.522,382.754
				c3.582-4.836,3.762-10.389,3.762-10.389l-3.016-8.5c-24.534,4.308-52.174,0.984-61.685-0.419l-2.288,5.515
				c0,0,19.524,23.643,31.524,27.047C253.82,399.411,269.94,387.59,273.522,382.754z"/>
			
				<use xlink:href="#XMLID_19_"  style="overflow:visible;fill:none;stroke:#263238;stroke-linecap:round;stroke-linejoin:round;stroke-miterlimit:10;"/>
		</g>
		<g>
			<defs>
				<path id="XMLID_18_" d="M257.716,381.869c0,0,20.958-17.808,38.288-24.659c0,0,17.531-8.463,21.158-1.814
					c3.627,6.65-13.501,26.599-18.942,30.025c-5.441,3.426-18.337,9.874-27.204,11.687s-18.991,2.293-24.382-0.605"/>
			</defs>
			<use xlink:href="#XMLID_18_"  style="overflow:visible;fill:#FFFFFF;"/>
			<clipPath id="XMLID_00000075879843377733035200000012673835148251513263_">
				<use xlink:href="#XMLID_18_"  style="overflow:visible;"/>
			</clipPath>
			<path style="opacity:0.3;clip-path:url(#XMLID_00000075879843377733035200000012673835148251513263_);" d="M257.113,381.794
				c0,0,21.561-17.733,38.891-24.584c0,0,17.531-8.463,21.158-1.814c3.627,6.65-13.501,26.599-18.942,30.025
				c-5.441,3.426-18.337,9.874-27.204,11.687s-18.991,2.293-24.382-0.605"/>
			<path style="opacity:0.3;clip-path:url(#XMLID_00000075879843377733035200000012673835148251513263_);" d="M251.317,396.377
				c0,0,15.953-1.519,29.879-7.343c13.927-5.824,18.485-6.837,18.485-6.837s-10.382,8.862-18.738,12.408
				c-8.356,3.545-17.219,4.811-24.815,4.811c-7.597,0-13.167-2.532-13.167-2.532L251.317,396.377z"/>
			
				<use xlink:href="#XMLID_18_"  style="overflow:visible;fill:none;stroke:#263238;stroke-linecap:round;stroke-linejoin:round;stroke-miterlimit:10;"/>
		</g>
		<g>
			<defs>
				<path id="XMLID_17_" d="M241.243,393.607c0,0,19.075-6.746,30.474-18.377c11.399-11.631,33.498-25.124,40.942-23.728
					c7.444,1.396,9.305,4.42,6.513,13.027c-2.792,8.607-14.888,20.006-26.287,23.728c-11.399,3.722-32.8,7.677-41.407,9.305
					c-8.607,1.628-12.794,3.722-23.262,3.722c-10.468,0-21.634-0.698-24.658-6.746c-3.024-6.048,1.861-5.816,12.562-3.722
					C226.82,392.909,241.243,393.607,241.243,393.607z"/>
			</defs>
			<use xlink:href="#XMLID_17_"  style="overflow:visible;fill:#FFFFFF;"/>
			<clipPath id="XMLID_00000104693280334143482180000011048888744273112233_">
				<use xlink:href="#XMLID_17_"  style="overflow:visible;"/>
			</clipPath>
			<path style="opacity:0.3;clip-path:url(#XMLID_00000104693280334143482180000011048888744273112233_);" d="M241.243,393.607
				c0,0,19.075-6.746,30.474-18.377c11.399-11.631,33.498-25.124,40.942-23.728c7.444,1.396,9.305,4.42,6.513,13.027
				c-2.792,8.607-14.888,20.006-26.287,23.728c-11.399,3.722-32.8,7.677-41.407,9.305c-8.607,1.628-12.794,3.722-23.262,3.722
				c-10.468,0-21.634-0.698-24.658-6.746c-3.024-6.048,1.861-5.816,12.562-3.722C226.82,392.909,241.243,393.607,241.243,393.607z"
				/>
			<path style="opacity:0.3;clip-path:url(#XMLID_00000104693280334143482180000011048888744273112233_);" d="M317.154,352.571
				c0,0,1.519,5.571-4.052,13.421c-5.571,7.85-29.12,16.965-42.034,21.777c-12.914,4.811-32.158,8.356-32.158,8.356l10.635,1.772
				c0,0,34.266-5.607,43.341-9.64c9.075-4.034,18.191-10.87,23.255-17.454C321.205,364.219,323.99,356.369,317.154,352.571z"/>
			
				<use xlink:href="#XMLID_17_"  style="overflow:visible;fill:none;stroke:#263238;stroke-linecap:round;stroke-linejoin:round;stroke-miterlimit:10;"/>
		</g>
		<g>
			<defs>
				<path id="XMLID_16_" d="M241.168,393.603c-1.069-0.054-14.772-0.777-25.049-2.788c-10.701-2.094-15.586-2.326-12.562,3.722
					c3.024,6.048,14.19,6.746,24.658,6.746c6.43,0,10.49-0.791,14.66-1.778C241.53,397.613,241.206,395.229,241.168,393.603z"/>
			</defs>
			<use xlink:href="#XMLID_16_"  style="overflow:visible;fill:#FFFFFF;"/>
			<clipPath id="XMLID_00000149363944879407205320000001267829231090842016_">
				<use xlink:href="#XMLID_16_"  style="overflow:visible;"/>
			</clipPath>
			<path style="clip-path:url(#XMLID_00000149363944879407205320000001267829231090842016_);fill:#15C0B6;" d="M241.168,393.603
				c-1.069-0.054-14.772-0.777-25.049-2.788c-10.701-2.094-15.586-2.326-12.562,3.722c3.024,6.048,14.19,6.746,24.658,6.746
				c6.43,0,10.49-0.791,14.66-1.778C241.53,397.613,241.206,395.229,241.168,393.603z"/>
			<path style="opacity:0.5;clip-path:url(#XMLID_00000149363944879407205320000001267829231090842016_);fill:#FFFFFF;" d="
				M241.168,393.603c-1.069-0.054-14.772-0.777-25.049-2.788c-10.701-2.094-15.586-2.326-12.562,3.722
				c3.024,6.048,14.19,6.746,24.658,6.746c6.43,0,10.49-0.791,14.66-1.778C241.53,397.613,241.206,395.229,241.168,393.603z"/>
			
				<use xlink:href="#XMLID_16_"  style="overflow:visible;fill:none;stroke:#263238;stroke-linecap:round;stroke-linejoin:round;stroke-miterlimit:10;"/>
		</g>
		<g>
			<defs>
				<path id="XMLID_15_" d="M235.276,381.119c-13.725-11.399-47.537-34.037-55.911-34.037c-8.375,0-11.631,9.538-11.631,9.538
					s-0.93,3.489,6.048,10.236c6.979,6.746,28.38,24.891,45.129,29.311c16.749,4.42,20.936,2.326,20.936,2.326"/>
			</defs>
			<use xlink:href="#XMLID_15_"  style="overflow:visible;fill:#FFFFFF;"/>
			<clipPath id="XMLID_00000002348083821799575060000001265218481709897648_">
				<use xlink:href="#XMLID_15_"  style="overflow:visible;"/>
			</clipPath>
			<path style="opacity:0.3;clip-path:url(#XMLID_00000002348083821799575060000001265218481709897648_);" d="M235.893,381.045
				c-13.725-11.399-48.153-33.963-56.528-33.963c-8.375,0-11.631,9.538-11.631,9.538s-0.93,3.489,6.048,10.236
				c6.979,6.746,28.38,24.891,45.129,29.311c16.749,4.42,20.936,2.326,20.936,2.326"/>
			
				<use xlink:href="#XMLID_15_"  style="overflow:visible;fill:none;stroke:#263238;stroke-linecap:round;stroke-linejoin:round;stroke-miterlimit:10;"/>
		</g>
		<g>
			<defs>
				<path id="XMLID_14_" d="M186.691,356.711c0,0,17.546,7.844,23.604,12.25c6.058,4.407,19.783,17.201,27.227,21.156
					c7.444,3.955,14.19,6.746,19.308,6.746c5.118,0,29.776-3.257,33.731-1.163c3.955,2.094-2.094,6.979-7.444,8.84
					c-5.35,1.861-25.123-2.326-32.102-2.792c-6.979-0.465-30.474-3.722-46.758-9.305c-16.284-5.583-34.661-26.752-36.755-30.706
					c-2.094-3.955,1.749-8.244,1.749-8.244"/>
			</defs>
			<use xlink:href="#XMLID_14_"  style="overflow:visible;fill:#FFFFFF;"/>
			<clipPath id="XMLID_00000080192882704923897320000011150760781823456164_">
				<use xlink:href="#XMLID_14_"  style="overflow:visible;"/>
			</clipPath>
			<path style="opacity:0.3;clip-path:url(#XMLID_00000080192882704923897320000011150760781823456164_);" d="M187.274,356.62
				c0,0,16.963,7.936,23.02,12.342c6.058,4.407,19.783,17.201,27.227,21.156c7.444,3.955,14.19,6.746,19.308,6.746
				c5.118,0,29.776-3.257,33.731-1.163c3.955,2.094-2.094,6.979-7.444,8.84c-5.35,1.861-25.123-2.326-32.102-2.792
				c-6.979-0.465-30.474-3.722-46.758-9.305c-16.284-5.583-34.661-26.752-36.755-30.706c-2.094-3.955,3.024-8.84,3.024-8.84"/>
			<path style="opacity:0.3;clip-path:url(#XMLID_00000080192882704923897320000011150760781823456164_);" d="M168.263,354.09
				c0,0,1.266,6.33,11.141,14.18c9.875,7.85,49.883,23.802,60.012,26.335c10.129,2.532,17.725,2.532,18.485,3.039
				c0.76,0.506,1.772,4.305-2.532,4.558c-4.305,0.253-22.789-1.013-39.248-4.811c-16.459-3.798-32.918-14.94-38.995-20.764
				c-6.077-5.824-11.142-12.408-11.648-16.459C164.971,356.116,168.263,354.09,168.263,354.09z"/>
			
				<use xlink:href="#XMLID_14_"  style="overflow:visible;fill:none;stroke:#263238;stroke-linecap:round;stroke-linejoin:round;stroke-miterlimit:10;"/>
		</g>
		<g>
			<defs>
				<path id="XMLID_13_" d="M290.559,395.701c-3.955-2.094-28.613,1.163-33.731,1.163c-0.768,0-1.577-0.07-2.415-0.19
					c-0.068,1.677-0.416,3.711-1.482,5.256c8.145,0.919,25.262,4.323,30.184,2.611C288.466,402.679,294.514,397.794,290.559,395.701
					z"/>
			</defs>
			<use xlink:href="#XMLID_13_"  style="overflow:visible;fill:#FFFFFF;"/>
			<clipPath id="XMLID_00000172433452276417837680000014014156058275478969_">
				<use xlink:href="#XMLID_13_"  style="overflow:visible;"/>
			</clipPath>
			<path style="clip-path:url(#XMLID_00000172433452276417837680000014014156058275478969_);fill:#15C0B6;" d="M290.559,395.701
				c-3.955-2.094-28.613,1.163-33.731,1.163c-0.768,0-1.577-0.07-2.415-0.19c-0.068,1.677-0.416,3.711-1.482,5.256
				c8.145,0.919,25.262,4.323,30.184,2.611C288.466,402.679,294.514,397.794,290.559,395.701z"/>
			<path style="opacity:0.5;clip-path:url(#XMLID_00000172433452276417837680000014014156058275478969_);fill:#FFFFFF;" d="
				M290.559,395.701c-3.955-2.094-28.613,1.163-33.731,1.163c-0.768,0-1.577-0.07-2.415-0.19c-0.068,1.677-0.416,3.711-1.482,5.256
				c8.145,0.919,25.262,4.323,30.184,2.611C288.466,402.679,294.514,397.794,290.559,395.701z"/>
			
				<use xlink:href="#XMLID_13_"  style="overflow:visible;fill:none;stroke:#263238;stroke-linecap:round;stroke-linejoin:round;stroke-miterlimit:10;"/>
		</g>
		<g>
			<path style="fill:#263238;stroke:#263238;stroke-linecap:round;stroke-linejoin:round;stroke-miterlimit:10;" d="
				M234.833,262.388c0,0-4.836,5.374-14.15,13.613c-9.314,8.239-8.777,28.121-5.911,33.674c2.866,5.553,9.672,5.911,10.568,10.568
				c0.896,4.657,3.045,13.075,7.344,16.837c4.299,3.761,13.255,6.269,15.046-8.598c1.791-14.867-4.011-27.365-8.131-34.53
				c-4.12-7.165-2.437-30.848-2.437-30.848L234.833,262.388z"/>
			<path style="fill:none;stroke:#FFFFFF;stroke-linecap:round;stroke-linejoin:round;stroke-miterlimit:10;" d="M223.284,282.331
				c-4.794,6.937-8.387,15.578-2.89,22.369c5.657,6.988,18.303,16.972,17.97,24.626c-0.333,7.654-6.323,4.992-8.319-1.331"/>
			<path style="fill:none;stroke:#FFFFFF;stroke-linecap:round;stroke-linejoin:round;stroke-miterlimit:10;" d="M235.369,263.435
				c-0.649,4.352-3.3,8.329-6.181,11.53c-0.895,0.995-1.871,2.116-2.863,3.335"/>
			<path style="fill:none;stroke:#FFFFFF;stroke-linecap:round;stroke-linejoin:round;stroke-miterlimit:10;" d="M244.072,319.667
				c0.49,1.262,0.823,2.587,0.948,4.002"/>
			<path style="fill:none;stroke:#FFFFFF;stroke-linecap:round;stroke-linejoin:round;stroke-miterlimit:10;" d="M235.036,271.422
				c0,0-8.652,10.649-6.988,22.962c1.251,9.259,9.653,14.754,14.168,21.722"/>
		</g>
	</g>
</g>
</svg>
