<svg width="343" height="161" viewBox="0 0 343 161" fill="none" xmlns="http://www.w3.org/2000/svg">
<path d="M342.2 32.9564C342.018 32.5311 341.643 32.4045 341.313 32.2549C340.477 31.993 339.628 32.2001 338.783 32.2231C338.794 32.2231 338.804 32.2231 338.815 32.2237C338.799 32.2237 338.783 32.2242 338.767 32.2242C338.767 32.2242 338.763 32.2248 338.761 32.2248C338.526 32.2336 338.517 32.2292 338.596 32.2264C337.405 32.2374 336.213 32.2489 335.022 32.2599C332.962 32.1667 325.651 32.039 321.736 31.8478C313.427 30.6202 305.075 30.3819 296.721 30.697C294.226 30.8564 292.154 30.6471 289.729 30.532C291.176 30.3035 292.625 30.0876 294.075 29.9007C292.233 29.9665 290.39 30.069 288.548 30.2103C288.175 29.9692 287.798 29.7369 287.414 29.5221C285.956 28.5077 284.146 26.3502 281.914 25.1227C278.632 23.2464 275.492 20.9645 272.116 19.3577C268.773 17.4529 265.58 15.1102 262.264 13.1193C256.584 9.35236 251.046 5.03358 244.857 2.8361C242.711 2.03273 240.511 1.51158 238.318 0.983855C235.935 0.401879 233.529 -0.129682 231.096 0.0281424C230.33 0.0330744 228.524 0.883571 229.068 1.96258C232.281 5.9027 235.978 9.43566 239.744 12.4656C245.34 16.3443 251.045 19.9797 256.917 23.0924C260.937 25.6976 265.051 28.1718 269.434 29.5336C270.979 30.0427 272.76 30.4602 274.511 30.8033C272.858 31.497 271.206 32.1957 269.557 32.9016C269.093 32.9701 268.63 33.0397 268.168 33.1246C264.769 33.728 261.346 34.1318 257.988 35.0629C255.187 35.7999 251.228 37.034 248.961 37.4204C247.426 37.6149 245.646 37.4116 243.841 37.131C241.806 36.6236 239.811 35.869 237.738 35.6235C236.838 35.4881 235.889 35.3402 234.914 35.1785C234.342 34.7445 233.799 34.2557 233.312 33.6704C231.21 30.0092 229.638 25.7891 226.99 22.6874C224.109 19.0596 220.432 16.8068 217.03 14.1501C213.698 11.7258 210.513 8.92547 206.963 7.05241C202.237 4.3431 197.082 3.11338 191.94 2.91829C189.158 2.85637 186.348 2.68923 183.586 3.18079C182.666 3.43068 180.921 4.29213 181.513 5.82269C182.104 6.50495 183.145 7.3971 184.428 8.59558C186.832 10.8583 189.202 13.1906 191.682 15.3097C194.21 17.4819 196.964 19.0947 199.595 21.0209C205.158 25.5145 210.528 30.6827 216.72 33.6205C222.79 36.6806 229.273 37.6182 235.689 38.586C237.14 38.7827 238.284 39.1559 240.682 39.8338C242.354 40.1872 244.048 40.3177 245.74 40.3549C246.776 40.3719 247.806 40.2705 248.832 40.1028C247.779 40.8558 246.714 41.5802 245.639 42.2811C241.477 44.3564 237.372 46.6355 233.326 49.0676C231.692 49.8205 230.05 50.54 228.396 51.2009C225.178 52.5698 221.634 54.0209 219.044 54.3843C216.079 54.9021 213.492 54.5388 210.283 54.45C205.528 54.4572 198.825 53.4729 195.168 52.7036C191.795 52.1216 188.97 51.5149 185.419 50.1121C184.305 49.6665 183.226 49.0785 182.131 48.5464C182.673 47.6828 182.861 46.6268 182.365 45.4645C182.486 43.4533 181.827 41.4016 180.295 40.5681C177.846 39.4354 174.431 40.8119 173.529 44.2079C173.224 45.4486 172.97 47.0016 173.491 48.1908C174.466 50.1756 176.437 51.0026 178.173 50.8683C179.352 50.8458 180.965 50.0863 181.901 48.8758C182.646 49.3799 183.379 49.9203 184.116 50.4326C185.765 51.333 187.441 52.1342 189.158 52.7863C193.174 54.2029 197.296 55.1142 201.398 56.0058C203.438 56.3351 205.498 56.4858 207.549 56.6404C210.843 56.8256 214.165 57.1829 217.452 56.7971C212.632 59.0198 207.784 61.1258 202.865 62.9676C196.792 65.4418 190.507 67.8831 183.138 68.3024C178.878 68.6619 174.615 68.2794 170.358 68.0119C167.947 67.8284 165.504 68.0996 163.116 67.5286C160.188 66.3405 157.333 64.8193 154.449 63.4306C153.124 62.4021 151.799 61.3724 150.471 60.3509C148.389 58.8127 146.266 57.3709 144.18 55.8452C145.022 56.2551 145.869 56.647 146.725 57.0021C147.315 57.2514 147.905 57.5002 148.495 57.7512C145.195 55.7088 141.863 53.5151 139.133 50.294C137.411 47.9491 136.913 44.7592 135.633 41.5424C134.243 37.2182 132.379 33.1997 130.586 29.1472C129.849 27.444 129.017 25.8198 128.156 24.2202C127.525 22.9795 126.885 21.7235 126.014 20.7436C124.222 18.7352 121.943 17.7883 119.831 16.518C115.36 13.8071 110.271 14.429 105.561 15.5579C102.804 16.3103 99.8424 16.9526 97.7391 19.6098C97.4577 19.8351 97.1852 20.3573 97.451 20.7365C102.816 28.791 109.409 35.2448 115.89 41.6718C117.749 43.5015 121.264 46.8624 122.352 47.925C124.658 50.2343 127.061 52.3879 129.764 53.8242C136.874 57.9698 144.116 61.6809 151.456 65.0659C153.514 66.0517 155.572 67.0365 157.629 68.0229C158.902 68.641 160.148 69.4203 161.504 69.6647C164.025 70.2341 166.592 69.9891 169.135 70.1743C173.489 70.462 177.851 70.793 182.21 70.4653C188.156 70.1875 193.976 68.5018 199.679 66.3745C206.802 63.5342 213.951 60.8156 220.92 57.3687C219.013 58.7211 217.114 60.0939 215.219 61.4748C216.329 60.5175 217.432 59.5497 218.529 58.5743C214.873 61.3313 211.155 63.9529 207.387 66.443C204.761 68.0169 202.109 69.5261 199.43 70.9498C198.351 71.4265 197.204 71.8962 195.893 72.414C194.247 73.1341 192.821 73.6783 191.43 74.1736C191.8 73.9676 192.169 73.755 192.535 73.5336C199.217 69.8631 205.838 66.0221 212.287 61.6907C204.239 66.2479 196.443 70.1442 188.13 74.2652C183.923 75.936 179.735 77.6885 175.544 79.4279C173.508 80.0044 171.431 80.5918 169.535 81.1859C169.063 81.3459 168.541 81.547 168.019 81.7651C165.112 82.1876 162.195 82.5361 159.27 82.8381C157.134 82.9658 154.998 83.0989 152.863 83.225C150.908 83.2688 148.96 83.4502 147.013 83.6502C146.561 83.6349 146.11 83.6118 145.658 83.5729C140.778 83.1965 136.021 81.7125 131.267 80.3222C124.7 78.5681 118.046 77.0106 111.713 74.0783C108.433 72.4091 105.485 69.8165 102.223 68.1106C96.9085 65.4692 91.5194 63.0191 86.4472 59.6325C80.5164 55.5241 74.9544 50.5696 69.3283 45.7971C65.3945 42.4017 61.5089 38.8731 57.326 36.0137C51.8875 32.2621 46.138 29.3692 40.4407 26.3732C37.3033 24.7802 34.0745 23.5176 30.8194 22.4096C27.7573 21.3097 24.6398 20.417 21.4504 20.3869C19.0741 20.3425 16.7024 19.9326 14.3252 20.12C10.0175 20.6477 5.91627 22.6019 1.89121 24.589C1.35615 24.7671 0.840765 25.0285 0.373952 25.4225C0.182202 25.5808 0.0147296 25.8324 0.00133226 26.125C-0.0371851 26.816 0.76915 26.9366 1.16646 26.9196C1.72832 26.8873 2.26884 26.7059 2.80096 26.4681C3.53321 26.3924 4.28093 26.4774 4.99099 26.7196C6.98677 27.558 8.74475 29.1675 10.5166 30.5972C15.1822 34.3631 20.4431 36.5074 25.7376 38.1805C28.4761 38.7679 31.2875 38.6605 34.0574 38.7016C37.4975 38.6424 40.9164 38.0846 44.3511 37.8593C46.3725 37.8204 48.3929 38.0495 50.413 38.1388C52.1094 38.107 53.7799 38.3361 55.4202 38.7537C57.4558 40.2004 59.4457 41.76 61.367 43.4824C67.9292 49.0911 74.4034 54.9021 81.1959 60.0281C86.6947 64.0433 92.638 66.8146 98.5266 69.6691C99.4024 70.0839 100.254 70.5711 101.094 71.0911C98.424 70.1338 95.7098 69.4099 93.0332 68.4887C87.2983 67.1439 81.2641 66.1613 75.2659 65.4972C72.7878 65.324 70.3076 65.1503 67.8253 65.1519C66.0347 65.2506 64.2487 65.455 62.4564 65.4906C62.453 65.4396 62.4534 65.3903 62.4484 65.3388C62.443 65.3065 62.4308 65.2785 62.4249 65.2467C62.4446 65.0018 62.4505 64.7552 62.4237 64.5135C62.2981 64.0269 62.0913 63.5748 61.8828 63.1413C61.5144 62.5549 60.9487 62.339 60.3902 62.2404C60.0507 62.1352 59.6915 62.0908 59.3222 62.099C59.2824 62.0908 59.2422 62.0754 59.2024 62.0689C58.1491 61.9045 56.9978 62.2766 56.0826 63.0646C54.2245 63.9847 52.2698 66.015 52.395 68.8465C53.1184 73.5396 58.1169 73.1582 60.5246 71.0073C61.1388 70.3815 61.6316 69.6143 62.0151 68.7293C62.1876 68.4947 62.2608 68.2174 62.2349 67.8979C62.234 67.8941 62.234 67.8897 62.2332 67.8853C64.4894 67.7862 66.4676 67.4804 67.9237 67.5346C75.6096 67.739 83.5642 68.8811 91.0559 69.8581C94.1959 70.661 97.3673 71.2309 100.5 72.0929C101.814 72.5099 103.132 72.9089 104.451 73.3067C106.003 74.3567 107.562 75.3836 109.204 76.1717C107.665 75.7628 106.125 75.3677 104.575 75.0357C99.8726 74.0208 95.1253 73.4015 90.3601 73.253C85.4688 72.8201 80.5754 73.1653 75.7515 74.3211C68.234 75.7924 60.9228 78.6694 53.9331 82.5558C46.7861 86.3392 39.8802 90.9709 33.6952 97.0313C31.766 98.8216 29.9959 100.882 28.1123 102.749C26.8396 104.037 19.0783 110.586 24.0089 110.056C25.2955 109.786 26.454 108.931 27.5978 108.158C28.6876 107.59 29.8113 107.135 30.9471 106.751C32.8386 105.991 34.8118 106.357 36.7544 106.23C39.7701 106.151 42.7786 105.795 45.752 105.129C49.8197 104.471 53.8142 102.434 56.7374 98.5799C59.1975 95.664 61.4905 92.5212 63.9422 89.596C65.5553 87.3487 67.4155 84.8109 68.5053 83.7582C71.9358 80.8812 74.2674 79.8454 77.6527 78.0929C80.459 76.4714 83.5094 76.0308 86.5385 75.7491C87.7062 75.6258 88.8742 75.5097 90.0423 75.3929C90.345 75.4072 90.6477 75.422 90.9504 75.4335C98.7769 75.69 106.446 77.8255 114.087 79.8767C118.101 80.7727 122.115 81.6758 126.131 82.5613C128.914 83.1576 131.71 83.6935 134.456 84.55C135.638 84.9227 136.73 85.7101 137.945 85.9096C139.779 86.2565 141.646 86.0872 143.483 85.8565C143.761 85.8176 144.04 85.788 144.319 85.7523C144.426 85.76 144.532 85.771 144.639 85.7776C149.319 85.9847 153.989 85.4679 158.655 84.9539C154.761 86.1359 150.213 87.3772 147.815 87.7514C144.985 88.3679 143.739 88.2145 140.566 88.9368C137.479 89.8914 134.153 90.8959 131.305 92.7185C127.471 95.4004 123.877 97.6593 120.404 100.82C120.195 100.655 119.972 100.503 119.732 100.371C118.946 99.1619 117.264 99.1449 116.199 99.6058C115.463 99.9346 114.862 100.523 114.363 101.249C113.654 101.917 113.071 102.803 112.719 103.887C111.669 106.45 112.926 108.269 114.609 108.954C116.906 110.146 119.845 109.017 121.143 106.21C122.386 103.99 121.906 102.16 120.616 100.998C123.385 99.009 126.25 97.2735 129.104 95.5067C130.751 94.5768 132.348 93.4791 134.042 92.7021C136.567 91.8702 139.172 90.8235 141.699 90.4624C146.837 90.104 151.939 89.128 156.954 87.6238C159.814 86.6571 162.729 86.0483 165.61 85.2169C166.943 84.7692 167.956 84.1253 169.193 83.6091C169.233 83.5971 169.273 83.5861 169.314 83.574C172.354 83.0912 175.39 82.5531 178.398 81.8095C183.502 80.166 188.494 77.9949 193.359 75.4056C195.846 74.3835 198.366 73.247 201.056 71.8485C200.475 72.2694 199.897 72.6957 199.315 73.1138C188.701 81.0302 177.678 88.1307 167.797 97.6061C163.995 101.274 160.593 105.593 157.282 109.988C154.617 113.506 151.874 116.966 149.648 120.993C144.343 130.535 140.016 141.786 140.339 153.86C140.338 155.673 140.411 157.487 140.527 159.293C140.588 159.813 140.548 160.505 140.973 160.751C142.224 161.405 143.55 160.573 144.57 159.617C145.529 158.776 146.486 157.934 147.445 157.093C150.952 154.19 154.184 150.777 157.24 147.11C159.515 144.5 161.733 141.727 163.328 138.33C165.798 133.34 167.109 127.592 168.242 121.885C168.637 119.788 169.111 117.718 169.508 115.622C169.808 113.646 169.986 111.635 170.373 109.683C171.25 106.338 171.779 102.866 172.506 99.4699C173.191 97.6122 174.357 96.1254 175.459 94.682C176.147 93.8392 176.871 93.049 177.608 92.2801C177.285 92.5629 176.963 92.8446 176.64 93.1273C174.749 94.8656 172.857 96.7633 171.473 99.2134C170.948 100.309 170.682 101.577 170.302 102.764C169.091 106.917 167.53 110.881 166.801 115.252C164.719 122.81 162.699 132.612 159.868 138.348C157.971 142.325 155.407 145.153 152.822 148.197C150.12 151.43 147.143 154.201 144.08 156.808C143.925 152.995 143.987 149.073 144.3 146.119C145.138 139.729 147.106 133.686 149.578 128.098C150.434 126.1 151.827 123.336 153.302 120.717C155.456 116.921 158.059 113.624 160.589 110.266C163.852 105.9 167.215 101.622 171.008 98.0434C181.381 88.2178 192.638 81.102 203.826 72.6628C213.883 65.4467 223.726 57.6465 234.08 51.1757C243.551 46.6991 253.002 42.1502 262.4 37.4215C264.808 36.5655 267.23 35.7824 269.664 35.0574C270.772 34.847 271.839 34.6711 273.021 34.5094C266.205 37.1113 259.38 39.7335 252.917 43.61C249.734 45.5801 246.879 48.3245 243.86 50.6776C242.421 51.8377 240.975 52.983 239.545 54.1634C239.82 53.8938 238.951 54.5717 238.686 54.7558C238.167 55.1169 237.721 55.6184 237.297 56.145C235.993 57.7912 234.628 59.41 233.344 61.1197C229.774 64.4395 226.287 67.91 222.905 71.5443C219.471 75.4872 216.312 79.823 213.18 84.1664C210.554 88.0572 209.509 93.2024 207.735 97.7486C206.141 102.278 204.453 106.757 203.026 111.382C202.487 113.098 201.792 114.749 201.507 116.581C200.999 119.863 202.122 123.026 202.654 126.178C203.218 128.808 204.952 138.931 207.127 138.826C210.355 139.111 210.887 134.865 212.047 131.923C212.96 129.671 215.001 126.011 216.555 122.946C218.669 119.036 220.77 115.113 222.436 110.836C223.701 107.961 224.989 105.028 225.642 101.796C226.893 94.6573 228.582 87.6808 230.234 80.6877C231.411 76.2566 231.575 71.4397 233.352 67.3143C233.741 66.1476 235.26 63.8718 236.845 61.6924C240.12 58.6685 243.359 55.5679 246.78 52.834C250.225 50.237 253.84 48.0549 257.395 45.7313C260.729 43.5487 264.066 41.3704 267.429 39.2666C267.958 39.0649 268.488 38.8638 269.018 38.6693C272.533 37.2056 276.068 35.8345 279.621 34.5357C280.437 34.2118 282.388 33.552 284.22 33.2528C284.683 33.2024 285.146 33.1542 285.608 33.1054C285.785 33.0989 285.959 33.0961 286.124 33.1027C286.499 33.1082 286.904 33.123 287.324 33.1427C287.348 33.1471 287.371 33.1515 287.395 33.1564C288.521 33.8907 289.635 34.6596 290.853 35.1095C294.623 36.5677 298.635 36.4444 302.498 35.6706C300.594 37.0143 298.555 38.0073 296.6 39.2173C291.783 42.3573 287.02 45.8004 283.066 50.6436C278.328 56.0562 274.751 62.9281 271.805 70.148C269.326 76.4506 267.019 83.088 266.201 90.1451C265.934 93.1054 266.295 96.1063 266.835 98.9816C266.983 99.5559 266.955 100.355 267.414 100.66C267.635 100.792 267.867 100.863 268.111 100.876C270.318 101.129 271.541 98.512 272.768 96.5584C274.455 93.991 276.048 91.3118 277.811 88.8343C283.268 81.1919 288.86 73.6865 293.889 65.5476C296.395 61.4951 297.885 56.5763 299.311 51.7604C299.791 48.4335 300.254 45.0535 301.824 42.2537C303.581 38.8435 305.989 36.0833 308.694 34.0206C308.817 33.9384 308.946 33.8721 309.076 33.8129C311.164 33.877 313.25 34.0442 315.335 34.1949C323.266 34.927 331.232 35.949 339.184 35.1621C340.112 35.1127 341.083 35.0059 341.86 34.2738C342.198 33.9954 342.505 33.4063 342.2 32.9564ZM220.935 31.3332C214.4 28.3614 208.836 22.7838 202.946 18.1845C200.505 16.5114 198.01 14.9924 195.687 13.0355C192.902 10.7246 190.254 8.14073 187.533 5.70049C189.561 5.72734 192.112 5.78324 194.196 6.15588C198.311 6.88088 200.993 7.9303 204.376 9.93544C207.016 11.4161 209.422 13.4821 211.939 15.273C215.124 17.5214 218.405 19.5364 221.561 21.8528C225.16 24.4629 228.252 29.3631 231.422 33.9515C231.681 34.2233 231.951 34.4688 232.228 34.7001C228.262 33.9461 224.121 32.9049 220.935 31.3332ZM131.013 51.1505C128.441 49.5367 127.077 48.016 125.039 46.0881C123.911 44.9269 120.31 41.5342 118.385 39.62C112.486 33.7236 106.542 27.7706 101.522 20.5787C101.343 20.3359 101.174 20.0811 101.01 19.8214C101.275 19.5391 101.543 19.2629 101.851 19.0722C102.508 18.7018 103.222 18.5621 103.916 18.356C105.732 17.8255 107.587 17.5258 109.441 17.3422C112.902 17.1729 114.613 17.8239 117.171 19.578C118.494 20.4285 119.882 21.1524 121.071 22.3159C121.872 22.9411 124.503 28.1564 125.746 30.6153C127.314 33.7033 128.927 36.7507 130.568 39.7735C132.106 42.9683 133.575 46.2443 135.313 49.2605C136.386 51.1237 138.004 52.2367 139.571 53.251C140.519 53.8686 141.488 54.4297 142.466 54.9602C144.535 57.0974 146.712 59.0456 148.965 60.837C142.892 57.9013 136.902 54.6785 131.013 51.1505ZM48.2723 36.2372C43.8307 35.5188 37.1304 36.5671 35.0295 36.3879C32.7566 36.3277 30.4798 36.2586 28.2136 36.0252C24.4452 34.8102 20.6345 33.6145 17.1243 31.3924C13.5682 29.5012 10.4684 25.7452 6.74523 24.5862C8.89173 23.6311 11.0747 22.7921 13.3283 22.4266C14.8829 22.2254 16.4398 22.5071 17.9939 22.5926C21.1549 22.6595 24.3032 22.9904 27.3419 24.2037C31.0203 25.4411 34.682 26.8144 38.2043 28.6885C43.0516 31.2373 47.9244 33.7921 52.6026 36.8351C51.1612 36.6159 49.7113 36.4636 48.2723 36.2372ZM75.0406 77.2435C71.8416 78.5812 68.6865 80.2471 65.8342 82.5893C63.7974 84.4739 62.1152 86.9525 60.4112 89.3198C57.9896 92.2357 55.7321 95.3747 53.3076 98.2895C52.6114 99.271 50.2861 101.57 48.2154 102.224C43.958 103.466 39.5846 103.989 35.2254 103.931C33.2037 103.916 31.1778 104.337 29.2184 105.072C29.7497 104.577 30.2843 104.087 30.8077 103.582C32.3291 102.07 33.7718 100.428 35.2895 98.9093C41.8935 92.1892 49.3902 87.2248 57.1481 83.2178C64.0171 79.4964 71.2588 77.0813 78.6223 75.805C77.4145 76.2182 76.2217 76.7213 75.0406 77.2435ZM248.47 40.9029C248.846 40.59 249.224 40.282 249.597 39.9604C250.201 39.8409 250.804 39.7077 251.405 39.5515C250.423 39.9883 249.445 40.4415 248.47 40.9029ZM227.439 75.5338C226.953 78.2809 226.31 80.9765 225.691 83.6765C224.906 87.1103 224.081 90.5298 223.335 93.9773C222.462 98.1497 222.052 102.54 220.602 106.464C219.453 109.538 217.6 113.874 216.78 115.73C214.009 121.343 210.285 127.706 208.231 132.492C207.1 128.39 206.539 124.016 205.665 119.818C204.973 116.58 206.005 114.219 207.135 110.851C208.224 107.335 209.51 103.932 210.731 100.493C212.545 95.858 214.322 89.3741 215.953 86.1568C218.046 82.5778 220.653 79.5577 223.013 76.2845C224.761 73.9566 226.633 71.826 228.647 69.7129C228.062 71.5767 227.719 73.5506 227.439 75.5338ZM272.202 32.5859C272.065 32.5985 271.927 32.6073 271.79 32.621C272.879 32.0549 273.966 31.4779 275.053 30.9063C276.152 31.1129 277.227 31.291 278.211 31.4422C276.202 31.7705 274.198 32.1464 272.202 32.5859ZM272.352 27.5366C267.807 26.2889 263.633 23.5669 259.475 20.9689C255.445 18.8185 251.488 16.4457 247.628 13.8136C245.147 12.2288 242.644 10.6818 240.378 8.59722C238.51 6.90828 236.669 5.1103 234.622 2.91391C234.982 2.9983 235.341 3.08708 235.699 3.17914C239.941 4.18253 243.634 5.37662 246.851 7.17516C250.623 9.2477 254.146 12.0189 257.818 14.3748C259.937 15.8637 262.143 17.1279 264.288 18.5511C265.825 19.5145 267.296 20.6614 268.893 21.4538C272.061 22.9477 275.018 25.0515 278.102 26.7842C279.273 27.4665 280.434 28.1959 281.503 29.1275C281.636 29.2453 281.769 29.3637 281.902 29.4826C278.703 28.9488 275.494 28.5121 272.352 27.5366ZM307.816 34.4946C303.96 36.9836 300.403 40.6793 298.256 45.6228C297.338 47.5973 296.993 49.8803 296.409 52.0323C295.217 55.2983 293.426 59.747 292.426 61.8047C291.25 64.1737 289.798 66.2819 288.389 68.4131C282.414 77.6836 275.768 86.1781 269.904 95.5643C269.302 91.4565 269.562 87.7536 270.655 83.5291C271.947 78.0897 273.695 72.842 275.802 67.8596C279.442 58.6389 286.357 48.176 294.916 42.6839C298.927 39.642 303.502 37.9755 307.291 34.4453C307.442 34.1653 307.456 33.9532 307.39 33.7882C307.947 33.7882 308.504 33.791 309.061 33.808C308.621 33.9504 308.214 34.2162 307.816 34.4946Z" fill="#15C0B6"/>
</svg>
