<svg width="382" height="209" viewBox="0 0 382 209" fill="none" xmlns="http://www.w3.org/2000/svg">
<path d="M381.152 15.907C380.858 15.1716 380.176 15.5217 379.71 15.5047C378.531 15.5721 377.348 15.5321 376.168 15.5793C373.165 15.5908 370.183 16.1328 367.191 16.4281C364.046 16.8643 360.864 16.9959 357.761 17.9044C355.604 18.4733 353.669 20.0301 351.663 21.2604C347.59 23.7894 343.824 27.2561 340.511 31.6291C337.895 35.0404 335.857 36.9847 333.007 40.5615C330.949 43.4396 328.838 46.2311 326.774 49.0982C324.592 52.3813 322.554 55.8754 320.396 59.1913C317.089 63.6613 313.469 67.6042 309.822 71.4144C307.221 73.8492 304.472 75.9108 301.834 78.2518C300.116 79.6662 298.397 81.1195 296.982 83.1899C296.707 83.6206 296.318 84.1401 296.044 84.7182C287.317 88.7965 278.375 91.8143 269.393 94.4332C265.826 95.6667 262.182 96.2591 258.558 97.0197C256.63 97.4351 255.142 97.7321 253.667 97.9963C254.761 97.314 255.67 96.7178 256.029 96.4696C262.085 92.8643 268.083 88.8776 273.585 83.6091C275.44 81.45 277.213 79.2541 278.967 76.9213C279.261 77.9154 279.686 78.8075 280.278 79.51C281.335 80.3682 282.819 80.4696 284.344 80.0191C284.527 80.1633 284.713 80.2964 284.908 80.4099C286.712 81.2708 289.019 80.4619 290.146 78.1187C290.581 76.9712 290.617 75.6192 290.78 74.3424C290.944 72.8557 291.029 71.3016 290.812 69.8099C290.785 69.4427 290.756 69.0778 290.729 68.7128C291.367 68.7238 292.264 68.3972 292.329 67.7982C292.505 67.6826 292.674 67.5532 292.831 67.4108C293.952 66.3339 294.166 63.9381 293.779 62.1171C293.536 61.1559 292.787 61.0468 292.2 61.0983C291.079 61.2052 290.079 62.1384 289.428 63.492C289.408 63.5243 289.391 63.5561 289.372 63.5879C288.652 62.6908 287.745 62.2333 286.796 62.0902C286.761 62.0743 286.727 62.0535 286.692 62.0393C286.311 61.6589 285.907 61.3356 285.486 61.0912C284.056 60.4495 282.521 61.146 281.288 62.2541C280.209 63.1539 279.596 64.8247 279.34 66.6611C279.271 66.8463 279.2 67.0304 279.139 67.2228C278.865 67.8327 278.676 68.4689 278.605 69.1128C278.546 69.3255 278.495 69.5452 278.454 69.7748C278.297 71.1262 278.161 72.8151 278.429 74.2076C278.013 74.8641 277.5 75.5853 276.972 76.3075C275.141 78.7352 273.34 81.2516 271.36 83.3992C269.491 85.0942 266.235 87.8429 263.566 89.7149C260.406 91.9233 258.641 93.0582 255.339 95.0645C252.898 96.6592 251.599 97.5562 249.422 98.6857C249.068 98.7394 248.705 98.7936 248.319 98.8512C242.107 99.9833 235.862 100.498 229.608 100.937C225.92 101.244 222.217 100.981 218.522 101.026C215.991 100.999 213.458 101.017 210.926 100.905C210.613 100.817 210.3 100.73 209.986 100.643C211.893 100.07 213.796 99.4644 215.703 98.8901C221.432 96.7583 227.21 94.7214 232.661 91.2898C239.007 87.5585 245.067 82.8474 251.147 78.2518C255.743 74.9249 260.331 71.5542 264.617 67.3773C269.155 63.0607 273.28 57.8388 277.411 52.6975C281.336 47.9222 285.142 42.9261 288.413 37.1058C290.005 34.3291 291.608 31.5688 293.185 28.7729C294.403 26.2834 295.928 24.0574 296.547 21.0248C296.751 20.3611 297.032 19.709 296.98 18.9539C296.998 18.5319 296.733 18.2475 296.573 17.9477C296.266 17.6145 295.859 17.6809 295.51 17.7751C294.618 18.0009 294.016 19.0509 293.327 19.8329C292.259 21.0697 291.276 22.4627 290.208 23.6957C286.265 27.8271 281.744 30.4536 277.362 33.3268C276.775 33.5838 276.158 33.6622 275.561 33.8573C274.567 34.2102 273.59 34.6672 272.603 35.0612L272.777 34.99C269.322 36.3792 265.908 37.9749 262.487 39.5362C259.951 40.4952 257.487 41.7704 255.032 43.107C252.693 44.352 250.338 45.551 248.083 47.1139C240.914 51.5692 235.67 60.466 230.513 68.8657C227.712 73.7911 224.43 77.9877 221.295 82.4035C220.11 84.0398 218.947 85.7507 217.571 87.0231C216.823 87.6988 216.037 87.9882 215.258 88.7C213.132 90.4481 211.093 92.6516 208.92 94.1499C207.43 95.0453 205.794 95.83 204.226 96.5698C203.388 96.8723 202.545 97.1737 201.769 97.7469C201.374 98.0105 201.023 98.3985 200.769 98.815C195.641 98.0418 190.504 97.4477 185.366 96.8734C181.386 96.3643 177.418 95.6262 173.438 95.1242C169.598 94.7499 167.607 95.0387 163.504 94.5203C162.141 94.357 160.779 94.1647 159.418 93.963C155.968 93.3816 152.519 92.7634 149.072 92.1223C147.078 91.8357 145.085 91.5386 143.09 91.2427C144.102 91.2411 145.114 91.2301 146.124 91.2082C149.826 91.0882 153.523 90.6251 157.211 90.2043C162.695 89.3116 168.109 87.6478 173.408 85.4153C177.435 83.568 181.533 82.0303 185.483 79.835C188.42 78.128 191.227 75.9711 193.994 73.727C198.031 70.479 202.051 67.0918 205.589 62.6859C210.035 57.1752 214.341 51.2897 217.96 44.5104C218.462 43.5388 218.864 42.4603 219.274 41.3961C219.352 41.2536 219.38 41.0969 219.359 40.9259C219.265 39.9225 218.202 40.3352 217.745 40.3785C216.599 40.5626 215.461 40.8289 214.322 41.0848C209.808 42.1228 205.29 43.1196 200.764 44.0353C199.153 44.101 193.864 45.4031 191.096 47.0082C189.175 47.9332 187.22 48.8067 185.497 50.4189C182.944 52.6115 180.699 55.4813 178.308 58.0295C175.989 60.392 173.917 63.2493 171.622 65.6528C168.357 68.7961 165.053 71.94 161.761 74.9666C158.04 77.7329 154.303 80.5682 150.437 82.6517C147.238 84.1757 145.815 84.8432 142.764 85.6942C139.753 86.1929 136.723 86.5612 133.69 86.6817C131.831 86.7908 127.53 86.2499 124.674 86.7584C123.444 87.1601 121.984 87.3053 121.004 88.5641C118.36 88.3827 115.715 88.2704 113.068 88.2638C111.411 87.946 109.748 87.7383 108.076 87.6643C109.017 87.5328 109.952 87.3344 110.868 86.9711C114.036 85.8488 116.847 83.2956 119.68 80.9995C121.237 79.8076 122.796 78.6168 124.284 77.2369C124.449 77.1142 124.602 76.9695 124.753 76.8188C125.748 77.529 126.875 77.7701 127.935 77.3279C129.121 76.8824 130.319 76.0094 130.997 74.4191C131.922 71.8589 132.283 68.2508 131.183 65.6599C131.156 65.4917 131.12 65.3273 131.082 65.1645C131.341 65.2062 131.617 65.1903 131.883 65.1119C132.246 65.1612 132.754 64.873 132.924 64.6121C133.08 64.4263 133.099 64.1195 133.052 63.8411C133.051 63.8312 133.05 63.8208 133.048 63.8109C133.061 63.7616 133.081 63.7216 133.091 63.6696C133.089 62.9517 132.888 62.2064 132.608 61.6266C131.778 59.9174 130.186 61.2841 129.719 62.9144C128.933 62.3911 128.066 62.3379 127.212 62.5834C126.046 62.6492 124.91 63.3495 124.151 64.6675C123.347 65.5481 122.646 66.6874 122.335 68.1445C121.901 70.0828 121.593 73.0278 122.887 74.2997C122.941 74.4915 123 74.6805 123.064 74.8636C123.124 75.0291 123.196 75.1781 123.272 75.3195C123.206 75.4165 123.134 75.5228 123.056 75.6384C121.557 77.0802 121.062 77.4644 119.03 79.116C116.649 81.1146 114.114 83.551 112.218 84.7122C109.691 86.3233 107.06 86.3513 104.091 87.0779C103.219 87.3229 102.355 87.6462 101.504 88.0347C99.78 88.2934 98.0651 88.671 96.3578 89.1137C94.9113 89.2294 93.4694 89.4453 92.0233 89.5763C91.3983 89.6086 90.7719 89.6261 90.146 89.6437C92.6844 88.4134 95.2412 87.2418 97.6042 85.3632C100.522 83.1416 103.137 80.1731 105.574 76.9103C107.467 74.4761 109.384 72.0622 111.033 69.24C112.93 65.9925 114.609 62.4881 116.227 58.9162C119.164 53.5107 121.951 47.8921 124.064 41.6328C124.921 39.072 125.776 36.5112 126.632 33.9504C127.463 31.736 128.335 29.4886 128.452 26.8708C128.766 20.9047 129.623 15.0225 129.715 9.02574C129.746 6.13998 129.212 3.34463 128.639 0.60682C128.094 -0.703995 126.223 0.394196 125.648 1.22825C125.409 1.53184 125.296 1.97463 125.333 2.44426C125.337 2.68922 125.349 2.93418 125.373 3.17749C125.382 3.25311 125.389 3.326 125.394 3.39066C125.41 4.34144 125.308 5.28345 125.198 6.21396C124.93 8.53748 124.754 9.19179 123.791 11.0994C122.989 12.6371 122.089 14.1271 120.745 16.0527C118.062 19.7468 115.3 23.3127 112.703 27.1481C110.314 30.3621 108.242 34.1543 106.957 38.6309C106.025 41.5726 105.598 44.7871 104.915 47.8669C103.777 52.7238 102.341 60.09 101.479 63.7512C100.691 66.2737 99.5439 68.4936 98.6831 70.9596C97.6787 73.658 96.699 76.4391 95.2416 78.6448C94.2754 80.086 93.3292 81.5716 92.2787 82.8742C91.6742 83.5872 91.0026 84.1472 90.3445 84.7374C88.2742 86.5623 86.2106 88.3701 84.1089 90.1922C84.0515 90.2322 83.9946 90.2722 83.9372 90.3117C81.2021 90.9473 78.5863 92.3552 75.9424 93.5268C72.5072 94.9839 69.0591 96.4038 65.8312 98.7229C66.0087 98.6128 66.1862 98.5026 66.3637 98.3925C63.8454 100.027 61.2145 101.214 58.677 102.768C55.5663 104.945 52.5222 107.442 49.6886 110.354C44.3289 116.23 39.1315 122.48 34.2704 129.279C32.5999 131.75 31.0684 134.422 29.4733 137.003C31.6487 131.905 33.9396 126.914 35.7701 121.506C37.4112 117.325 39.5385 113.625 41.3609 109.624C43.5267 104.661 46.0898 100.93 49.1854 96.0574C52.075 91.9168 57.2338 86.1293 59.7157 83.0414C64.2633 77.5619 68.8652 72.0901 72.8739 65.6983C74.6022 62.7374 76.0797 59.4637 77.6204 56.2781C79.0736 52.7792 80.6457 49.2325 81.3335 45.174C81.7782 41.7123 81.3059 38.2599 81.2486 35.1637C81.316 29.6908 81.2674 24.1352 80.4501 18.7582C80.6913 24.4963 80.1902 30.2218 79.6224 35.8651C79.4052 39.1488 79.5241 42.5173 78.8822 45.7028C77.9829 49.4994 75.7092 54.3508 73.7423 58.3123C72.2585 61.2425 71.0549 63.9129 69.8939 65.7262C65.2157 72.9625 59.8819 79.1253 54.6728 85.4476C52.675 87.8588 48.8341 92.159 46.1957 96.1112C43.9056 99.6633 41.6293 103.253 39.582 107.137C38.5877 109.246 37.6214 111.385 36.6028 113.469C35.4439 115.925 34.2042 118.299 33.1182 120.834C32.2968 123.21 31.4456 125.558 30.5296 127.855C28.6962 132.349 26.7248 136.729 24.9513 141.282C25.5504 139.105 26.152 136.887 26.7402 134.57C28.9592 127.538 31.6985 117.732 34.4479 109.986C34.5655 109.659 34.6828 109.332 34.8004 109.006C34.4534 109.757 34.1063 110.508 33.76 111.261C31.6596 116.135 29.6671 121.108 27.8572 126.249C25.5952 132.178 23.6559 138.354 21.8825 144.656C23.0832 138.998 24.2211 133.303 25.6354 127.77C26.9588 123.263 29.6307 116.378 31.4758 111.099C32.463 108.417 33.3611 105.657 34.3872 103.009C35.7998 99.6956 37.4585 96.6394 39.0306 93.501C43.4777 85.0701 49.3223 77.3142 55.2121 69.5271C57.7375 66.1547 60.355 62.9358 62.8314 59.4828C64.2628 57.2602 65.5364 54.8166 66.9963 52.6328C73.0088 43.513 77.4784 33.1646 79.4102 20.4263C79.4776 20.0652 79.5504 19.7068 79.6203 19.3473C79.2917 20.3737 78.9928 21.4215 78.688 22.4654C77.4835 26.6286 76.0269 30.6087 74.4038 34.4223C71.9906 40.053 69.0381 45.1143 65.94 49.8901C64.9373 51.4037 63.9216 52.8997 62.9578 54.4708C61.8136 56.3532 60.7854 58.4055 59.5131 60.1021C51.4253 70.9618 42.838 81.2231 36.0878 94.1082C34.7439 96.863 33.3242 99.5378 32.0858 102.408C30.6477 106.026 29.4959 109.897 28.1411 113.59C26.3848 118.682 24.4166 123.643 23.1376 129.083C21.5316 136.96 20.6143 145.126 19.3625 153.151C19.2528 153.531 19.1452 153.911 19.0397 154.293C18.5352 155.256 18.0378 156.228 17.5472 157.207C17.2583 157.722 16.9698 158.238 16.6809 158.753C15.947 160.081 15.3165 161.534 14.6269 162.916C13.5112 165.236 12.5345 167.703 11.4819 170.09C9.57659 174.478 7.7537 178.978 6.21761 183.693C4.66603 188.976 3.30831 194.414 2.28843 199.998C1.51683 202.763 0.763229 205.54 0 208.309C0.565619 206.768 1.12161 205.219 1.67467 203.667C1.43477 205.238 1.21455 206.817 1.03745 208.412C1.90661 204.519 2.93067 200.722 4.05061 196.99C5.32922 193.414 6.63002 189.858 8.01999 186.38C11.7465 177.918 15.6117 169.591 19.5622 161.368C19.8754 160.734 20.1915 160.102 20.5067 159.47C21.0698 158.78 21.4684 157.762 21.8649 156.77C23.0015 154.527 24.1562 152.299 25.3319 150.096C27.9075 147.012 30.4856 143.934 33.1571 141.041C34.8632 139.125 36.571 137.169 38.4935 135.764C42.0961 133.731 43.7243 133.461 45.8536 132.51C52.7378 129.646 59.163 128.456 65.464 129.708C70.2946 129.887 75.1071 130.603 79.8552 132.091C82.2186 132.719 84.6046 133.101 86.9495 133.907C90.2574 134.885 93.5682 135.84 96.8832 136.759C99.7 137.245 102.518 137.708 105.337 138.162C108.407 138.72 111.417 139.411 114.517 139.157C117.541 138.983 120.591 139.188 123.592 138.572C127.552 137.502 131.244 134.911 134.819 132.243C137.447 130.172 140.119 128.216 142.621 125.808C142.969 125.48 143.317 125.152 143.664 124.819C143.809 124.734 143.952 124.64 144.094 124.534C145.076 123.828 145.851 122.663 146.653 121.582C146.832 121.304 147.083 121.096 147.166 120.711C147.384 119.927 146.705 119.722 146.308 119.779C145.618 119.799 145.089 120.296 144.591 120.89C144.59 120.89 144.588 120.89 144.587 120.89C144.705 120.745 144.66 120.8 144.586 120.89C144.584 120.891 144.582 120.891 144.58 120.891C144.552 120.928 144.535 120.949 144.525 120.963C144.467 121.033 144.412 121.1 144.411 121.102C144.229 121.313 144.052 121.543 143.875 121.774C143.759 121.914 143.641 122.051 143.52 122.178C143.28 122.435 143.035 122.68 142.791 122.928C141.477 122.908 139.95 122.925 138.559 123.063C135.836 123.208 133.104 123.612 130.376 123.331C128.613 123.032 127.092 122.257 124.825 121.552C120.979 120.275 117.186 118.586 113.512 116.399C112.122 115.595 110.844 114.401 109.448 113.621C107.337 112.43 105.169 111.501 103.024 110.472C98.8585 108.603 94.7003 106.592 90.4672 105.132C88.718 104.814 86.9529 105.016 85.1982 104.985C83.3155 104.982 81.4303 104.925 79.5521 105.103C74.3615 105.577 69.2893 107.341 64.3688 109.75C57.4968 112.857 50.8722 117.237 44.8254 123.044C41.9914 125.742 39.3371 128.83 36.8004 132.127C35.1019 133.83 33.6068 135.961 32.1536 138.143C35.7349 132.336 39.5632 126.901 43.7595 122.102C53.9879 110.141 66.0551 102.27 78.5708 97.4264C82.5201 95.7462 86.5032 94.2397 90.5404 93.1185C92.1607 92.9722 94.2079 92.6472 95.2102 92.6155C95.2019 92.6242 95.1927 92.6325 95.1843 92.6418C95.1943 92.6325 95.2048 92.6248 95.2148 92.6155C95.4225 92.6089 95.5883 92.6144 95.6917 92.6374C100.095 93.0785 103.13 92.7168 106.683 93.1103C110.708 93.3295 114.718 94.1975 118.745 94.1088C120.293 94.1131 121.669 93.9997 122.891 93.9488C123.148 94.066 123.405 94.1811 123.661 94.3017C126.51 95.5993 129.389 96.7989 132.184 98.3486C136.507 100.824 140.649 103.939 144.776 107.09C148.521 109.797 151.719 112.322 154.924 115.225C156.822 116.86 158.695 118.57 160.428 120.594C160.706 120.948 160.988 121.294 161.269 121.645C160.514 122.427 159.856 123.439 159.345 124.534C158.393 127.165 159.406 130.674 161.059 132.136C162.572 133.85 164.26 135.185 166.19 134.965C168.518 134.837 170.902 133.843 172.908 131.996C172.97 132.132 173.043 132.245 173.123 132.345C173.23 132.554 173.351 132.746 173.48 132.916C173.588 133.279 173.741 133.608 173.951 133.865C175.472 135.549 178.303 133.708 178.515 130.908C178.585 129.97 178.396 128.933 177.831 128.416C177.75 128.329 177.665 128.254 177.581 128.177C177.492 127.976 177.395 127.785 177.286 127.612C176.952 127.05 176.532 126.766 176.086 126.677C176.454 124.029 175.438 121.337 173.509 120.447C172.81 120.088 172.092 119.858 171.366 119.72C169.12 118.267 166.43 118.199 164.162 119.439C164.147 119.444 164.129 119.453 164.109 119.464C162.228 117.415 160.04 115.71 158.545 114.428C153.691 110.001 148.582 106.325 143.496 102.582C139.491 99.6107 135.404 96.8614 131.144 94.8842C133.457 95.1445 135.773 95.3133 138.092 95.4245C141.522 95.3933 145.694 95.5473 150.175 96.0531C152.104 96.3589 154.032 96.6761 155.962 96.9715C156.622 97.1058 157.281 97.2384 157.94 97.3705C158.515 97.4735 159.087 97.5979 159.658 97.7332C161.738 98.3207 163.741 99.4238 165.789 100.224C167.126 100.772 168.509 101.01 169.808 101.781C171.623 102.725 172.692 103.983 174.53 105.767C178.64 109.588 182.144 114.652 185.451 119.931C187.864 123.786 190.559 127.193 193.053 130.912C196.865 137.228 200.652 143.638 205.08 148.992C207.536 151.926 209.944 155.039 212.75 157.176C215.557 159.247 218.502 160.984 221.559 161.92C224.913 162.82 228.334 162.826 231.698 163.57C233.179 163.975 234.663 164.485 236.087 165.253C236.518 166.221 236.892 167.354 238.036 167.234C238.635 167.154 239.269 166.809 239.639 166.069C239.714 165.912 239.736 165.739 239.705 165.551C239.572 165.016 239.478 164.39 239.151 164.038C238.813 163.741 238.462 163.482 238.107 163.24C236.422 160.108 234.148 156.288 232.344 152.926C228.699 146.428 225.108 139.823 221.082 133.85C215.975 126.684 210.299 120.485 204.336 115.08C197.524 109.044 189.942 105.417 182.367 102.42C178.05 100.725 173.698 99.2627 169.303 98.2149C169.445 98.2204 169.588 98.2259 169.73 98.2314C171.099 98.4128 172.467 98.5919 173.835 98.7657C175.381 99.0161 176.925 99.2874 178.472 99.5241C182.232 100.248 186.009 100.692 189.788 101.045C193.039 101.672 196.31 101.924 199.566 102.483C200.043 102.542 200.517 102.615 200.99 102.693C200.918 102.71 200.846 102.728 200.774 102.745C200.471 102.683 200.168 102.619 199.865 102.562C198.399 102.363 196.904 101.924 195.444 102.298C196.257 102.151 197.068 102.409 197.869 102.623C200.322 103.3 202.731 104.296 205.153 105.195C207.178 105.994 209.18 106.469 211.175 107.288C212.902 108.042 214.54 109.2 216.211 110.197C218.712 111.937 221.241 113.599 223.723 115.401C224.144 115.625 225 116.495 225.928 117.171C223.897 119.152 223.047 122.321 224.682 125.293C224.642 125.965 224.641 126.639 224.729 127.309C225.011 128.838 225.944 129.858 226.834 130.556C228.863 132.201 231.33 132.1 233.428 130.94C233.937 130.692 234.457 130.293 234.952 129.785C236.336 130.962 238.393 130.573 239.667 129.076C240.417 128.733 241.171 128.182 241.476 127.073C241.61 126.395 241.63 125.808 241.568 125.303C241.57 125.303 241.571 125.302 241.573 125.301C241.571 125.301 241.569 125.301 241.568 125.301C241.407 123.982 240.659 123.256 239.719 123.135C239.618 122.977 239.512 122.834 239.401 122.704C239.559 122.218 239.682 121.708 239.753 121.172C239.785 119.96 239.393 118.824 238.849 117.904C238.329 115.537 236.941 113.67 235.228 113.549C234.094 113.438 232.809 113.569 231.616 113.841C230.736 113.924 229.869 114.205 229.068 114.714C228.961 114.767 228.857 114.82 228.758 114.875C227.975 114.452 227.221 113.892 226.458 113.394C221.367 110.222 216.337 106.348 210.861 105.069C207.508 104.403 204.18 103.447 200.83 102.757C200.929 102.744 201.027 102.727 201.126 102.713C204.977 103.354 208.723 104.527 212.556 105.43C215.878 106.217 222.288 105.76 223.73 105.56C228.514 105.609 231.988 106.161 237.406 105.32C239.123 104.973 240.864 104.987 242.58 104.623C243.524 104.459 244.41 104.29 245.29 104.113C245.334 104.169 245.389 104.223 245.456 104.274C246.056 104.432 246.653 104.326 247.25 104.166C248.048 104.159 248.728 104.139 249.887 104.303C251.021 104.566 251.365 104.891 252.925 105.261C254.413 105.487 256.137 105.615 258.303 105.683C262.344 105.74 265.468 105.36 268.731 107.048C272.32 108.727 276.562 110.889 279.066 113.361C280.593 114.755 281.757 116.872 283.222 118.389C285.301 120.408 287.529 122.175 289.841 123.472C293.025 124.863 296.344 125.044 299.607 125.672C302.983 125.916 306.389 126.711 309.753 126.062C316.407 124.687 321.847 122.482 327.849 121.805C330.065 121.888 332.429 120.927 332.758 118.185C332.882 117.956 332.882 117.591 332.725 117.398C332.03 116.746 331.358 116.032 330.632 115.458C327.533 113.024 324.212 111.357 320.95 109.528C313.771 105.764 306.49 102.398 299.018 100.366C295.706 99.3559 292.352 98.7881 289.012 98.0785C286.088 97.4538 283.154 96.9573 280.206 96.8148C278.616 96.6855 277.03 96.6422 275.448 96.6641C275.894 96.4767 276.339 96.2799 276.781 96.0673C278.067 95.4278 279.405 94.4606 280.563 93.8134C283.068 92.7185 285.638 91.9376 288.163 90.9348C289.792 90.3489 291.39 89.6102 292.948 88.6923C293.137 88.5893 293.322 88.472 293.505 88.3504C294.767 87.7914 296.025 87.216 297.277 86.6165C298.117 86.4187 298.909 86.2872 299.627 86.0499C302.717 85.1314 305.766 83.933 308.879 83.1816C309.566 83.0304 310.252 82.8802 310.94 82.7295C314.202 82.0325 317.511 82.0906 320.784 81.5305C324.21 80.8724 327.605 79.6947 330.859 77.9778C334.569 75.851 338.143 73.2415 341.834 71.0451C344.411 69.3912 347.052 67.922 349.505 65.8747C354.385 61.6716 358.589 55.7844 361.586 48.5776C364.745 40.9889 368.164 33.5586 372.426 27.2928C374.075 24.9271 375.617 22.3761 377.407 20.2466C378.418 18.9878 379.657 18.2404 380.686 17.026C380.93 16.7728 381.227 16.4013 381.152 15.907ZM34.2201 137.696C34.9118 136.841 35.6026 135.984 36.2883 135.118C36.4081 134.966 36.5303 134.817 36.6509 134.666C37.392 133.833 38.164 133.062 39.013 132.403C41.1093 130.891 43.5853 128.914 45.4999 127.628C47.4504 126.519 49.5957 125.769 51.8808 124.888C58.1315 122.623 64.0409 121.078 70.372 120.581C74.8765 120.309 79.3905 119.815 83.9033 120.021C86.7997 120.368 89.6545 121.309 92.5245 121.995C92.6237 122.021 92.723 122.045 92.8218 122.071C92.7276 122.029 92.6338 121.986 92.54 121.944C91.7969 121.609 91.0537 121.275 90.3102 120.942C88.7209 120.263 87.14 119.512 85.521 119.018C83.2523 118.337 80.9366 118.358 78.6398 118.243C75.0025 118.093 71.3571 118.021 67.7327 118.454C63.577 118.989 59.4674 120.1 55.403 121.44C51.9352 122.582 48.4657 123.864 45.1201 125.642C44.6341 125.936 44.1564 126.257 43.6833 126.593C45.278 124.94 46.9082 123.366 48.5779 121.89C53.9326 117.18 59.7262 113.695 65.6863 111.109C70.4084 108.851 75.3265 107.414 80.3066 107.28C83.1493 107.347 86.0109 107.09 88.8461 107.485C89.7462 107.719 92.2578 108.924 93.9605 109.646C98.3322 111.554 102.702 113.502 106.999 115.784C108.757 116.773 110.363 118.3 112.139 119.221C117.324 122.226 122.75 124.099 128.161 125.805C131.217 126.28 134.289 125.824 137.344 125.675C138.232 125.52 139.147 125.553 140.056 125.555C139.623 125.954 139.189 126.351 138.757 126.751C135.2 129.322 128.443 135.661 123.062 136.263C119.626 136.454 116.177 136.573 112.736 136.454C108.384 135.723 104.038 134.844 99.6824 134.132C94.434 132.987 89.2794 130.885 84.0302 129.739C80.8311 129.039 77.6853 127.796 74.4582 127.436C72.1987 126.983 69.9253 126.927 67.654 126.773C65.1374 126.433 62.6158 126.001 60.0917 126.231C53.3541 126.693 46.7881 129.238 40.4579 132.531C38.1025 133.589 36.0652 135.511 34.1691 137.766C34.1858 137.742 34.203 137.719 34.2201 137.696ZM28.5543 145.24C27.6375 146.543 26.7302 147.862 25.8242 149.182C26.1612 148.556 26.505 147.939 26.8458 147.317C28.0339 145.762 29.2334 144.225 30.4283 142.682C29.8032 143.545 29.1807 144.406 28.5543 145.24ZM56.9039 107.52C57.969 106.679 59.117 105.845 60.4299 104.949C60.5861 104.858 60.7427 104.77 60.9001 104.686C59.5541 105.588 58.2206 106.529 56.9039 107.52ZM87.8836 89.7308C87.0241 89.7812 86.1662 89.8618 85.3125 90.0119C90.2243 86.3803 95.093 82.6084 99.793 78.4086C104.462 73.6048 108.776 67.7576 111.925 60.6156C113.286 57.3583 114.093 53.6653 115.096 50.1383C115.841 47.4148 116.451 44.5986 117.41 42.0247C115.652 45.7143 114.381 49.8731 112.914 53.8357C111.014 59.8237 108.321 64.679 105.107 69.098C102.505 72.7444 100.051 75.8264 97.1047 78.6815C97.8918 77.552 98.6299 76.3508 99.2579 74.9984C100.149 73.167 100.91 71.2024 101.719 69.2871C102.523 67.3686 103.467 65.5629 104.114 63.503C104.991 60.3279 105.586 56.9856 106.333 53.7349C106.943 50.8951 107.667 48.1168 108.268 45.2716C109.456 38.0423 111.439 32.49 114.867 27.8567C117.493 23.9193 120.276 20.2384 123.014 16.4851C124.175 14.7397 125.373 12.9697 126.375 10.9909C126.359 12.4212 126.264 13.9145 126.109 15.6023C125.858 18.556 125.599 21.5086 125.355 24.464C125.202 26.4423 125.194 28.4699 124.817 30.3873C124.654 31.4948 123.845 33.1925 123.257 35.1018C121.987 38.9142 120.775 42.776 119.335 46.4481C117.59 51.0277 115.391 55.1476 113.268 59.3245C112.297 61.5296 111.339 63.7435 110.275 65.8495C108.37 69.725 106.378 72.648 103.597 76.2456C101.444 79.2174 99.0335 82.1541 96.6634 84.1554C94.2138 86.3206 91.6746 87.4539 89.0282 89.0442C88.6548 89.2694 88.2721 89.4979 87.8836 89.7308ZM151.072 84.5347C155.283 82.2243 159.498 79.1949 163.489 76.1229C167.236 72.614 171.055 69.2482 174.694 65.4889C176.901 62.7802 179.181 60.2166 181.495 57.721C183.331 55.6189 185.344 53.2499 187.24 51.5851C188.516 50.426 189.949 49.8682 191.459 49.101C193.281 48.2187 193.173 48.2203 194.934 47.5797C195.733 47.3463 196.533 47.1293 197.332 46.9035C202.036 46.1538 206.709 45.0611 211.386 44.0292C212.459 43.8248 214.339 43.3667 215.974 43.0385C215.501 44.2561 214.919 45.3614 214.32 46.4404C211.263 51.6443 205.753 59.7475 201.146 64.7382C198.521 67.5795 195.691 69.9491 192.853 72.2655C190.369 74.298 187.858 76.2812 185.237 77.8945C181.348 80.1271 177.296 81.6483 173.32 83.4957C169.325 85.218 164.022 87.0061 159.345 87.867C154.607 88.6386 149.837 89.0074 145.069 89.2305C148.099 88.5433 151.063 87.3547 154.009 86.1272C157.836 84.6108 161.628 82.917 165.394 81.0965C170.968 78.2239 176.354 74.5682 181.792 71.1695C182.668 70.6182 184.506 69.4992 185.686 68.7517C184.794 69.195 183.903 69.64 183.012 70.0872C179.055 72.0775 175.148 74.2805 171.212 76.3552C164.414 80.143 156.691 83.2534 150.137 85.8959C147.778 86.8702 145.374 87.4369 142.95 87.7876C145.71 87.033 148.407 85.8164 151.072 84.5347ZM187.956 107.327C192.178 109.485 196.374 111.841 200.331 114.995C203.709 117.737 208.212 122.262 211.771 126.35C214.708 129.76 217.587 133.324 220.182 137.332C223.687 142.909 226.955 148.809 230.213 154.715C231.436 156.941 232.659 159.168 233.899 161.371C233.295 161.205 232.691 161.065 232.093 160.937C229.042 160.442 225.957 160.283 222.936 159.407C220.024 158.317 214.838 155.457 211.996 152.065C208.624 148.258 205.347 144.234 202.381 139.705C200.07 136.201 197.9 132.489 195.687 128.845C194.605 127.077 193.355 125.577 192.183 123.954C190.18 121.075 188.201 118.159 186.284 115.148C185.148 113.419 183.974 111.741 182.753 110.15C190.394 116.033 197.808 123.939 205.431 131.032C208.786 134.48 212.232 137.715 215.539 141.27C215.622 141.352 216.099 141.895 215.694 141.381C213.631 138.506 211.438 135.866 209.253 133.213C200.152 122.361 190.508 112.338 179.926 105.156C178.338 104.081 176.736 103.037 175.12 102.05C174.444 101.427 173.753 100.849 173.033 100.36C178.055 102.414 183.017 104.842 187.956 107.327ZM207.364 99.9641C209.127 99.1 210.84 97.9672 212.532 96.8816C216.165 94.4008 219.862 92.1403 223.532 89.7867C225.516 88.4463 227.604 87.4665 229.552 86.0071C232.246 83.9434 234.769 81.4286 237.311 78.9779C243.027 73.3133 248.66 67.4617 254.26 61.5411C254.885 60.9285 255.51 60.3142 256.134 59.6988C255.112 60.5503 254.078 61.368 253.084 62.2913C245.104 69.3551 237.369 77.0243 229.42 84.1554C227.652 85.6882 225.698 86.611 223.829 87.815C219.121 90.7873 214.428 93.809 209.755 96.9019C207.999 97.9316 206.189 98.9388 204.293 99.1854C203.942 99.2479 203.608 99.1284 203.286 98.9394C203.356 98.9081 203.43 98.8769 203.516 98.8528C206.24 97.7557 208.991 96.5227 211.49 94.5411C213.316 93.0045 215.079 91.3014 216.92 89.8048C217.769 89.208 218.691 88.6918 219.521 87.838C221.981 85.3665 224.006 82.0615 226.213 79.121C229.918 74.3139 233.101 68.7161 236.457 63.3736C239.29 58.8115 242.331 54.4681 245.868 51.1664C247.973 49.3684 250.179 47.8954 252.435 46.6602C255.933 44.7926 259.398 42.7677 263.003 41.3906C267.066 39.5082 272.181 37.1403 275.64 35.8591C277.605 35.5221 279.341 34.0885 281.138 32.9662C284.306 30.9304 287.438 28.7379 290.383 26.0406C291.608 24.9495 292.715 23.6119 293.806 22.243C293.564 23.6206 292.726 25.0668 291.893 26.6927C290.75 29.0058 289.935 30.2969 288.503 32.821C285.851 37.4439 283.231 42.1562 280.163 46.1664C275.476 52.2081 271.91 56.739 267.24 62.1242C259.858 70.6187 251.2 75.9431 243.021 82.4002C238.478 85.6964 235.191 88.0534 230.824 90.6109C227.463 92.5837 223.99 94.0951 220.522 95.5988C217.368 96.9419 215.28 97.8549 212.227 98.941C211.045 99.4003 209.862 99.8507 208.678 100.289C208.241 100.173 207.803 100.066 207.364 99.9641ZM271.74 96.2197C272.833 95.8974 273.923 95.5642 275.013 95.225C273.174 95.9572 271.414 96.5583 269.685 97.0302C269.404 97.0608 269.123 97.0899 268.842 97.1239C269.809 96.8285 270.775 96.5243 271.74 96.2197ZM283.747 99.426C291.108 100.799 298.477 102.342 305.668 105.258C310.533 107.259 315.335 109.633 320.085 112.209C322.855 113.744 326.686 115.935 328.602 117.592C329.079 118.011 329.535 118.484 329.998 118.938C330.025 118.964 330.052 118.99 330.079 119.016C330.04 119.161 330.001 119.307 329.97 119.428C329.785 119.442 329.564 119.449 329.407 119.46C327.507 119.503 325.633 120.052 323.747 120.337C319.821 121.124 314.634 122.818 311.406 123.477C308.074 124.247 304.699 123.351 301.353 123.049C298.091 122.369 294.725 122.074 292.35 120.919C290.821 120.148 289.428 118.882 287.979 117.828C287.842 117.735 286.296 116.399 285.523 115.435C284.296 113.878 283.166 112.109 281.771 110.891C279.474 108.797 276.979 107.273 274.446 106.002C272.097 104.875 269.762 103.543 267.305 103.133C263.154 102.61 259.518 103.144 256.142 102.742C257.397 102.367 258.653 101.99 259.939 101.922C265.664 101.642 271.374 103.082 277.09 103.563C280.785 103.822 284.341 105.425 287.94 106.635C290.36 107.464 292.848 107.506 295.309 107.468C296.612 107.473 297.908 107.286 299.205 107.146C298.278 107.123 297.351 107.15 296.424 107.083C293.824 106.834 291.189 106.567 288.686 105.339C286.672 104.416 284.674 103.395 282.637 102.601C280.969 102.022 279.268 101.731 277.572 101.447C273.167 100.86 268.756 100.011 264.338 99.8063C265.345 99.6523 266.349 99.4572 267.349 99.2265C272.803 98.5837 278.283 98.4917 283.747 99.426ZM372.398 23.8705C368.586 29.1741 365.193 35.0974 362.225 41.5227C359.94 46.3418 357.795 52.0437 355.583 55.443C353.342 59.1338 350.634 62.1319 347.768 64.6242C344.45 67.179 340.932 69.0964 337.505 71.2933C332.912 74.3145 329.014 77.072 323.935 78.3993C320.343 79.5446 316.633 79.2514 313.005 79.9989C310.936 80.3573 308.888 80.8894 306.853 81.5168C312.209 78.2962 317.409 74.5139 322.504 70.4593C331.857 63.0711 340.857 54.5476 348.926 44.2506C349.514 43.513 350.102 42.7727 350.689 42.0329C349.996 42.7371 349.303 43.4412 348.611 44.1476C340.402 52.6575 331.752 60.1733 322.995 67.3313C316.731 72.3756 310.34 77.1416 303.662 80.8428C301.207 82.204 298.73 83.4573 296.235 84.6278C296.536 84.1215 296.916 83.6858 297.231 83.2704C298.939 81.1097 300.99 79.7797 302.968 78.2929C305.749 76.1645 308.622 74.2788 311.307 71.8819C315.151 68.1862 318.922 64.2313 322.33 59.6527C324.548 56.316 326.622 52.7627 328.849 49.4353C330.9 46.5983 333 43.838 335.046 40.9911C337.283 38.1898 340.082 35.3034 342.802 31.7836C345.608 28.072 349.111 24.9506 352.663 22.7679C354.215 21.8517 355.695 20.5896 357.344 20.1112C360.362 19.2251 363.464 19.1665 366.524 18.7292C370.098 18.2639 373.672 17.8387 377.265 17.8063C375.49 19.5271 373.879 21.5832 372.398 23.8705Z" fill="#15C0B6"/>
</svg>
