<svg width="391" height="377" viewBox="0 0 391 377" fill="none" xmlns="http://www.w3.org/2000/svg">
<path d="M351.199 300.957C351.632 300.852 352.065 300.746 352.497 300.64C359.689 298.832 366.869 296.897 373.951 294.444C379.498 292.307 384.975 289.869 390.472 287.525C384.726 289.399 379.019 291.466 373.278 293.366C367.629 295.012 361.956 296.518 356.283 298.022C354.185 298.554 352.084 299.075 349.981 299.586C348.638 298.587 347.687 297.652 346.658 296.154C345.741 294.574 345.028 292.807 344.124 291.217C342.415 288.29 340.808 285.26 339.575 281.942C338.379 279.62 336.834 277.638 335.343 275.643C333.37 273.342 331.608 270.753 329.589 268.519C328.411 267.142 327.111 265.969 325.851 264.73C325.014 263.816 322.143 260.825 320.648 259.338C319.433 258.039 318.856 257.674 317.828 256.096C317.323 255.356 316.772 254.606 316.14 254.069C315.663 253.816 315.097 253.906 314.62 254.118C313.227 254.623 314.129 256.771 314.302 258.41C314.893 263.505 316.177 268.419 318.283 272.789C320.136 276.627 322.073 280.42 324.446 283.749C325.682 285.491 326.911 287.278 328.398 288.664C330.715 290.771 333.283 292.351 335.779 294.055C338.564 295.877 341.416 297.552 344.383 298.803C344.904 298.99 345.432 299.14 345.962 299.272C346.331 299.626 346.712 299.959 347.1 300.276C339.746 302.014 332.364 303.564 324.942 304.684C320.007 305.346 315.051 305.688 310.118 306.363C309.046 306.555 307.416 306.814 305.785 307.076C305.54 306.921 305.159 306.817 304.689 306.754C303.655 306.05 302.663 305.226 301.739 304.291C301.155 303.604 299.197 301.383 298.533 300.679C296.348 297.661 294.228 294.534 292.431 291.098C290.048 286.797 288.272 281.995 286.059 277.549C282.829 271.028 278.559 265.487 275.659 258.664C273.742 254.508 272.613 251.041 271.273 246.56C270.806 245.263 269.424 245.289 268.591 245.942C268.019 246.478 268.042 247.536 267.8 248.329C267.155 251.501 266.31 254.77 266.596 258.094C266.962 259.859 267.366 261.607 267.606 263.417C268.199 268.921 268.884 274.51 270.662 279.604C272.235 284.29 275.328 287.623 278.245 290.857C283.069 296.266 288.852 299.893 294.708 302.971C296.096 303.736 297.506 304.426 298.944 304.995C299.879 305.997 300.87 306.982 301.95 307.709C301.293 307.825 300.771 307.926 300.471 308.001C296.752 308.273 293.033 308.545 289.314 308.817C279.603 309.462 269.857 309.507 260.173 308.219C257.554 307.902 254.948 307.444 252.354 306.894C252.359 306.893 252.365 306.893 252.37 306.892C252.363 306.892 252.356 306.892 252.349 306.893C247.955 305.961 243.596 304.742 239.268 303.365C238.576 302.877 237.902 302.342 237.248 301.776C233.566 298.654 229.061 295.48 226.207 292.17C223.551 289.284 221.756 285.388 219.771 281.753C217.741 277.817 215.791 273.811 213.814 269.829C209.79 262.48 205.268 255.615 201.227 248.275C199.032 244.402 197.188 240.208 195.012 236.325C193.658 234.194 192.156 232.235 190.715 230.208C188.94 227.948 187.184 225.664 185.244 223.644C182.578 220.863 180.517 218.989 178.152 215.753C177.247 214.51 176.347 213.252 175.562 211.875C175.083 210.999 174.674 210.058 174.152 209.223C173.782 208.653 173.343 208.024 172.732 208.042C172.199 208.009 171.561 208.168 171.213 208.722C171.154 208.805 171.13 208.904 171.14 209.021C171.259 209.868 171.403 210.708 171.593 211.533C172.51 215.501 173.655 219.369 174.804 223.229C175.822 226.634 177.001 229.955 178.019 233.36C179.006 236.539 179.826 239.808 181.078 242.836C182.467 246.54 184.41 249.808 185.999 253.36C188.839 259.852 192.108 265.998 195.806 271.706C200.357 278.427 205.848 283.963 211.523 288.961C213.75 290.932 215.908 293.072 218.286 294.729C219.929 295.736 221.551 296.8 223.18 297.847C220.029 296.687 216.891 295.469 213.774 294.156C205.438 290.638 198.227 286.907 190.683 282.539C185.923 279.781 181.181 276.946 176.617 273.663C167.477 266.947 158.872 259.007 150.633 250.539C150.46 250.284 150.285 250.034 150.124 249.765C148.81 247.509 147.78 244.968 146.804 242.441C146.145 240.369 145.01 237.074 143.962 234.518C142.621 230.983 141.414 228.242 140.527 224.745C139.807 221.555 139.51 218.221 139.213 214.926C138.259 207.5 137.561 199.951 137.819 192.41C138.661 181.82 144.38 170.41 143.821 158.792C143.609 154.741 142.602 150.866 141.375 147.164C139.807 141.99 137.669 137.15 135.043 132.772C132.875 129.045 130.607 125.348 127.839 122.35C126.884 121.373 126.48 120.574 125.023 119.749C124.064 119.298 122.889 119.563 122.091 120.376C121.992 120.497 121.947 120.644 121.953 120.818C122.177 121.524 122.425 122.215 122.671 122.908C124.921 128.974 126.659 134.014 128.617 140.051C130.19 144.941 132.026 149.895 132.463 155.227C132.714 157.505 131.283 160.881 130.37 162.462C129.339 164.297 127.971 165.765 126.95 167.615C124.46 172.155 122.229 177.276 121.746 182.918C121.646 184.867 122.009 186.785 122.179 188.711C123.073 198.71 125.063 208.622 128.677 217.549C130.047 220.921 131.597 224.16 133.292 227.267C134.839 230.236 136.45 233.145 138.096 236.018C133.394 230.061 128.737 223.745 124.292 217.798C120.762 213.164 117.485 208.217 114.088 203.418C111.82 200.275 109.783 196.869 107.656 193.565C104.448 188.609 101.196 183.708 98.3562 178.373C96.6233 175.405 94.9612 172.372 93.3447 169.299C92.4006 164.68 91.4457 160.063 90.6661 155.392C89.8665 151.031 89.3816 146.579 88.4048 142.272C86.9726 135.625 84.9492 129.052 84.7625 122.078C84.6088 119.314 84.7047 116.544 84.6733 113.776C84.5938 111.141 84.4665 108.51 84.3698 105.876C84.1114 98.2029 83.9352 90.5166 83.2616 82.8813C82.8663 78.1482 82.9066 73.3428 82.4012 68.6316C80.8773 60.6171 78.4432 52.9512 75.4497 45.693C71.9689 36.6734 68.6701 27.5316 64.9034 18.7061C63.2488 14.6147 61.8802 9.89044 58.6971 7.40909C57.3967 6.52681 55.7254 6.957 54.711 8.31659C52.3032 11.3076 55.2213 19.6082 56.412 22.9488C57.0635 24.8092 58.0311 26.4389 58.716 28.2758C60.1533 32.0499 61.5495 36.4153 62.4543 41.0196C63.48 46.9172 63.4138 52.9989 63.3376 59.0093C63.4372 63.549 63.6303 68.1017 64.1825 72.5899C65.0592 79.065 66.3177 85.4388 67.4301 91.8488C69.0474 100.727 70.1024 109.803 72.1208 118.546C73.9805 125.594 76.3515 132.396 78.9606 139.024C78.3385 137.663 77.7159 136.301 77.0938 134.94C75.4748 131.286 73.6704 127.762 72.2486 123.965C70.9227 119.863 68.3173 112.871 66.2398 108.079C63.0509 100.918 59.5286 94.0107 55.609 87.495C53.9452 84.8426 52.1203 82.4117 50.1973 80.1188C50.6821 80.5929 51.1762 81.0526 51.6899 81.4779C51.9608 81.6982 52.2317 81.9185 52.5025 82.1388C51.3043 80.9244 50.2007 79.5572 49.188 78.082C48.0165 76.4533 47.0561 74.5955 46.0015 72.8414C44.8472 70.931 43.5158 69.2147 42.4118 67.2501C39.8454 63.0574 38.5429 58.8224 36.9997 54.2209C36.0941 51.4781 35.1622 48.7502 34.2646 46.0026C32.7168 41.5753 31.7112 36.7781 29.5693 32.7475C26.6093 27.0626 22.6809 22.352 18.4796 18.2672C15.4824 15.3365 12.1912 12.9467 9.27731 9.86526C8.93526 9.49317 8.60198 9.10679 8.2817 8.70237C7.8086 8.10833 7.36652 7.47379 6.93739 6.82551C5.65459 4.91244 4.71677 2.66013 3.80199 0.427581C3.41388 -0.0700033 2.79675 -0.0294117 2.29393 0.0434723C1.56419 0.221024 0.767466 0.573932 0.31405 1.36798C-0.322742 3.07665 0.225716 4.993 0.108908 6.80524C-0.0585588 11.5679 -0.0455777 16.3475 0.331222 21.0938C0.648572 25.1698 1.32474 29.2014 2.70718 32.8971C3.50683 35.3609 4.26546 37.8867 5.46745 40.0743C7.47119 43.758 10.3177 46.464 12.8912 49.4221C17.8164 55.0155 23.7924 58.5978 29.0563 63.5632C33.6098 67.8716 38.141 72.2304 42.591 76.7229C45.2587 79.5012 50.0412 84.7867 52.7566 89.397C56.3053 95.2869 59.6048 101.433 62.504 107.904C63.8722 110.661 64.9357 113.637 66.0887 116.55C66.8954 118.601 67.7558 120.733 68.2138 122.16C69.4129 126.118 71.1408 129.723 72.8113 133.359C74.6538 137.393 76.4926 141.431 78.3376 145.464C81.5463 152.43 84.7064 159.44 88.0758 166.276C91.323 172.552 94.7958 178.619 98.2201 184.73C98.3022 184.862 98.3859 184.992 98.468 185.123C96.355 182.917 94.1774 180.821 91.8639 178.973C85.8087 173.902 79.4521 169.432 72.8564 165.687C65.2878 161.485 53.6078 157.382 46.7844 165.4C43.371 169.256 40.5551 174.216 39.3099 179.941C36.2775 193.882 41.9923 202.857 45.2943 215.279C45.8118 217.311 46.3937 219.339 46.6043 221.475C46.8258 224.267 46.6541 226.139 46.1639 228.587C45.1386 233.245 44.2125 237.972 42.5203 242.313C41.6482 244.665 41.0787 245.81 39.945 247.69C39.2864 248.904 38.4274 249.935 37.9204 251.283C36.9784 254.435 36.7255 258.477 38.3189 261.338C40.2724 264.827 43.3207 267.773 46.7789 267.266C50.8588 266.579 53.7631 258.977 55.3004 254.53C58.3127 244.949 60.1319 234.712 60.947 224.417C62.0356 213.883 61.3184 203.028 62.9868 193.232C63.4293 190.682 63.8392 188.011 64.8758 185.747C65.0236 185.518 65.495 184.782 65.6654 184.625C66.3529 183.798 67.1629 183.049 67.9563 182.484C68.9176 181.782 69.966 181.343 70.9842 180.814C72.3779 179.951 73.708 179.428 75.0946 179.272C76.1982 179.239 77.3496 179.389 78.5122 179.647C78.6391 179.693 78.7663 179.74 78.8932 179.787C82.3133 181.784 85.7848 183.618 89.2911 185.336C92.015 187.526 94.6936 189.809 97.4104 192.017C101.17 195.03 104.947 198.006 108.66 201.115C108.819 201.368 108.981 201.619 109.139 201.872C115.395 210.991 121.806 219.909 128.426 228.575C134.411 236.718 140.696 244.502 147.447 251.551C147.864 252.224 148.281 252.896 148.699 253.569C148.466 253.083 148.227 252.602 147.993 252.118C148.382 252.52 148.767 252.93 149.158 253.327C150.226 254.401 151.3 255.465 152.379 256.521C153.164 257.645 153.958 258.756 154.838 259.755C155.443 260.459 156.685 261.627 156.973 261.933C157.145 262.144 157.318 262.351 157.492 262.558C150.552 259.104 143.279 256.035 135.762 256.646C132.92 256.821 130.088 257.341 127.34 258.315C125.412 258.984 123.468 259.797 121.806 261.275C120.398 262.549 119.278 264.269 118.221 266.011C116.838 268.192 115.581 270.513 114.621 273.06C113.042 276.939 112.609 281.424 112.543 285.765C112.726 295.203 115.174 304.452 118.571 312.708C120.099 316.594 121.942 319.546 122.699 323.486C123.373 326.475 123.336 329.629 123.044 332.696C122.787 335.759 122.287 339.179 121.382 342.595C120.729 345.258 119.437 348.731 118.539 350.286C116.737 353.656 114.489 356.566 112.667 359.91C112.207 360.75 111.72 361.582 111.42 362.545C111.046 363.876 111.107 365.408 111.54 366.701C112.123 368.38 113.407 369.406 114.582 370.304C117.687 372.73 121.321 373.692 124.912 373.473C127.226 373.557 129.637 373.515 131.733 372.059C137.231 368.066 137.553 358.987 137.862 351.672C138.085 347.939 138.411 344.21 138.445 340.462C138.474 336.068 138.154 331.686 137.755 327.328C137.452 323.855 136.877 320.438 136.428 316.995C135.98 313.083 135.587 309.152 135.322 305.212C134.564 294.652 134.246 284.267 136.381 274.342C136.561 273.486 136.764 272.638 136.979 271.796C137.142 271.201 137.172 270.526 137.57 270.101C138.909 269.199 140.232 268.251 141.491 267.157C143.045 266.016 144.549 264.576 146.298 264.011C148.557 263.54 150.913 263.368 153.182 263.757C155.464 264.601 157.578 266.134 159.647 267.625C161.527 269.018 163.35 270.647 165.476 271.33C165.116 271.148 164.75 270.984 164.402 270.762C162.682 269.676 161.22 268.033 159.621 266.686C158.332 265.62 157.013 264.56 155.622 263.724C155.801 263.768 155.974 263.813 156.143 263.856C156.764 264.172 157.384 264.493 157.998 264.821C158.541 265.329 159.087 265.831 159.635 266.329C159.538 266.265 159.439 266.205 159.341 266.141C159.892 266.626 160.451 267.097 161.012 267.562C163.413 269.681 165.873 271.68 168.434 273.462C173.852 276.579 179.221 279.994 184.912 282.176C187.064 283.445 189.229 284.677 191.396 285.899C200.306 290.914 209.446 295.218 218.777 298.683C225.753 301.226 232.752 303.713 239.816 305.809C240.694 306.225 241.594 306.548 242.513 306.765C240.258 306.937 238.01 307.267 235.784 307.778C232.852 308.469 229.967 309.522 227.2 310.967C224.567 312.436 222.087 314.333 219.542 316.039C217.981 317.17 216.363 318.201 214.937 319.616C212.429 322.2 210.169 325.25 208.369 328.706C207.601 330.241 206.73 331.691 206.053 333.301C205.404 334.988 204.964 336.812 204.646 338.651C203.61 344.505 205.735 350.269 207.503 355.514C209.046 359.631 210.95 363.514 213.207 367.023C214.529 369.383 216.432 371.108 217.594 373.621C217.62 373.678 217.668 373.807 217.704 373.908C217.823 374.249 217.931 374.597 218.036 374.946C218.214 375.485 218.339 376.164 218.818 376.344C221.02 376.874 221.607 374.542 221.655 372.132C221.958 368.108 222.947 362.481 222.79 357.713C222.67 351.279 221.602 343.995 222.703 338.277C223.231 336.182 224.179 334.328 225.041 332.45C226.661 328.695 228.783 325.417 231.036 322.292C232.683 319.082 235.317 317.181 237.881 315.453C238.848 315.088 239.764 314.523 240.697 314.028C242.946 313.074 244.91 311.309 246.879 309.641C247.435 309.168 247.953 308.611 248.52 308.159C248.664 308.194 248.807 308.233 248.951 308.267C255.165 309.72 261.465 310.445 267.768 310.821C278.619 311.562 289.481 310.552 300.312 309.722C300.56 309.679 300.808 309.636 301.056 309.593C298.421 312.161 296.445 315.811 294.901 319.572C293.682 322.795 292.463 326.094 291.88 329.627C291.351 333.26 291.428 336.987 291.504 340.667C291.621 343.973 292.076 347.232 292.452 350.499C293.098 356.877 294.313 363.314 296.918 368.836C297.133 369.223 297.345 369.626 297.639 369.918C298.381 370.363 299.365 370.168 300.015 369.554C300.499 368.912 300.708 367.961 301 367.154C301.643 365.143 302.156 363.066 302.813 361.064C304.743 355.353 307.873 350.295 308.866 344.087C309.226 341.955 309.244 339.766 309.321 337.594C309.453 335.263 309.453 332.904 308.987 330.629C308.472 328.161 307.729 325.781 307.175 323.325C306.647 321.162 306.163 318.971 305.328 316.967C304.643 315.267 303.825 313.636 303.346 311.809C303.24 311.401 303.15 310.987 303.069 310.57C303.649 309.978 304.274 309.424 304.954 308.914C308.424 308.312 311.897 307.745 315.39 307.422C326.398 306.52 337.297 304.28 348.139 301.692C347.803 301.818 347.472 302.028 347.325 302.433C347.322 302.604 347.331 302.774 347.346 302.944C345.866 305.364 344.922 308.29 344.081 311.172C343.557 312.913 343.044 314.686 342.881 316.558C342.69 318.728 342.917 320.921 343.25 323.049C343.907 327.784 345.485 332.137 346.902 336.539C347.869 339.674 348.726 342.88 349.981 345.845C350.335 346.808 350.693 347.786 351.287 348.541C352.635 350.334 354.2 351.824 355.788 353.227C357.053 354.315 359.377 355.418 360.139 353.001C360.306 352.517 360.151 352.048 360.028 351.585C359.86 350.596 359.723 349.596 359.656 348.586C359.494 341.842 359.414 335.025 358.099 328.454C357.255 323.719 355.724 319.266 354.693 314.604C354.292 312.703 353.913 310.793 353.474 308.906C353.272 307.79 352.943 306.729 352.43 305.794C351.78 304.626 351.173 303.373 350.336 302.416C350.324 302.4 350.31 302.386 350.298 302.37C350.53 301.987 351.091 301.456 351.199 300.957ZM344.901 298.441C342.177 296.984 339.59 295.127 337.051 293.188C334.739 291.347 332.332 289.669 330.187 287.497C327.015 283.713 324.324 279.225 321.983 274.527C319.706 270.166 318.203 266.35 317.346 261.253C317.214 260.489 317.108 259.717 316.999 258.947C318.3 260.36 319.661 261.679 320.974 263.071C323.191 265.55 325.862 267.9 328.198 270.751C329.858 272.834 331.458 274.997 333.133 277.062C334.734 279.321 336.544 281.494 337.521 284.345C338.699 287.411 340.365 290.098 341.917 292.847C342.349 293.679 342.745 294.556 343.169 295.402C340.969 293.063 338.948 290.464 336.806 288.037C334.914 286 333.233 284.13 331.323 282.065C334.739 287.274 338.687 291.955 343.205 295.472C343.606 296.267 344.033 297.033 344.543 297.709C344.792 298.029 345.052 298.331 345.321 298.621C345.181 298.563 345.04 298.505 344.901 298.441ZM289.815 298.816C286.623 296.488 283.558 293.842 280.816 290.67C278.162 287.517 275.24 284.504 273.48 280.335C271.502 275.58 270.643 268.791 270.044 262.849C269.814 261.178 269.505 259.533 269.124 257.911C268.843 255.304 269.259 253.032 269.793 250.609C270.074 251.455 270.368 252.295 270.644 253.144C272.128 257.375 273.926 261.427 275.99 265.22C278.4 269.816 281.37 273.867 283.604 278.63C285.477 282.433 287.012 286.513 288.932 290.274C290.41 293.212 292.068 295.981 293.844 298.616C291.993 296.545 290.179 294.381 288.303 292.295C283.995 287.246 279.479 282.387 275.775 276.547C275.55 276.183 275.324 275.82 275.094 275.462C275.434 276.226 275.756 277.003 276.101 277.762C279.601 284.793 284.363 290.638 289.495 295.608C291.469 297.513 293.461 299.411 295.561 301.072C295.692 301.254 295.821 301.437 295.953 301.617C297.065 302.887 297.561 303.317 298.491 304.466C295.501 302.874 292.657 300.806 289.815 298.816ZM33.2995 62.9445C28.0352 57.8668 20.5026 52.8646 16.3486 48.1693C13.5917 45.0227 10.5208 42.1775 8.43957 38.1793C7.56958 36.4816 6.77618 34.3219 6.3885 33.1256C5.58843 30.7917 5.11577 29.8185 4.52126 27.2736C3.42896 22.4966 3.2062 17.4742 3.08562 12.5176C3.03036 10.3332 3.13505 8.14781 3.13254 5.96457C4.65983 8.64649 6.51117 10.9887 8.68238 12.8283C11.2216 15.2696 13.9467 17.3608 16.4419 19.8805C20.5172 23.9182 24.9823 29.408 27.8523 35.9446C28.8717 38.4434 29.8087 41.9007 30.8265 45.1246C32.8449 51.1954 34.7695 57.3752 37.4075 63.0415C39.3179 67.0304 42.0505 70.1228 44.6236 73.345C45.3906 74.4109 46.1697 75.4674 46.9748 76.4878C42.5562 71.7536 37.801 67.5006 33.2995 62.9445ZM89.7308 162.194C88.2499 157.95 86.7637 153.702 85.2029 149.389C82.0541 140.579 78.6913 132.559 76.0202 123.848C74.2505 118.438 73.1709 112.731 72.3005 106.975C71.4987 102.197 70.733 97.4082 69.9459 92.6258C68.4718 83.6923 66.4219 74.8476 65.9626 65.6889C65.33 56.5384 66.5471 47.1145 64.4136 38.2018C63.4477 34.283 62.2809 30.4366 60.8315 26.7787C59.1811 23.1811 58.0101 20.4148 57.1029 16.4796C56.5247 13.79 55.8581 10.5305 56.8826 8.8876C56.9287 8.92377 56.9797 8.96324 57.0358 9.00654C57.3272 9.2756 58.2127 10.3502 58.8009 11.2846C60.4266 13.7056 61.2572 16.7942 62.4479 19.5725C65.8952 27.6566 68.9754 35.9884 72.0718 44.3087C74.452 50.3581 76.4218 55.4473 78.0864 61.9439C78.9137 65.5015 79.9604 69.0673 79.9198 72.8338C80.1032 75.8127 80.207 78.7976 80.3175 81.782C80.5059 84.6831 80.8019 87.5738 80.9359 90.4799C81.3022 98.0834 81.4701 105.699 81.7916 113.306C81.8871 117.845 81.6865 122.41 82.2082 126.92C83.1313 133.931 85.2665 140.526 86.9035 147.276C86.9245 147.376 86.9471 147.475 86.9684 147.575C85.3951 142.188 83.6815 136.868 82.0215 131.528C80.3887 126.376 78.5001 121.339 77.2634 115.989C76.4302 111.827 76.3958 107.468 75.898 103.226C75.2244 97.0855 74.5604 90.9221 73.3282 84.9231C72.5156 81.3261 71.9923 77.643 71.6264 73.9253C71.5594 76.136 71.6749 80.6614 72.0936 83.6343C72.9833 90.6465 73.3325 97.7469 73.8236 104.82C74.1401 108.768 74.1233 112.819 74.9728 116.653C76.2752 122.256 78.3389 127.475 80.2652 132.739C82.9526 140.188 85.9461 147.438 88.6691 154.862C89.7383 159.025 90.9475 163.125 92.2361 167.183C91.3866 165.532 90.5543 163.868 89.7308 162.194ZM83.8682 181.622C84.4162 181.824 84.963 182.032 85.5111 182.235C86.0884 182.55 86.6633 182.873 87.2335 183.21C86.1161 182.664 84.9936 182.138 83.8682 181.622ZM83.5827 179.518C83.1963 179.349 82.8073 179.188 82.4167 179.036C78.7617 177.529 75.0896 176.096 71.3965 174.773C65.4552 172.735 59.7036 174.53 54.7964 179.25C51.5463 182.136 49.046 186.126 46.6977 190.186C48.2054 188.246 49.5798 186.126 51.1896 184.328C54.0169 181.036 57.4696 178.108 60.9182 176.479C63.6525 175.25 66.1326 175.189 68.8807 175.996C70.5981 176.493 72.282 177.154 73.9604 177.84C72.403 178.161 70.8874 178.793 69.4564 179.666C66.3972 181.137 62.8938 183.176 61.5662 187.364C59.485 194.757 59.1372 202.712 58.9479 210.516C58.837 216.071 58.4916 221.599 58.0315 227.122C57.5144 232.812 56.325 240.369 54.8433 246.612C53.6552 251.631 52.2543 256.64 50.055 261.067C50.2728 260.604 50.0621 261.085 49.965 261.229C49.8139 261.505 49.6569 261.776 49.4932 262.039C48.8334 263.096 48.073 264.303 47.3278 265.107C47.3567 265.062 47.3266 265.091 47.2378 265.193C47.0034 265.346 46.8367 265.588 46.6956 265.625C46.6847 265.624 46.678 265.625 46.6638 265.624C46.4758 265.681 46.0559 265.491 45.6327 265.353C44.9138 265.066 44.223 264.652 43.6163 264.066C43.0486 263.679 40.6476 260.278 40.4433 259.456C39.7676 257.82 39.904 254.735 40.0359 253.765C40.3289 251.37 40.8356 250.51 41.9182 248.873C44.6932 244.521 46.4557 239.238 47.6464 233.825C48.2844 230.625 49.249 227.495 49.3642 224.158C49.6254 219.71 48.1969 215.506 47.018 211.434C45.7247 207.192 44.249 203.054 42.8938 198.847C40.8168 191.706 40.4993 184.272 42.5659 177.469C43.7226 173.882 44.8263 171.611 46.7321 168.873C48.2188 166.793 49.8662 164.629 51.8168 163.518C57.6128 160.872 65.2472 163.859 71.3062 167.214C80.861 172.908 90.4199 178.802 99.2228 186.326C99.2802 186.418 99.3388 186.508 99.3966 186.599C98.8506 186.284 98.2888 186.008 97.7391 185.713C95.6889 184.786 93.6373 183.863 91.5796 182.966C88.9227 181.785 86.2576 180.633 83.5827 179.518ZM100.965 192.97C100.51 192.603 100.052 192.243 99.5846 191.901C97.3526 190.208 95.099 188.564 92.8068 187.022C93.3071 187.256 93.8061 187.492 94.3073 187.722C94.8662 188.086 95.4259 188.447 95.9878 188.801C97.3853 189.705 98.7807 190.616 100.18 191.516C99.1742 190.678 98.1669 189.844 97.1575 189.014C98.12 189.444 99.0834 189.868 100.048 190.289C98.3964 189.252 96.7275 188.267 95.0478 187.315C93.8475 186.341 92.6456 185.367 91.4302 184.425C93.3246 185.109 95.2228 185.775 97.1177 186.455C98.2682 186.839 99.3626 187.415 100.388 188.156C102.329 191.217 104.292 194.256 106.244 197.306C104.545 195.735 102.778 194.298 100.965 192.97ZM137.763 228.64C134.962 221.92 132.809 215.176 131.79 207.304C130.99 203.436 131.011 199.441 131.02 195.466C130.95 192.131 130.621 189.215 131.145 186.256C131.349 184.637 131.44 183.007 131.74 181.411C132.508 178.209 133.213 174.928 133.26 171.549C133.269 171.076 133.274 170.602 133.283 170.13C133.153 170.997 133.043 171.869 132.89 172.73C132.308 176.246 130.941 179.392 130.046 182.757C129.59 185.044 129.063 187.321 128.734 189.646C128.556 191.582 128.641 193.541 128.563 195.484C128.43 199.105 128.131 202.783 128.75 206.356C129.139 209.7 129.815 212.933 130.708 216.06C130.36 215.17 130.022 214.274 129.705 213.362C127.448 206.989 125.515 197.841 124.855 190.079C124.674 187.533 124.174 185.005 124.272 182.439C124.717 177.402 127.4 170.91 129.895 166.999C131.925 164.136 134.104 161.239 134.951 157.379C135.584 154.227 134.72 150.948 133.978 147.954C132.073 141.112 129.721 134.496 127.445 127.856C126.967 126.504 126.463 125.169 125.958 123.835C128.847 127.11 131.628 131.812 134.08 136.195C136.292 140.206 137.769 144.097 139.059 148.282C141.115 154.193 141.998 161.056 140.866 166.839C139.855 173.29 137.925 179.416 136.446 185.693C135.499 189.768 135.091 194.004 135.331 198.257C135.401 204.69 136.289 211.012 136.945 217.365C137.297 220.134 137.52 222.955 138.22 225.622C139.121 228.95 140.444 232.044 141.648 235.193C142.696 237.777 143.466 239.934 144.247 242.285C143.542 241.024 142.837 239.763 142.15 238.484C140.601 235.271 139.143 231.982 137.763 228.64ZM143.15 242.235C142.643 241.21 142.135 240.185 141.628 239.16C142.615 240.652 143.635 242.107 144.682 243.532C144.803 243.84 144.924 244.149 145.048 244.457C144.416 243.73 143.783 242.987 143.15 242.235ZM149.003 262.519C147.512 262.597 145.988 262.691 144.571 263.357C142.175 264.553 140.001 266.403 137.803 268.111C136.929 268.797 135.815 269.133 135.2 270.27C134.64 271.867 134.333 273.64 133.968 275.337C131.677 286.909 132.455 298.987 133.484 310.723C133.926 316.943 135.124 323.009 135.631 329.216C136.406 336.659 136.266 344.167 135.642 351.619C135.412 355.593 135.406 359.022 134.646 362.607C134.25 364.681 133.687 366.751 132.637 368.419C131.615 370.114 130.277 371.61 128.591 371.907C127.593 372.131 126.575 371.959 125.569 371.991C123.789 372.035 121.992 371.967 120.28 371.256C117.888 370.276 115.465 368.762 114.171 366.631C113.658 365.839 113.481 363.839 113.723 362.856C114.158 361.267 114.508 360.986 115.228 359.59C117.176 356.233 119.47 353.219 121.25 349.688C123.647 344.728 124.876 338.928 125.471 333.151C126.305 326.769 125.463 321.155 122.711 315.768C117.462 304.066 112.488 286.994 116.906 273.804C118.058 270.569 119.051 268.723 120.705 266.043C122.173 263.453 124.015 261.152 126.441 260.261C132.177 257.802 138.393 257.456 144.302 258.992C145.821 259.448 147.303 259.969 148.759 260.533C145.302 260.003 141.795 260.027 138.344 260.585C135.35 260.786 132.548 261.872 129.742 263.179C127.763 263.854 125.991 265.155 124.476 266.95C121.341 270.244 121.079 276.068 121.327 280.942C121.775 290.944 124.131 300.542 126.8 309.862C125.538 301.562 124.224 293.236 123.958 284.755C123.855 280.128 123.627 275.986 124.662 271.959C125.189 269.828 125.995 268.339 126.982 267.358C127.971 266.333 128.735 265.513 129.649 265.11C130.51 264.761 134.542 262.968 135.359 262.805C137.271 262.425 139.204 262.255 141.127 261.985C142.811 261.905 144.496 261.907 146.181 261.983C147.043 261.966 148.527 262.184 150.182 262.503C149.788 262.506 149.394 262.514 149.003 262.519ZM169.569 272.436C166.96 270.676 164.393 268.815 161.843 266.916C162.47 267.22 163.113 267.391 163.74 266.997C166.704 269.547 169.722 271.984 172.801 274.285C171.721 273.676 170.644 273.06 169.569 272.436ZM231.452 300.773C230.865 300.453 230.286 300.119 229.709 299.774C226.068 295.601 222.34 291.549 218.859 287.146C215.937 283.381 213.41 279.137 210.676 275.145C206.001 269.008 200.786 263.531 196.717 256.641C195.902 255.352 195.082 254.068 194.26 252.788C194.765 253.883 195.272 254.976 195.783 256.067C196.995 258.602 198.145 261.209 199.615 263.508C202.367 267.871 205.4 271.897 208.386 275.977C211.103 280.154 213.875 284.319 217.07 287.887C220.982 292.176 225.222 295.911 229.458 299.622C227.841 298.646 226.221 297.575 224.434 296.401C222.551 295.122 220.568 294.087 218.757 292.634C212.293 287.084 205.866 281.354 200.344 274.224C197.1 269.986 194.406 265.079 191.78 260.178C190.173 257.064 188.82 253.742 187.278 250.573C185.401 246.835 183.267 242.462 182.172 238.914C179.994 231.062 177.166 223.474 175.11 215.56C177.92 219.537 181.353 222.791 184.153 225.828C186.522 228.479 188.681 231.441 190.803 234.426C192.366 236.48 193.661 238.81 194.791 241.295C196.261 244.182 197.71 247.091 199.293 249.875C201.415 253.56 203.544 257.238 205.727 260.861C207.847 264.307 210.002 267.735 211.87 271.426C213.919 275.515 215.906 279.66 218.05 283.666C219.901 287.124 221.691 290.716 224.255 293.357C227.183 296.534 230.504 298.98 233.755 301.55C232.987 301.294 232.219 301.035 231.452 300.773ZM246.461 309.297C245.083 310.307 244.058 311.103 242.756 311.943C241.546 312.72 240.919 312.968 239.737 313.463C238.877 313.9 238.015 314.32 237.123 314.623C235.451 315.623 233.766 316.644 232.256 318.032C230.344 319.582 229.22 321.829 227.668 323.869C225.861 326.305 224.324 329.04 223.01 331.964C222.044 334.065 220.949 336.122 220.377 338.478C219.222 345.208 220.414 352.127 220.439 358.931C220.447 362.794 219.93 365.958 219.574 369.461C219.456 370.18 219.392 370.953 219.336 371.7C218.713 370.636 217.942 369.704 217.219 368.758C216.45 367.742 215.772 366.616 215.075 365.517C212.12 360.763 209.835 355.586 208.343 350.285C207.459 347.211 206.58 343.983 206.751 340.649C206.905 338.212 207.602 334.772 208.851 332.184C211.05 327.685 213.59 323.402 216.843 320.122C217.898 319.12 219.032 318.278 220.179 317.466C217.992 319.521 216.363 322.453 214.726 325.213C212.476 329.187 210.606 333.491 208.768 337.803C211.556 333.059 214.279 328.235 217.376 323.822C218.951 321.691 220.426 319.335 222.248 317.894C223.805 316.911 226.337 315.382 228.054 314.808C230.54 314.034 232.842 314.016 235.575 313.798C237.636 313.677 239.748 313.348 241.683 312.365C242.951 311.641 243.939 310.362 244.906 309.111C243.757 310.234 242.62 311.447 241.237 312.053C240.004 312.563 238.612 312.656 237.407 312.789C234.217 312.862 230.981 312.585 227.835 313.441C225.755 314.021 223.751 315.066 221.837 316.3C221.942 316.226 222.047 316.152 222.151 316.077C224.102 314.75 226.001 313.322 228.041 312.13C232.245 309.787 236.779 308.664 241.313 308.149C243.028 307.927 244.81 308.12 246.498 307.657C247.016 307.789 247.534 307.92 248.052 308.047C247.508 308.429 246.997 308.901 246.461 309.297ZM304.202 317.282C304.862 319.427 305.13 321.714 305.506 323.96C305.873 326.572 306.537 329.1 306.836 331.727C307.103 333.916 306.931 336.126 306.749 338.314C306.571 341.976 306.293 344.758 305.175 348.365C303.29 353.99 300.393 358.982 298.935 364.87C298.858 365.118 298.783 365.369 298.708 365.62C296.113 358.888 295.33 350.312 294.572 342.426C294.285 338.53 294.273 333.249 294.632 330.217C294.96 327.433 295.837 324.836 296.694 322.274C297.909 318.832 299.226 315.646 301.099 312.971C300.704 316.367 300.624 319.808 300.589 323.246C300.258 328.939 299.524 334.606 298.351 340.107C300.286 334.828 301.672 329.104 301.999 323.245C302.008 319.518 301.734 315.788 301.777 312.058C302.058 311.701 302.349 311.352 302.655 311.018C302.691 311.395 302.734 311.77 302.794 312.143C303.09 313.928 303.701 315.587 304.202 317.282ZM350.901 309.187C351.538 312.012 352.069 314.876 352.759 317.681C353.959 322.129 355.245 326.557 355.94 331.2C356.64 335.624 356.873 340.145 356.962 344.653C357.018 346.611 356.931 348.585 357.188 350.524C357.225 350.828 357.267 351.132 357.314 351.433C356.967 351.111 356.627 350.774 356.283 350.452C355.186 349.38 354.338 348.553 353.268 346.852C352.668 345.613 352.214 344.254 351.697 342.952C351.138 341.388 350.041 337.631 349.31 335.27C347.334 329.31 345.245 323.014 345.525 316.381C345.827 313.804 346.858 310.029 348.09 306.809C348.468 309.652 348.668 312.538 349.327 315.308C350.007 318.479 350.792 321.639 351.955 324.57C352.779 326.57 353.871 328.355 354.807 330.267C354.929 330.486 355.281 331.244 355.044 330.649C353.722 327.194 352.28 323.791 351.716 319.954C350.878 315.71 350.491 311.367 350.252 307.008C350.551 307.675 350.769 308.336 350.901 309.187Z" fill="#15C0B6"/>
</svg>
