<?xml version="1.0" encoding="utf-8"?>
<!-- Generator: Adobe Illustrator 27.5.0, SVG Export Plug-In . SVG Version: 6.00 Build 0)  -->
<svg version="1.1" xmlns="http://www.w3.org/2000/svg" xmlns:xlink="http://www.w3.org/1999/xlink" x="0px" y="0px"
	 viewBox="0 0 500 500" style="enable-background:new 0 0 500 500;" xml:space="preserve">
<g id="Background_Simple">
	<g>
		<path style="fill:#15C0B6;" d="M44.414,320.293c0,0,26.721,70.503,102.129,96.866c75.408,26.363,158.497,0.426,226.365-18.812
			c67.867-19.238,105.853-75.291,93.948-135.193c-11.905-59.903-68.33-58.53-118.116-113.74
			c-49.786-55.211-54.667-77.472-126.554-96.649C150.299,33.588,67.709,90.753,43.479,176.393
			C19.251,262.033,44.414,320.293,44.414,320.293z"/>
		<path style="opacity:0.7;fill:#FFFFFF;" d="M44.414,320.293c0,0,26.721,70.503,102.129,96.866
			c75.408,26.363,158.497,0.426,226.365-18.812c67.867-19.238,105.853-75.291,93.948-135.193
			c-11.905-59.903-68.33-58.53-118.116-113.74c-49.786-55.211-54.667-77.472-126.554-96.649
			C150.299,33.588,67.709,90.753,43.479,176.393C19.251,262.033,44.414,320.293,44.414,320.293z"/>
	</g>
</g>
<g id="Clouds">
	<g>
		<g>
			<path style="fill:none;stroke:#263238;stroke-miterlimit:10;" d="M202.456,83.631c-2.469,2.679-4.266,5.989-5.123,9.66
				c-2.333-3.134-6.06-5.167-10.269-5.167c-2.287,0-4.43,0.606-6.289,1.656c-1.145-12.763-11.864-22.767-24.924-22.767
				c-12.015,0-22.049,8.468-24.469,19.76c-2.939-2.892-6.968-4.681-11.417-4.681c-4.13,0-7.901,1.538-10.772,4.071"/>
			<path style="fill:none;stroke:#263238;stroke-miterlimit:10;" d="M270.648,57.242c-1.672-0.261-3.385-0.397-5.13-0.397
				c-15.837,0-29.063,11.161-32.254,26.046c-3.874-3.813-9.185-6.17-15.049-6.17c-4.046,0-7.828,1.121-11.055,3.069"/>
			<path style="fill:none;stroke:#263238;stroke-miterlimit:10;" d="M289.194,66.866c-2.321-2.393-5.002-4.435-7.955-6.04"/>
			<path style="fill:none;stroke:#263238;stroke-miterlimit:10;" d="M277.309,98.981h60.975c-1.884-3.094-5.277-5.167-9.165-5.167
				c-2.452,0-4.705,0.831-6.512,2.215c-2.295-6.607-8.559-11.358-15.947-11.358c-3.015,0-5.839,0.799-8.29,2.183
				c-0.553-6.16-2.798-11.833-6.267-16.549"/>
			<path style="fill:none;stroke:#263238;stroke-miterlimit:10;" d="M106.642,89.01c-1.866,2.649-2.962,5.881-2.962,9.368
				c0,0.204,0.023,0.401,0.03,0.603h93.08h14.266h54.251"/>
		</g>
		<g>
			<path style="fill:none;stroke:#263238;stroke-miterlimit:10;" d="M323.02,109.84c-2.562-2.186-5.885-3.506-9.517-3.506
				c-7.043,0-12.926,4.964-14.345,11.584c-1.723-1.696-4.085-2.744-6.693-2.744c-4.522,0-8.301,3.148-9.288,7.37
				c-1.038-1.394-2.695-2.298-4.567-2.298c-1.017,0-1.97,0.27-2.797,0.737c-0.509-5.676-5.276-10.126-11.085-10.126
				c-5.343,0-9.806,3.766-10.883,8.788c-1.307-1.286-3.099-2.082-5.078-2.082c-4,0-7.243,3.243-7.243,7.243
				c0,0.091,0.01,0.179,0.013,0.268h41.397h6.345h56.585c-0.838-1.376-2.347-2.298-4.076-2.298c-1.091,0-2.093,0.37-2.896,0.985
				c-1.021-2.939-3.807-5.051-7.092-5.051c-1.341,0-2.597,0.355-3.687,0.971c-0.1-1.116-0.325-2.195-0.66-3.225"/>
		</g>
	</g>
</g>
<g id="Mountain">
	<g>
		<g>
			<path style="fill:none;stroke:#263238;stroke-linecap:round;stroke-linejoin:round;stroke-miterlimit:10;" d="M48.726,232.833
				c0,0,137.153-127.278,152.861-128.202C217.134,103.716,328.71,218.95,328.71,218.95s76.822-66.762,85.053-66.762
				c8.231,0,19.206,14.633,19.206,14.633"/>
			
				<line style="fill:none;stroke:#263238;stroke-linecap:round;stroke-linejoin:round;stroke-miterlimit:10;" x1="294.871" y1="197.915" x2="287.964" y2="191.317"/>
			
				<line style="fill:none;stroke:#263238;stroke-linecap:round;stroke-linejoin:round;stroke-miterlimit:10;" x1="216.361" y1="132.465" x2="239.998" y2="154.017"/>
			
				<line style="fill:none;stroke:#263238;stroke-linecap:round;stroke-linejoin:round;stroke-miterlimit:10;" x1="208.903" y1="125.666" x2="213.295" y2="129.67"/>
		</g>
		
			<line style="fill:none;stroke:#263238;stroke-linecap:round;stroke-linejoin:round;stroke-miterlimit:10;" x1="280.39" y1="184.083" x2="233.596" y2="139.384"/>
	</g>
</g>
<g id="Trees">
	<path d="M447.647,404.02c-0.904-7.231-13.558,3.616-13.558,3.616s2.712-6.327,2.712-13.558c0-7.231-9.039,1.808-9.039,1.808
		s6.327-11.75,5.423-24.405c-0.904-12.654-14.462,1.808-14.462,1.808s5.423-18.982,6.327-24.405
		c0.904-5.423-25.309,6.327-25.309,6.327s1.808-8.135,2.712-16.27c0.463-4.164-4.026-2.425-8.519,0.263
		c-1-3.627-3.672-3.874-6.648-2.738c0.195-0.905,0.404-1.881,0.63-2.938c1.037-4.862-5.935,0.621-11.703,5.811
		c-0.475-4.34-2.256-10.815-8.107-16.667c-4.365-4.365-9.078,0.503-12.993,7.339l-6.493,1.983c-0.081-1.264-0.209-2.566-0.399-3.899
		c-1.169-8.181-8.004,0.639-12.691,7.897l-5.035,1.538c-0.801-5.116-2.766-12.586-7.582-18.473
		c-8.135-9.943-27.117,18.078-27.117,18.078s-11.75-18.982-16.27-9.039c-4.519,9.943,1.808,30.732,1.808,30.732
		s-2.712-7.231-6.327-9.039c-3.616-1.808-13.558,6.327-13.558,6.327s5.423-12.654,0-17.174
		c-4.902-4.085-11.281,10.291-12.461,13.091c0.834-2.12,3.983-11.304,1.614-23.938c-2.712-14.462-13.558,4.52-13.558,4.52
		s1.808-18.078-8.135-20.789c-9.943-2.712,4.519,0-5.423,18.078c-9.943,18.078-6.327-12.654-20.789-10.847
		c-14.462,1.808-10.847,56.041-10.847,56.041l-56.945-32.54c0,0-2.712-5.423-11.893-7.068c-9.182-1.644-3.473,12.491-3.473,12.491
		s-12.654-11.75-18.078-11.75c-1.409,0-5.741,6.273-11.377,15.549c-0.408-0.951-0.834-1.918-1.278-2.894
		c-3.423-7.531-6.327,9.307-7.535,17.921c-0.327,0.572-0.655,1.148-0.984,1.727c-0.751-4.229-2.88-11.513-8.655-11.513
		c-7.007,0-3.287,24.123-2.12,30.819c-0.015,0.027-0.029,0.053-0.044,0.08c-0.896-3.811-3.487-13.01-7.779-13.725
		c-5.423-0.904-0.904,19.885-0.904,19.885s-3.616-2.712-6.327-2.712c-1.949,0,0.772,12.612,2.457,19.703
		c-5.669,10.579-9.531,17.944-9.531,17.944l36.018-19.569h189.171l-9.153,12.654h180.612
		C444.032,422.097,448.551,411.251,447.647,404.02z"/>
	<path style="fill:#263238;" d="M229.151,421.882c2.161,0,4.375,0,6.567,0l4.031-145.056l8.424-25.356l-8.876,16.713l1.314-16.318
		l14.197-28.908l-13.681,18.048l-1.178-43.27l-1.857,26.637l-6.708-3.982l5.882,8.901l-1.603,31.499l-5.313-8.389l4.572,14.927
		L229.151,421.882z"/>
	<g>
		<path style="fill:#15C0B6;" d="M254.216,431.491c-2.336-9.277-6.169-20.806-11.501-25.099c-9.488-7.639-24.907,4.365-33.209-1.091
			s9.488-58.928-18.977-62.202c-28.465-3.274-39.14,51.289-52.186,56.745c-13.046,5.456-17.791-14.186-35.581-15.278
			c-15.553-0.954-45.607,37.287-52.923,46.924H254.216z"/>
		<path style="opacity:0.46;" d="M254.216,431.491c-2.336-9.277-6.169-20.806-11.501-25.099c-9.488-7.639-24.907,4.365-33.209-1.091
			s9.488-58.928-18.977-62.202c-28.465-3.274-39.14,51.289-52.186,56.745c-13.046,5.456-17.791-14.186-35.581-15.278
			c-15.553-0.954-45.607,37.287-52.923,46.924H254.216z"/>
	</g>
	<path style="fill:#C7CACB;" d="M191.02,421.882c2.161,0,4.375,0,6.567,0l4.031-145.056l8.424-25.356l-8.876,16.713l1.314-16.318
		l14.197-28.908l-13.681,18.048l-1.179-43.27l-1.857,26.637l-6.708-3.982l5.882,8.901l-1.603,31.499l-5.313-8.389l4.572,14.927
		L191.02,421.882z"/>
	<path style="fill:#A8ADAF;" d="M102.589,421.882c2.161,0,4.375,0,6.567,0l4.031-145.056l8.424-25.356l-8.876,16.713l1.314-16.318
		l14.197-28.908l-13.681,18.048l-1.178-43.27l-1.858,26.637l-6.708-3.982l5.882,8.901l-1.603,31.499l-5.313-8.389l4.572,14.927
		L102.589,421.882z"/>
	<path style="fill:#C7CACB;" d="M291.084,421.882c2.161,0,4.375,0,6.567,0l4.031-111.454l8.424-19.482l-8.876,12.842l1.314-12.538
		l14.197-22.211l-13.681,13.867l-1.178-33.246l-1.857,20.467l-6.708-3.06l5.882,6.839l-1.603,24.202l-5.313-6.445l4.572,11.469
		L291.084,421.882z"/>
	<path style="fill:#C7CACB;" d="M214.342,421.882c2.161,0,4.375,0,6.567,0l4.031-111.454l8.424-19.482l-8.876,12.842l1.314-12.538
		l14.197-22.211l-13.681,13.867l-1.178-33.246l-1.858,20.467l-6.708-3.06l5.882,6.839l-1.603,24.202l-5.313-6.445l4.572,11.469
		L214.342,421.882z"/>
	<path style="fill:#C7CACB;" d="M264.588,421.882c2.161,0,4.375,0,6.567,0l4.031-111.454l8.424-19.482l-8.876,12.842l1.314-12.538
		l14.197-22.211l-13.681,13.867l-1.178-33.246l-1.858,20.467l-6.708-3.06l5.882,6.839l-1.603,24.202l-5.313-6.445l4.572,11.469
		L264.588,421.882z"/>
	<path style="fill:#263238;" d="M410.071,421.882c2.161,0,4.375,0,6.567,0l4.031-145.056l8.424-25.356l-8.876,16.713l1.314-16.318
		l14.197-28.908l-13.681,18.048l-1.178-43.27l-1.858,26.637l-6.708-3.982l5.882,8.901l-1.603,31.499l-5.313-8.389l4.572,14.927
		L410.071,421.882z"/>
	<path style="fill:#8A9094;" d="M370.317,421.882c2.161,0,4.375,0,6.567,0l4.031-145.056l8.424-25.356l-8.876,16.713l1.314-16.318
		l14.197-28.908l-13.681,18.048l-1.178-43.27l-1.858,26.637l-6.708-3.982l5.882,8.901l-1.603,31.499l-5.313-8.389l4.572,14.927
		L370.317,421.882z"/>
	<path style="fill:#263238;" d="M302.168,421.882c2.161,0,4.375,0,6.567,0l4.031-145.056l8.424-25.356l-8.876,16.713l1.314-16.318
		l14.197-28.908l-13.681,18.048l-1.178-43.27l-1.858,26.637l-6.708-3.982l5.882,8.901l-1.603,31.499l-5.313-8.389l4.572,14.927
		L302.168,421.882z"/>
	<g>
		<path style="fill:#15C0B6;" d="M401.131,431.491c-2.021-9.277-5.339-20.806-9.953-25.099c-8.211-7.639-21.554,4.365-28.739-1.091
			s8.211-58.928-16.422-62.202c-24.633-3.274-33.87,51.289-45.161,56.745s-15.396-14.186-30.791-15.278
			c-13.459-0.954-39.467,37.287-45.798,46.924H401.131z"/>
		<path style="opacity:0.25;" d="M401.131,431.491c-2.021-9.277-5.339-20.806-9.953-25.099c-8.211-7.639-21.554,4.365-28.739-1.091
			s8.211-58.928-16.422-62.202c-24.633-3.274-33.87,51.289-45.161,56.745s-15.396-14.186-30.791-15.278
			c-13.459-0.954-39.467,37.287-45.798,46.924H401.131z"/>
	</g>
	<g>
		<g>
			<path style="fill:#15C0B6;" d="M288.483,202.44c0,0-14.212,0-18.357,23.094c-4.145,23.094,6.514,29.016-6.514,40.859
				c-13.027,11.843-14.804,20.133-8.29,25.463c6.514,5.329,10.067,11.251,1.777,20.133c-8.29,8.882-9.475,21.91,20.133,30.2
				c29.608,8.29,52.11-11.843,53.294-25.463s-8.882-22.502-9.475-33.753c-0.592-11.251,20.133-21.91,17.765-37.306
				c-2.369-15.396-23.686-9.475-29.608-21.318C303.287,212.506,302.695,202.44,288.483,202.44z"/>
			<path style="opacity:0.46;" d="M288.483,202.44c0,0-14.212,0-18.357,23.094c-4.145,23.094,6.514,29.016-6.514,40.859
				c-13.027,11.843-14.804,20.133-8.29,25.463c6.514,5.329,10.067,11.251,1.777,20.133c-8.29,8.882-9.475,21.91,20.133,30.2
				c29.608,8.29,52.11-11.843,53.294-25.463s-8.882-22.502-9.475-33.753c-0.592-11.251,20.133-21.91,17.765-37.306
				c-2.369-15.396-23.686-9.475-29.608-21.318C303.287,212.506,302.695,202.44,288.483,202.44z"/>
		</g>
		<path style="fill:#92989B;" d="M277.962,426.867c1.708,0,3.458,0,5.191,0l7.333-144.477l6.66-20.045l-7.017,13.213l1.039-12.9
			l11.223-22.853l-10.816,14.268l-0.932-34.207l-1.469,21.058l-5.303-3.148l4.65,7.036l-1.267,24.902l-4.2-6.632l3.614,11.801
			L277.962,426.867z"/>
	</g>
	<g>
		<path style="fill:#15C0B6;" d="M199.563,431.491c1.52-8.562,4.016-19.202,7.487-23.163c6.176-7.05,16.213,4.029,21.618-1.007
			c5.405-5.035-6.177-54.383,12.353-57.404c18.53-3.021,25.478,47.333,33.971,52.369c8.493,5.035,11.581-13.092,23.162-14.099
			c10.124-0.88,29.688,34.411,34.45,43.305H199.563z"/>
		<path style="opacity:0.46;" d="M199.563,431.491c1.52-8.562,4.016-19.202,7.487-23.163c6.176-7.05,16.213,4.029,21.618-1.007
			c5.405-5.035-6.177-54.383,12.353-57.404c18.53-3.021,25.478,47.333,33.971,52.369c8.493,5.035,11.581-13.092,23.162-14.099
			c10.124-0.88,29.688,34.411,34.45,43.305H199.563z"/>
	</g>
	<path style="fill:#15C0B6;" d="M270.156,431.491c-1.368-5.906-3.614-13.246-6.737-15.979c-5.558-4.863-14.59,2.779-19.453-0.695
		c-4.863-3.474,5.558-37.516-11.116-39.6c-16.674-2.084-22.927,32.653-30.569,36.127c-7.642,3.474-10.421-9.032-20.842-9.727
		c-9.11-0.607-26.715,23.739-31,29.874H270.156z"/>
	<g>
		<path style="fill:#15C0B6;" d="M79.496,347.144c0,0-13.639,1.436-33.021-17.228c-19.382-18.664,18.664-84.706,33.739-99.063
			s45.942,77.528,34.457,94.756C103.185,342.837,90.981,346.426,79.496,347.144z"/>
		<path style="opacity:0.46;" d="M79.496,347.144c0,0-13.639,1.436-33.021-17.228c-19.382-18.664,18.664-84.706,33.739-99.063
			s45.942,77.528,34.457,94.756C103.185,342.837,90.981,346.426,79.496,347.144z"/>
		<polyline style="fill:#263238;" points="73.753,422.518 75.906,326.327 66.574,316.277 76.624,322.02 76.624,304.791 
			63.703,289.716 75.906,299.048 74.471,286.845 78.06,292.588 80.214,258.131 81.649,310.534 105.338,297.613 81.649,317.712 
			81.649,327.044 81.649,425.39 		"/>
	</g>
	<g>
		<path style="fill:#15C0B6;" d="M411.317,266.826c0,0-13.639,1.436-33.021-17.228c-19.382-18.664,18.664-84.706,33.739-99.063
			c15.075-14.357,45.942,77.528,34.457,94.756C435.006,262.518,422.803,266.108,411.317,266.826z"/>
		<polyline style="fill:#A8ADAF;" points="400.32,418.409 407.728,246.008 398.396,235.958 408.446,241.701 408.446,224.473 
			395.524,209.398 407.728,218.73 406.292,206.526 409.881,212.269 412.035,177.812 413.471,230.215 437.159,217.294 
			413.471,237.394 413.471,246.726 408.216,421.28 		"/>
	</g>
	<g>
		<path style="fill:#15C0B6;" d="M110.118,429.012c-0.305-1.199-1.027-2.98-2.709-3.898c-2.68-1.462-2.68,0-5.847-0.975
			c-2.098-0.646-1.681-5.375-1.853-6.992c-0.527-4.95-3.266-9.227-8.321-10.506c-5.119-1.295-10.587-0.08-14.432,3.611
			c-6.091,5.847-5.36,10.963-9.258,11.207c-3.898,0.244-6.091-4.629-12.912-1.706c-4.186,1.794-6.352,6.155-7.402,9.258H110.118z"/>
		<path style="opacity:0.5;fill:#FFFFFF;" d="M110.118,429.012c-0.305-1.199-1.027-2.98-2.709-3.898c-2.68-1.462-2.68,0-5.847-0.975
			c-2.098-0.646-1.681-5.375-1.853-6.992c-0.527-4.95-3.266-9.227-8.321-10.506c-5.119-1.295-10.587-0.08-14.432,3.611
			c-6.091,5.847-5.36,10.963-9.258,11.207c-3.898,0.244-6.091-4.629-12.912-1.706c-4.186,1.794-6.352,6.155-7.402,9.258H110.118z"/>
		<g>
			
				<path style="fill:none;stroke:#263238;stroke-width:0.9039;stroke-linecap:round;stroke-linejoin:round;stroke-miterlimit:10;" d="
				M53.722,428.653c0,0,1.079-4.45,4.72-4.855c3.641-0.405,6.203,5.529,11.597,0.539c5.394-4.989,8.631-17.665,16.991-17.261
				s8.226,10.518,7.282,14.699c-0.944,4.18,4.585,4.046,7.012,3.506c2.427-0.539,5.259,2.158,5.259,3.776"/>
			
				<line style="fill:none;stroke:#263238;stroke-width:0.9039;stroke-linecap:round;stroke-linejoin:round;stroke-miterlimit:10;" x1="61.273" y1="428.923" x2="58.307" y2="426.226"/>
			
				<line style="fill:none;stroke:#263238;stroke-width:0.9039;stroke-linecap:round;stroke-linejoin:round;stroke-miterlimit:10;" x1="79.343" y1="429.057" x2="87.299" y2="412.875"/>
			
				<polyline style="fill:none;stroke:#263238;stroke-width:0.9039;stroke-linecap:round;stroke-linejoin:round;stroke-miterlimit:10;" points="
				83.254,414.089 84.198,419.348 90.536,415.842 			"/>
			
				<polyline style="fill:none;stroke:#263238;stroke-width:0.9039;stroke-linecap:round;stroke-linejoin:round;stroke-miterlimit:10;" points="
				78.13,419.483 81.366,425.416 87.704,423.394 			"/>
		</g>
	</g>
	<g>
		<path style="fill:#15C0B6;" d="M244.088,427.343c-0.337-1.327-1.136-3.297-2.997-4.313c-2.965-1.617-2.965,0-6.469-1.078
			c-2.321-0.714-1.86-5.947-2.05-7.735c-0.583-5.477-3.613-10.209-9.206-11.623c-5.664-1.433-11.713-0.089-15.967,3.995
			c-6.738,6.469-5.93,12.129-10.242,12.399c-4.313,0.27-6.738-5.121-14.285-1.887c-4.631,1.985-7.027,6.809-8.189,10.242H244.088z"
			/>
		<path style="opacity:0.5;fill:#FFFFFF;" d="M244.088,427.343c-0.337-1.327-1.136-3.297-2.997-4.313
			c-2.965-1.617-2.965,0-6.469-1.078c-2.321-0.714-1.86-5.947-2.05-7.735c-0.583-5.477-3.613-10.209-9.206-11.623
			c-5.664-1.433-11.713-0.089-15.967,3.995c-6.738,6.469-5.93,12.129-10.242,12.399c-4.313,0.27-6.738-5.121-14.285-1.887
			c-4.631,1.985-7.027,6.809-8.189,10.242H244.088z"/>
		<g>
			
				<line style="fill:none;stroke:#263238;stroke-linecap:round;stroke-linejoin:round;stroke-miterlimit:10;" x1="190.049" y1="427.244" x2="186.767" y2="424.26"/>
			
				<line style="fill:none;stroke:#263238;stroke-linecap:round;stroke-linejoin:round;stroke-miterlimit:10;" x1="210.041" y1="427.393" x2="218.843" y2="409.49"/>
			<polyline style="fill:none;stroke:#263238;stroke-linecap:round;stroke-linejoin:round;stroke-miterlimit:10;" points="
				214.367,410.833 215.411,416.651 222.423,412.772 			"/>
			<polyline style="fill:none;stroke:#263238;stroke-linecap:round;stroke-linejoin:round;stroke-miterlimit:10;" points="
				208.698,416.801 212.278,423.365 219.29,421.127 			"/>
		</g>
	</g>
	<g>
		<g>
			<path style="fill:#15C0B6;" d="M132.689,134.665c0,0-20.466,0-26.435,33.258c-5.969,33.257,9.38,41.785-9.38,58.84
				c-18.761,17.055-21.319,28.994-11.939,36.668c9.38,7.675,14.497,16.202,2.558,28.994c-11.939,12.791-13.644,31.552,28.994,43.491
				c42.638,11.939,75.043-17.055,76.748-36.669c1.706-19.613-12.791-32.405-13.644-48.607
				c-0.853-16.202,28.994-31.552,25.583-53.724c-3.411-22.172-34.11-13.644-42.638-30.699
				C154.008,149.161,153.156,134.665,132.689,134.665z"/>
			<path style="opacity:0.18;" d="M132.689,134.665c0,0-20.466,0-26.435,33.258c-5.969,33.257,9.38,41.785-9.38,58.84
				c-18.761,17.055-21.319,28.994-11.939,36.668c9.38,7.675,14.497,16.202,2.558,28.994c-11.939,12.791-13.644,31.552,28.994,43.491
				c42.638,11.939,75.043-17.055,76.748-36.669c1.706-19.613-12.791-32.405-13.644-48.607
				c-0.853-16.202,28.994-31.552,25.583-53.724c-3.411-22.172-34.11-13.644-42.638-30.699
				C154.008,149.161,153.156,134.665,132.689,134.665z"/>
		</g>
		<path style="fill:#263238;" d="M117.539,457.859c2.461,0,4.981,0,7.476,0l10.56-208.059l9.591-28.867l-10.105,19.027l1.496-18.577
			l16.162-32.91l-15.575,20.547l-1.342-49.261l-2.115,30.326l-7.637-4.534l6.696,10.133l-1.825,35.86l-6.049-9.55l5.205,16.994
			L117.539,457.859z"/>
	</g>
	<g>
		<g>
			<path style="fill:#15C0B6;" d="M326.64,154.253c0,0-20.454,0.711-25.263,34.156c-4.81,33.445,10.827,41.434-7.33,59.131
				c-18.156,17.697-20.298,29.717-10.657,37.061c9.641,7.344,15.051,15.689,3.564,28.887
				c-11.487,13.198-12.539,32.007,30.488,42.456c43.027,10.45,74.404-19.653,75.427-39.314c1.023-19.661-13.91-31.941-15.325-48.104
				c-1.415-16.163,27.88-32.541,23.7-54.58c-4.18-22.04-34.564-12.45-43.679-29.199C348.45,167.999,347.094,153.541,326.64,154.253z
				"/>
		</g>
		<g style="opacity:0.5;">
			<path style="fill:#FFFFFF;" d="M326.64,154.253c0,0-20.454,0.711-25.263,34.156c-4.81,33.445,10.827,41.434-7.33,59.131
				c-18.156,17.697-20.298,29.717-10.657,37.061c9.641,7.344,15.051,15.689,3.564,28.887
				c-11.487,13.198-12.539,32.007,30.488,42.456c43.027,10.45,74.404-19.653,75.427-39.314c1.023-19.661-13.91-31.941-15.325-48.104
				c-1.415-16.163,27.88-32.541,23.7-54.58c-4.18-22.04-34.564-12.45-43.679-29.199C348.45,167.999,347.094,153.541,326.64,154.253z
				"/>
		</g>
		<path style="fill:#263238;" d="M320.643,438.139c2.459-0.086,4.978-0.173,7.471-0.26l5.411-168.661l8.581-29.183l-9.438,19.367
			l0.849-18.618l15.009-33.452l-14.852,21.076l-3.053-49.185l-1.06,30.381l-7.79-4.266l7.044,9.894l-0.578,35.902l-6.377-9.334
			l5.792,16.803L320.643,438.139z"/>
	</g>
	<path style="fill:#15C0B6;" d="M452.601,431.491c-1.784-7.703-4.713-17.275-8.786-20.839c-7.248-6.342-19.027,3.624-25.369-0.906
		c-6.342-4.53,7.248-48.926-14.497-51.644c-21.745-2.718-29.899,42.584-39.866,47.114c-9.966,4.53-13.591-11.779-27.181-12.685
		c-11.881-0.792-34.84,30.958-40.428,38.96H452.601z"/>
	<g>
		<path style="fill:#15C0B6;" d="M207.126,433.465c0.681-5.271,1.05-14.978-4.27-20.298c-7.547-7.547-18.869,4.717-21.699,4.717
			c-2.83,0-3.774-7.547-12.265-14.152c-8.491-6.604-18.869,1.887-24.529,0s4.717-31.133-11.321-32.077
			c-16.038-0.943-21.699,39.624-33.02,39.624c-11.321,0-13.208-7.547-24.529-0.943c-8.868,5.173-13.683,17.867-15.354,23.128
			H207.126z"/>
		<path style="opacity:0.25;" d="M207.126,433.465c0.681-5.271,1.05-14.978-4.27-20.298c-7.547-7.547-18.869,4.717-21.699,4.717
			c-2.83,0-3.774-7.547-12.265-14.152c-8.491-6.604-18.869,1.887-24.529,0s4.717-31.133-11.321-32.077
			c-16.038-0.943-21.699,39.624-33.02,39.624c-11.321,0-13.208-7.547-24.529-0.943c-8.868,5.173-13.683,17.867-15.354,23.128
			H207.126z"/>
		
			<line style="fill:none;stroke:#263238;stroke-linecap:round;stroke-linejoin:round;stroke-miterlimit:10;" x1="90.609" y1="432.199" x2="80.485" y2="415.747"/>
		
			<line style="fill:none;stroke:#263238;stroke-linecap:round;stroke-linejoin:round;stroke-miterlimit:10;" x1="126.889" y1="430.934" x2="131.951" y2="383.264"/>
		
			<line style="fill:none;stroke:#263238;stroke-linecap:round;stroke-linejoin:round;stroke-miterlimit:10;" x1="155.997" y1="431.778" x2="161.059" y2="413.216"/>
		
			<line style="fill:none;stroke:#263238;stroke-linecap:round;stroke-linejoin:round;stroke-miterlimit:10;" x1="191.855" y1="432.621" x2="196.917" y2="419.544"/>
		<polyline style="fill:none;stroke:#263238;stroke-linecap:round;stroke-linejoin:round;stroke-miterlimit:10;" points="
			91.453,416.169 86.391,425.028 74.579,420.388 		"/>
		<polyline style="fill:none;stroke:#263238;stroke-linecap:round;stroke-linejoin:round;stroke-miterlimit:10;" points="
			124.358,387.061 130.264,397.608 138.279,387.905 		"/>
		<polyline style="fill:none;stroke:#263238;stroke-linecap:round;stroke-linejoin:round;stroke-miterlimit:10;" points="
			120.983,403.935 128.576,413.216 136.17,407.31 		"/>
		
			<line style="fill:none;stroke:#263238;stroke-linecap:round;stroke-linejoin:round;stroke-miterlimit:10;" x1="158.95" y1="421.231" x2="169.074" y2="415.325"/>
		
			<line style="fill:none;stroke:#263238;stroke-linecap:round;stroke-linejoin:round;stroke-miterlimit:10;" x1="158.106" y1="424.606" x2="153.044" y2="411.529"/>
		
			<line style="fill:none;stroke:#263238;stroke-linecap:round;stroke-linejoin:round;stroke-miterlimit:10;" x1="194.386" y1="425.872" x2="191.855" y2="417.435"/>
		
			<line style="fill:none;stroke:#263238;stroke-linecap:round;stroke-linejoin:round;stroke-miterlimit:10;" x1="193.542" y1="427.559" x2="200.714" y2="424.606"/>
	</g>
	<g>
		<path style="fill:#15C0B6;" d="M243.929,197.617c-3.418-6.417-7.502-12.296-12.403-17.105c-7.409-7.27-17.207-10.948-27.568-9.774
			c-20.277,2.298-25.83,28.151-31.571,43.867c-13.72,37.558-30.741,93.244,20.563,109.645c22.112,7.069,52.484-0.016,61.366-23.702
			c7.689-20.504,7.574-43.064,2.916-64.246C254.507,223.91,250.417,209.797,243.929,197.617z"/>
		<path style="fill:#263238;" d="M201.964,457.579c2.46,0,4.981,0,7.476,0l4.589-165.141l9.591-28.867l-10.105,19.027l1.496-18.577
			l16.162-32.91l-15.575,20.547l-1.342-49.261l-2.115,30.326l-7.637-4.534l6.696,10.133l-1.825,35.86l-6.049-9.55l5.205,16.994
			L201.964,457.579z"/>
		<g>
			<path style="fill:#808080;" d="M212.31,354.287l0.135-4.872c-1.184,0.038-2.874,0.405-2.874,2.207
				C209.571,353.112,210.993,353.886,212.31,354.287z"/>
			<path style="fill:#808080;" d="M210.803,298.364c0,1.583,1.607,2.36,2.985,2.737l0.138-4.95
				C212.747,296.147,210.803,296.431,210.803,298.364z"/>
			<path style="fill:#808080;" d="M209.879,320.837c0,1.699,1.849,2.469,3.282,2.813l0.139-5.019
				C212.192,318.582,209.879,318.729,209.879,320.837z"/>
			<path style="fill:#808080;" d="M212.65,267.887c0.394-1.576-1.478-1.638-2.88-1.479l-0.255,5.01
				C210.562,270.786,212.235,269.548,212.65,267.887z"/>
			<path style="fill:#808080;" d="M206.493,428.893c0,1.855,2.204,2.603,3.663,2.897l0.141-5.076
				C209.497,426.634,206.493,426.491,206.493,428.893z"/>
			<path style="fill:#808080;" d="M210.586,250.379l-0.25,4.904c1.048-0.664,2.541-1.849,2.929-3.404
				C213.641,250.377,211.958,250.25,210.586,250.379z"/>
			<path style="fill:#808080;" d="M212.034,236.178c0,1.673,1.794,2.445,3.217,2.797l-0.136-5.01
				C213.933,233.968,212.034,234.269,212.034,236.178z"/>
			<path style="fill:#808080;" d="M209.995,396.227c0.751-3.003-3.132-2.916-5.646-2.566l-0.339,9.085
				C205.806,401.72,209.199,399.411,209.995,396.227z"/>
			<path style="fill:#808080;" d="M210.803,405.805c0,0-4.002-0.616-4.002,2.155c0,1.976,2.499,2.697,3.936,2.949l0.132-4.734
				L210.803,405.805z"/>
			<path style="fill:#808080;" d="M207.724,367.708c0,2.397,1.966,3.809,4.084,4.637l0.242-8.693
				C210.003,363.914,207.724,364.844,207.724,367.708z"/>
			<path style="fill:#808080;" d="M205.641,359.052l-0.182,4.872c1.045-0.669,2.498-1.842,2.881-3.374
				C208.717,359.042,207.016,358.921,205.641,359.052z"/>
			<path style="fill:#808080;" d="M207.538,308.223l-0.156,4.181c0.814-0.672,1.613-1.573,1.882-2.649
				C209.553,308.595,208.612,308.258,207.538,308.223z"/>
			<path style="fill:#808080;" d="M208.34,386.718c0.478-1.912-2.377-1.598-3.681-1.361l-0.198,5.304
				C205.064,390.362,207.793,388.906,208.34,386.718z"/>
		</g>
	</g>
	<g>
		<path style="fill:#15C0B6;" d="M402.944,122.166c-3.418-6.417-7.502-12.296-12.403-17.105c-7.409-7.27-17.207-10.948-27.568-9.774
			c-20.277,2.298-25.83,28.151-31.571,43.868c-13.72,37.558-30.741,93.244,20.563,109.645c22.112,7.069,52.484-0.016,61.366-23.701
			c7.689-20.504,7.574-43.064,2.916-64.246C413.522,148.46,409.432,134.346,402.944,122.166z"/>
		<path style="opacity:0.18;" d="M402.944,122.166c-3.418-6.417-7.502-12.296-12.403-17.105c-7.409-7.27-17.207-10.948-27.568-9.774
			c-20.277,2.298-25.83,28.151-31.571,43.868c-13.72,37.558-30.741,93.244,20.563,109.645c22.112,7.069,52.484-0.016,61.366-23.701
			c7.689-20.504,7.574-43.064,2.916-64.246C413.522,148.46,409.432,134.346,402.944,122.166z"/>
		<path style="fill:#263238;" d="M358.132,428.955c2.46,0,4.981,0,7.476,0l7.435-211.968l9.59-28.867l-10.105,19.027l1.496-18.577
			l16.162-32.91l-15.575,20.547l-1.342-49.261l-2.115,30.326l-7.637-4.534l6.696,10.133l-1.825,35.86l-6.049-9.55l5.205,16.994
			L358.132,428.955z"/>
		<g>
			<path style="fill:#5C5C5C;" d="M368.494,235.931c0.373-1.491-0.759-1.975-2.119-2.059l-0.231,5.469
				C367.173,238.454,368.151,237.301,368.494,235.931z"/>
			<path style="fill:#5C5C5C;" d="M362.858,321.152l-0.245,6.566c1.409-0.902,3.367-2.483,3.883-4.547
				C367.004,321.138,364.712,320.974,362.858,321.152z"/>
			<path style="fill:#5C5C5C;" d="M369.613,174.683l-0.334,6.555c1.407-0.904,3.342-2.474,3.855-4.527
				C373.632,174.721,371.445,174.524,369.613,174.683z"/>
			<path style="fill:#5C5C5C;" d="M367.741,254.713c0.102-0.408,0.086-0.738-0.012-1.007c1.357-1.39,2.52-3.058,2.995-4.959
				c0.757-3.026-1.978-3.724-4.823-3.686l-0.553,13.098C366.394,257.267,367.394,256.1,367.741,254.713z"/>
			<path style="fill:#5C5C5C;" d="M374.136,158.769l-0.164-6.027c-1.279,0.292-2.497,1.035-2.497,2.81
				C371.475,157.171,372.723,158.162,374.136,158.769z"/>
			<path style="fill:#5C5C5C;" d="M366.732,203.523c0.568-0.569,1.076-1.223,1.423-1.953l-0.075,1.475
				c1.411-0.852,3.665-2.52,4.225-4.759c0.523-2.091-1.913-2.204-3.791-2.003l-0.124,2.448l-0.083-0.131l-0.035,0.69
				c-0.563-0.656-1.845-0.754-3.042-0.675L366.732,203.523z"/>
			<path style="fill:#5C5C5C;" d="M370.153,188.632c0,1.965,1.838,3.003,3.58,3.553l0.171-2.118l0.122-4.41
				C372.431,185.708,370.153,186.203,370.153,188.632z"/>
			<path style="fill:#5C5C5C;" d="M361.269,363.751c0.813-0.402,4.49-2.365,5.228-5.314c0.644-2.577-3.204-2.153-4.961-1.835
				L361.269,363.751z"/>
			<path style="fill:#5C5C5C;" d="M368.156,311.139c0,1.144,0.631,1.966,1.495,2.569l0.179-5.113
				C368.897,308.999,368.156,309.753,368.156,311.139z"/>
			<path style="fill:#5C5C5C;" d="M371.478,261.617c-1.165-0.109-5.059-0.235-5.059,2.942c0,1.67,1.324,2.674,2.789,3.275
				c-0.387,0.434-0.638,1.017-0.638,1.815c0,1.563,1.163,2.543,2.515,3.155L371.478,261.617z"/>
			<path style="fill:#5C5C5C;" d="M369.815,239.361c0,1.492,1.064,2.445,2.335,3.061l0.206-5.881
				C371.062,236.826,369.815,237.564,369.815,239.361z"/>
			<path style="fill:#5C5C5C;" d="M372.529,207.148l0.175-2.174c-2.523,0.488-5.04,1.843-5.04,5.337c0,3.23,2.65,5.134,5.504,6.249
				l0.311-11.201L372.529,207.148z"/>
			<path style="fill:#5C5C5C;" d="M365.666,332.817c0,2.294,1.339,3.917,3.136,5.065l0.35-9.971
				C367.244,328.629,365.666,330.053,365.666,332.817z"/>
			<path style="fill:#5C5C5C;" d="M367.537,373.948l0.198-5.637c-1.566-0.968-4.462-0.816-6.618-0.515l-0.457,12.245
				C362.54,378.966,365.708,376.847,367.537,373.948z"/>
			<path style="fill:#5C5C5C;" d="M366.184,412.551c-1.154,0.34-2.177,1.1-2.177,2.727c0,1.352,0.871,2.265,1.98,2.884
				L366.184,412.551z"/>
			<path style="fill:#5C5C5C;" d="M364.422,387.065c0,1.576,1.181,2.556,2.545,3.167l0.212-6.028
				C365.81,384.453,364.422,385.171,364.422,387.065z"/>
		</g>
	</g>
	<g>
		<g>
			<path style="fill:#15C0B6;" d="M133.611,226.337c0,0-16.046,4.451-24.579,23.565c-8.533,19.114,5.243,34.127-1.419,53.159
				c-6.662,19.032-25.607,28.607-8.714,43.484c16.893,14.877,38.355-8.552,49.686-6.549c11.332,2.002,12.233,22.577,43.079,13.73
				c30.846-8.847,20.943-35.274,9.174-47.252c-11.769-11.978-2.64-31.742-10.673-58.251
				C184.001,227.88,155.729,217.872,133.611,226.337z"/>
			<path style="opacity:0.5;fill:#FFFFFF;" d="M133.611,226.337c0,0-16.046,4.451-24.579,23.565
				c-8.533,19.114,5.243,34.127-1.419,53.159c-6.662,19.032-25.607,28.607-8.714,43.484c16.893,14.877,38.355-8.552,49.686-6.549
				c11.332,2.002,12.233,22.577,43.079,13.73c30.846-8.847,20.943-35.274,9.174-47.252c-11.769-11.978-2.64-31.742-10.673-58.251
				C184.001,227.88,155.729,217.872,133.611,226.337z"/>
		</g>
		<polygon style="fill:#263238;" points="146.161,470.032 151.397,318.633 115.308,293.354 151.802,313.618 152.093,291.742 
			144.038,278.977 153.149,287.323 155.633,258.48 157.545,302.123 183.157,287.883 157.873,309.604 157.177,336.495 
			178.074,328.709 156.827,342.757 153.643,469.704 		"/>
		<g>
			<path style="fill:#808080;" d="M153.967,333.806c1.408,0.704,2.555,0.655,3.266,0.501l0.118-4.563
				C156.006,330.467,151.967,332.805,153.967,333.806z"/>
			<path style="fill:#808080;" d="M148.18,411.642l-0.13,3.757l-0.028,0.812c1.109-0.664,2.541-1.616,3.564-2.639
				C152.719,412.439,150.315,411.896,148.18,411.642z"/>
			<path style="fill:#808080;" d="M149.595,370.747l-0.146,4.219c1.022-0.638,2.208-1.466,3.09-2.348
				C153.59,371.566,151.594,371.023,149.595,370.747z"/>
			<path style="fill:#808080;" d="M148.885,391.263c1.121-0.666,2.603-1.642,3.654-2.692c1.148-1.148-1.337-1.69-3.493-1.94
				l-0.067,1.933L148.885,391.263z"/>
			<path style="fill:#808080;" d="M151.943,303.03l-0.026,1.964c0.941-0.606,1.975-1.353,2.765-2.142
				c1.011-1.011-0.795-1.552-2.712-1.838L151.943,303.03z"/>
			<path style="fill:#808080;" d="M151.135,326.201c1.773-1.056,4.087-2.585,5.738-4.236c1.813-1.814-2.075-2.675-5.486-3.075
				L151.135,326.201z"/>
			<path style="fill:#808080;" d="M153.729,381.189c0.803,0.401,1.515,0.548,2.119,0.581l0.1-3.973
				C154.298,378.806,152.165,380.407,153.729,381.189z"/>
			<path style="fill:#808080;" d="M152.909,365.942c1.192,0.596,2.297,0.95,3.307,1.153l0.2-7.99
				C153.011,361.401,149.781,364.378,152.909,365.942z"/>
			<path style="fill:#808080;" d="M152.272,398.411c1.211,0.605,2.27,0.796,3.139,0.809l0.14-5.597
				C153.273,394.987,150.055,397.302,152.272,398.411z"/>
			<path style="fill:#808080;" d="M155.103,411.495l0.112-4.478c-1.523,0.841-5.046,2.989-3.152,3.936
				C153.33,411.586,154.384,411.609,155.103,411.495z"/>
			<path style="fill:#808080;" d="M150.28,350.948l-0.153,4.425c1.077-0.656,2.403-1.557,3.365-2.519
				C154.59,351.756,152.362,351.212,150.28,350.948z"/>
		</g>
	</g>
	<g>
		<path style="fill:#15C0B6;" d="M243.19,457.861c-0.337-1.327-1.136-3.297-2.997-4.313c-2.965-1.617-2.965,0-6.469-1.078
			c-2.321-0.714-1.86-5.947-2.05-7.735c-0.583-5.477-3.613-10.209-9.206-11.623c-5.664-1.433-11.713-0.089-15.967,3.995
			c-6.738,6.469-5.93,12.129-10.242,12.399c-4.313,0.27-6.738-5.121-14.285-1.887c-4.631,1.985-7.027,6.809-8.189,10.242H243.19z"/>
		<path style="opacity:0.5;fill:#FFFFFF;" d="M243.19,457.861c-0.337-1.327-1.136-3.297-2.997-4.313
			c-2.965-1.617-2.965,0-6.469-1.078c-2.321-0.714-1.86-5.947-2.05-7.735c-0.583-5.477-3.613-10.209-9.206-11.623
			c-5.664-1.433-11.713-0.089-15.967,3.995c-6.738,6.469-5.93,12.129-10.242,12.399c-4.313,0.27-6.738-5.121-14.285-1.887
			c-4.631,1.985-7.027,6.809-8.189,10.242H243.19z"/>
		<g>
			
				<line style="fill:none;stroke:#263238;stroke-linecap:round;stroke-linejoin:round;stroke-miterlimit:10;" x1="189.152" y1="457.761" x2="185.869" y2="454.777"/>
			
				<line style="fill:none;stroke:#263238;stroke-linecap:round;stroke-linejoin:round;stroke-miterlimit:10;" x1="209.143" y1="457.91" x2="217.945" y2="440.008"/>
			<polyline style="fill:none;stroke:#263238;stroke-linecap:round;stroke-linejoin:round;stroke-miterlimit:10;" points="
				213.47,441.35 214.514,447.169 221.526,443.29 			"/>
			<polyline style="fill:none;stroke:#263238;stroke-linecap:round;stroke-linejoin:round;stroke-miterlimit:10;" points="
				207.8,447.318 211.381,453.882 218.393,451.645 			"/>
		</g>
	</g>
	<g>
		<path style="fill:#15C0B6;" d="M187.025,470.614c-0.748-2.943-2.52-7.314-6.648-9.566c-6.577-3.587-6.577,0-14.349-2.391
			c-5.148-1.584-4.126-13.191-4.548-17.158c-1.293-12.148-8.015-22.645-20.421-25.783c-12.563-3.178-25.982-0.196-35.418,8.862
			c-14.947,14.349-13.153,26.905-22.719,27.503s-14.947-11.36-31.688-4.185c-10.273,4.403-15.588,15.104-18.165,22.72H187.025z"/>
		<g>
			
				<line style="fill:none;stroke:#263238;stroke-linecap:round;stroke-linejoin:round;stroke-miterlimit:10;" x1="67.156" y1="470.394" x2="59.876" y2="463.776"/>
			
				<line style="fill:none;stroke:#263238;stroke-linecap:round;stroke-linejoin:round;stroke-miterlimit:10;" x1="111.501" y1="470.725" x2="131.026" y2="431.013"/>
			
				<line style="fill:none;stroke:#263238;stroke-linecap:round;stroke-linejoin:round;stroke-miterlimit:10;" x1="162.465" y1="469.732" x2="168.753" y2="465.761"/>
			<polyline style="fill:none;stroke:#263238;stroke-linecap:round;stroke-linejoin:round;stroke-miterlimit:10;" points="
				121.098,433.991 123.415,446.898 138.969,438.294 			"/>
			<polyline style="fill:none;stroke:#263238;stroke-linecap:round;stroke-linejoin:round;stroke-miterlimit:10;" points="
				108.523,447.229 116.465,461.79 132.019,456.826 			"/>
			<polyline style="fill:none;stroke:#263238;stroke-linecap:round;stroke-linejoin:round;stroke-miterlimit:10;" points="
				66.825,462.121 65.502,469.401 58.221,468.078 			"/>
			
				<line style="fill:none;stroke:#263238;stroke-linecap:round;stroke-linejoin:round;stroke-miterlimit:10;" x1="164.451" y1="468.078" x2="163.458" y2="464.437"/>
			<circle style="fill:#263238;" cx="121.049" cy="433.528" r="1.067"/>
			<path style="fill:#263238;" d="M132.093,431.013c0,0.589-0.478,1.067-1.067,1.067c-0.589,0-1.067-0.478-1.067-1.067
				c0-0.589,0.478-1.067,1.067-1.067C131.615,429.946,132.093,430.424,132.093,431.013z"/>
			<circle style="fill:#263238;" cx="139.934" cy="437.83" r="1.067"/>
			<path style="fill:#263238;" d="M133.673,456.642c0,0.589-0.478,1.067-1.067,1.067c-0.589,0-1.067-0.478-1.067-1.067
				c0-0.589,0.478-1.067,1.067-1.067C133.195,455.575,133.673,456.053,133.673,456.642z"/>
			<circle style="fill:#263238;" cx="108.425" cy="447.041" r="1.067"/>
			<circle style="fill:#263238;" cx="163.458" cy="464.437" r="1.067"/>
			<path style="fill:#263238;" d="M169.766,465.532c0,0.589-0.478,1.067-1.067,1.067c-0.589,0-1.067-0.478-1.067-1.067
				c0-0.589,0.478-1.067,1.067-1.067C169.289,464.465,169.766,464.943,169.766,465.532z"/>
			<circle style="fill:#263238;" cx="66.825" cy="462.121" r="1.067"/>
			<path style="fill:#263238;" d="M60.596,463.221c0,0.589-0.478,1.067-1.067,1.067c-0.589,0-1.067-0.478-1.067-1.067
				s0.478-1.067,1.067-1.067C60.118,462.154,60.596,462.632,60.596,463.221z"/>
			<circle style="fill:#263238;" cx="57.751" cy="468.021" r="1.067"/>
		</g>
	</g>
	<path style="fill:none;stroke:#263238;stroke-linecap:round;stroke-linejoin:round;stroke-miterlimit:10;" d="M279.548,428.322
		c0,0-47.008,2.725-42.239,5.45c4.769,2.725,42.921,6.132,36.789,12.944c-6.132,6.813-81.754,25.207-81.754,25.207"/>
	<path style="fill:none;stroke:#263238;stroke-linecap:round;stroke-linejoin:round;stroke-miterlimit:10;" d="M305.437,428.322
		c0,0-17.713,2.725-14.988,4.769c2.725,2.044,126.037,4.769,118.543,40.195"/>
	<g>
		<path style="fill:#15C0B6;" d="M388.516,347.854c0,0-16.202,1.706-39.227-20.466c-23.024-22.172,22.172-100.625,40.08-117.68
			c17.908-17.055,54.576,92.098,40.932,112.564C416.658,342.737,402.161,347.001,388.516,347.854z"/>
		<polyline style="fill:#263238;" points="381.694,437.393 384.253,323.124 373.167,311.185 385.105,318.007 385.105,297.541 
			369.756,279.633 384.253,290.719 382.547,276.222 386.811,283.044 389.369,242.112 391.075,304.363 419.216,289.013 
			391.075,312.891 391.075,323.977 391.075,440.804 		"/>
		<g>
			<path style="fill:#808080;" d="M387.941,387.96c0.72-1.801-3.871-2.037-5.094-2.069l-0.122,5.454
				C384.325,390.755,387.338,389.469,387.941,387.96z"/>
			<path style="fill:#808080;" d="M391.075,341.827c-2.334,0.58-7.102,1.971-5.71,3.362c1.093,1.092,3.751,1.528,5.71,1.703V341.827
				z"/>
			<path style="fill:#808080;" d="M388.281,357.217c0.729-1.822-4.738-1.822-4.738-1.822l-0.014,0.1l-0.107,4.798
				C384.719,359.832,387.713,358.637,388.281,357.217z"/>
			<path style="fill:#808080;" d="M387.916,333.526c0.542-1.356-2.342-1.702-3.856-1.791l-0.101,4.525
				C385.413,335.674,387.457,334.673,387.916,333.526z"/>
			<path style="fill:#808080;" d="M382.549,412.858l-0.362,2.537l-0.07,3.139c1.249-0.425,5.13-1.866,5.825-3.602
				C388.771,412.858,382.549,412.858,382.549,412.858z"/>
			<path style="fill:#808080;" d="M384.623,374.273c1.235,1.235,4.227,1.732,6.452,1.934v-5.748
				C388.402,371.125,383.049,372.699,384.623,374.273z"/>
			<path style="fill:#808080;" d="M385,321.498c1.162,1.162,4.096,1.582,6.075,1.734v-5.186
				C388.924,318.562,383.532,320.03,385,321.498z"/>
			<path style="fill:#808080;" d="M390.654,289.02c-2.393,0.695-5.326,1.825-4.196,2.955c0.848,0.848,2.642,1.299,4.319,1.541
				L390.654,289.02z"/>
			<path style="fill:#808080;" d="M391.075,397.43c-2.672,0.667-8.026,2.24-6.452,3.815c1.235,1.235,4.227,1.732,6.452,1.934V397.43
				z"/>
			<path style="fill:#808080;" d="M385.105,302.191v4.668c1.455-0.561,3.776-1.624,4.268-2.856
				C389.971,302.509,386.411,302.24,385.105,302.191z"/>
		</g>
	</g>
	<g>
		<path style="fill:#15C0B6;" d="M444.021,438.64c0.74-6.753-4.752-14.02-11.706-14.354c-6.239-0.3-13.098,3.897-18.296,0.435
			c-4.252-2.832-4.344-8.871-4.822-13.958c-0.474-5.051-1.875-10.209-5.199-14.043c-3.324-3.833-8.898-6.01-13.659-4.257
			c-9.586,3.531-10.181,19.262-19.978,22.158c-6.781,2.004-13.853-3.633-20.812-2.385c-8.524,1.529-12.372,10.956-18.91,15.568
			c-0.676,0.477-3.522,2.533-6.779,4.912c-2.733,1.996-5.753,4.217-8.026,5.924H444.021z"/>
		<path style="opacity:0.5;fill:#FFFFFF;" d="M444.021,438.64c0.74-6.753-4.752-14.02-11.706-14.354
			c-6.239-0.3-13.098,3.897-18.296,0.435c-4.252-2.832-4.344-8.871-4.822-13.958c-0.474-5.051-1.875-10.209-5.199-14.043
			c-3.324-3.833-8.898-6.01-13.659-4.257c-9.586,3.531-10.181,19.262-19.978,22.158c-6.781,2.004-13.853-3.633-20.812-2.385
			c-8.524,1.529-12.372,10.956-18.91,15.568c-0.676,0.477-3.522,2.533-6.779,4.912c-2.733,1.996-5.753,4.217-8.026,5.924H444.021z"
			/>
		<g>
			
				<line style="fill:none;stroke:#263238;stroke-linecap:round;stroke-linejoin:round;stroke-miterlimit:10;" x1="364.468" y1="438.085" x2="359.09" y2="422.365"/>
			
				<line style="fill:none;stroke:#263238;stroke-linecap:round;stroke-linejoin:round;stroke-miterlimit:10;" x1="383.498" y1="438.499" x2="394.667" y2="408.3"/>
			
				<line style="fill:none;stroke:#263238;stroke-linecap:round;stroke-linejoin:round;stroke-miterlimit:10;" x1="424.038" y1="438.499" x2="430.657" y2="432.293"/>
			
				<line style="fill:none;stroke:#263238;stroke-linecap:round;stroke-linejoin:round;stroke-miterlimit:10;" x1="362.986" y1="434.361" x2="366.537" y2="424.847"/>
			
				<line style="fill:none;stroke:#263238;stroke-linecap:round;stroke-linejoin:round;stroke-miterlimit:10;" x1="362.297" y1="432.036" x2="349.99" y2="428.984"/>
			
				<line style="fill:none;stroke:#263238;stroke-linecap:round;stroke-linejoin:round;stroke-miterlimit:10;" x1="391.357" y1="417.401" x2="388.048" y2="412.023"/>
			
				<line style="fill:none;stroke:#263238;stroke-linecap:round;stroke-linejoin:round;stroke-miterlimit:10;" x1="388.048" y1="425.674" x2="400.045" y2="419.056"/>
			
				<line style="fill:none;stroke:#263238;stroke-linecap:round;stroke-linejoin:round;stroke-miterlimit:10;" x1="384.473" y1="436.175" x2="395.494" y2="432.293"/>
			
				<line style="fill:none;stroke:#263238;stroke-linecap:round;stroke-linejoin:round;stroke-miterlimit:10;" x1="385.98" y1="431.88" x2="378.947" y2="419.469"/>
			<path style="fill:#263238;" d="M395.734,408.3c0,0.589-0.478,1.067-1.067,1.067s-1.067-0.478-1.067-1.067
				c0-0.589,0.478-1.067,1.067-1.067S395.734,407.711,395.734,408.3z"/>
			<path style="fill:#263238;" d="M389.036,411.928c0,0.589-0.478,1.067-1.067,1.067c-0.589,0-1.067-0.478-1.067-1.067
				c0-0.589,0.478-1.067,1.067-1.067C388.559,410.861,389.036,411.339,389.036,411.928z"/>
			<circle style="fill:#263238;" cx="400.045" cy="419.056" r="1.067"/>
			<circle style="fill:#263238;" cx="378.947" cy="419.469" r="1.067"/>
			<circle style="fill:#263238;" cx="396.054" cy="432.128" r="1.067"/>
			<circle style="fill:#263238;" cx="430.238" cy="432.547" r="1.067"/>
			<path style="fill:#263238;" d="M360.157,422.365c0,0.589-0.478,1.067-1.067,1.067s-1.067-0.478-1.067-1.067
				c0-0.589,0.478-1.067,1.067-1.067S360.157,421.776,360.157,422.365z"/>
			<circle style="fill:#263238;" cx="366.346" cy="424.876" r="1.067"/>
			<circle style="fill:#263238;" cx="349.99" cy="428.984" r="1.067"/>
		</g>
	</g>
	<g>
		<path style="fill:#15C0B6;" d="M474.763,453.542c-0.411-1.618-1.385-4.021-3.655-5.259c-3.616-1.972-3.616,0-7.889-1.315
			c-2.831-0.871-2.268-7.252-2.5-9.433c-0.711-6.679-4.406-12.45-11.227-14.175c-6.907-1.747-14.284-0.108-19.472,4.872
			c-8.217,7.889-7.231,14.792-12.491,15.12c-5.259,0.329-8.218-6.245-17.421-2.301c-5.648,2.421-8.57,8.304-9.987,12.491H474.763z"
			/>
		<g>
			
				<line style="fill:none;stroke:#263238;stroke-linecap:round;stroke-linejoin:round;stroke-miterlimit:10;" x1="408.862" y1="453.421" x2="404.86" y2="449.782"/>
			
				<line style="fill:none;stroke:#263238;stroke-linecap:round;stroke-linejoin:round;stroke-miterlimit:10;" x1="433.242" y1="453.603" x2="443.977" y2="431.77"/>
			<polyline style="fill:none;stroke:#263238;stroke-linecap:round;stroke-linejoin:round;stroke-miterlimit:10;" points="
				438.518,433.408 439.792,440.503 448.343,435.773 			"/>
			<polyline style="fill:none;stroke:#263238;stroke-linecap:round;stroke-linejoin:round;stroke-miterlimit:10;" points="
				431.605,440.685 435.971,448.69 444.522,445.961 			"/>
		</g>
	</g>
</g>
</svg>
